{
.appVersion = "3311";
.formatVersion = 3;
axes = (
{
name = Weight;
tag = wght;
},
{
name = Italic;
tag = ital;
}
);
customParameters = (
{
name = fsType;
value = (
);
},
{
name = "Use Typo Metrics";
value = 1;
},
{
name = "Variable Font Origin";
value = m01;
},
{
name = "Axis Mappings";
value = {
ital = {
0 = 0;
11 = 11;
};
wght = {
300 = 300;
350 = 350;
400 = 400;
500 = 500;
600 = 600;
700 = 700;
};
};
},
{
name = "Use Extension Kerning";
value = 1;
},
{
name = "Write DisplayStrings";
value = 0;
},
{
name = "Write lastChange";
value = 0;
},
{
name = "Export Mac Name Table Entries";
value = 0;
}
);
date = "2023-09-04 21:04:04 +0000";
familyName = "Uncut Sans";
featurePrefixes = (
{
automatic = 1;
code = "languagesystem DFLT dflt;

languagesystem latn dflt;
languagesystem latn AZE;
languagesystem latn CRT;
languagesystem latn KAZ;
languagesystem latn TAT;
languagesystem latn TRK;
languagesystem latn ROM;
languagesystem latn MOL;
languagesystem latn CAT;
languagesystem latn NLD;
";
name = Languagesystems;
}
);
features = (
{
automatic = 1;
code = "feature locl;
feature subs;
feature sinf;
feature sups;
feature numr;
feature dnom;
feature frac;
feature ordn;
feature pnum;
feature tnum;
feature case;
feature zero;
feature ss01;
feature ss02;
feature ss03;
feature ss04;
feature ss05;
feature ss06;
feature ss07;
feature ss08;
feature ss09;
";
tag = aalt;
},
{
automatic = 1;
code = "lookup ccmp_Other_1 {
	@CombiningTopAccents = [acutecomb brevecomb caroncomb circumflexcomb dieresiscomb dotaccentcomb gravecomb hungarumlautcomb macroncomb ringcomb tildecomb];
	lookupflag UseMarkFilteringSet @CombiningTopAccents;
	sub i' @CombiningTopAccents by idotless;
	sub j' @CombiningTopAccents by jdotless;
} ccmp_Other_1;

lookup ccmp_latn_1 {
	lookupflag 0;
	sub napostrophe by apostrophemod n;
} ccmp_latn_1;

script latn;
lookup ccmp_latn_1;
";
tag = ccmp;
},
{
automatic = 1;
code = "script latn;
language AZE;
lookup locl_latn_0 {
	sub i by idotaccent;
} locl_latn_0;
language CRT;

glyphs = (
{
glyphname = A;
kernLeft = A;
kernRight = A;
layers = (
{
anchors = (
{
name = bottom;
pos = (321,0);
},
{
name = ogonek;
pos = (659,0);
},
{
name = top;
pos = (321,700);
}
);
layerId = m01;
shapes = (
{
closed = 1;
nodes = (
(102,0,l),
(336,678,l),
(306,678,l),
(539,0,l),
(618,0,l),
(377,700,l),
(264,700,l),
(23,0,l)
);
},
{
closed = 1;
nodes = (
(477,226,l),
(477,299,l),
(164,299,l),
(164,226,l)
);
}
);
width = 642;
},
{
anchors = (
{
name = bottom;
pos = (359,0);
},
{
name = ogonek;
pos = (741,0);
},
{
name = top;
pos = (359,700);
}
);
layerId = m005;
shapes = (
{
closed = 1;
nodes = (
(164,0,l),
(392,678,l),
(327,678,l),
(553,0,l),
(693,0,l),
(459,700,l),
(258,700,l),
(24,0,l)
);
},
{
closed = 1;
nodes = (
(545,196,l),
(545,309,l),
(172,309,l),
(172,196,l)
);
}
);
width = 717;
},
{
anchors = (
{
name = bottom;
pos = (312,0);
},
{
name = ogonek;
pos = (638,0);
},
{
name = top;
pos = (312,700);
}
);
layerId = m007;
shapes = (
{
closed = 1;
nodes = (
(81,0,l),
(318,678,l),
(306,678,l),
(542,0,l),
(600,0,l),
(356,700,l),
(267,700,l),
(23,0,l)
);
},
{
closed = 1;
nodes = (
(473,236,l),
(473,289,l),
(150,289,l),
(150,236,l)
);
}
);
width = 623;
},
{
anchors = (
{
name = bottom;
pos = (265,0);
},
{
name = ogonek;
pos = (603,0);
},
{
name = top;
pos = (401,700);
}
);
layerId = m004;
shapes = (
{
closed = 1;
nodes = (
(49,0,l),
(415,678,l),
(385,678,l),
(486,0,l),
(562,0,l),
(457,700,l),
(344,700,l),
(-33,0,l)
);
},
{
closed = 1;
nodes = (
(468,226,l),
(482,299,l),
(169,299,l),
(155,226,l)
);
}
);
width = 660;
},
{
anchors = (
{
name = bottom;
pos = (302,0);
},
{
name = ogonek;
pos = (684,0);
},
{
name = top;
pos = (438,700);
}
);
layerId = m008;
shapes = (
{
closed = 1;
nodes = (
(112,0,l),
(472,678,l),
(407,678,l),
(501,0,l),
(636,0,l),
(538,700,l),
(337,700,l),
(-33,0,l)
);
},
{
closed = 1;
nodes = (
(533,196,l),
(555,309,l),
(182,309,l),
(160,196,l)
);
}
);
width = 737;
},
{
anchors = (
{
name = bottom;
pos = (256,0);
},
{
name = ogonek;
pos = (584,0);
},
{
name = top;
pos = (392,700);
}
);
layerId = m006;
shapes = (
{
closed = 1;
nodes = (
(28,0,l),
(397,678,l),
(385,678,l),
(489,0,l),
(544,0,l),
(436,700,l),
(347,700,l),
(-33,0,l)
);
},
{
closed = 1;
nodes = (
(466,236,l),
(476,289,l),
(153,289,l),
(143,236,l)
);
}
);
width = 641;
}
);
unicode = 65;
},
{
glyphname = AE;
kernLeft = A;
kernRight = E;
layers = (
{
anchors = (
{
name = bottom;
pos = (425,0);
},
{
name = top;
pos = (325,700);
}
);
layerId = m01;
shapes = (
{
closed = 1;
nodes = (
(795,627,l),
(795,700,l),
(364,700,l),
(364,627,l)
);
},
{
ref = A;
},
{
closed = 1;
nodes = (
(795,0,l),
(795,73,l),
(549,73,l),
(549,0,l)
);
},
{
closed = 1;
nodes = (
(735,327,l),
(735,400,l),
(445,400,l),
(445,327,l)
);
}
);
width = 839;
},
{
anchors = (
{
name = bottom;
pos = (445,0);
},
{
name = top;
pos = (356,700);
}
);
layerId = m005;
shapes = (
{
closed = 1;
nodes = (
(845,587,l),
(845,700,l),
(435,700,l),
(435,587,l)
);
},
{
ref = A;
},
{
closed = 1;
nodes = (
(845,0,l),
(845,113,l),
(586,113,l),
(586,0,l)
);
},
{
closed = 1;
nodes = (
(785,307,l),
(785,420,l),
(515,420,l),
(515,307,l)
);
}
);
width = 902;
},
{
anchors = (
{
name = bottom;
pos = (423,0);
},
{
name = top;
pos = (313,700);
}
);
layerId = m007;
shapes = (
{
closed = 1;
nodes = (
(785,647,l),
(785,700,l),
(344,700,l),
(344,647,l)
);
},
{
ref = A;
},
{
closed = 1;
nodes = (
(785,0,l),
(785,53,l),
(559,53,l),
(559,0,l)
);
},
{
closed = 1;
nodes = (
(725,337,l),
(725,390,l),
(445,390,l),
(445,337,l)
);
}
);
width = 823;
},
{
anchors = (
{
name = bottom;
pos = (367,0);
},
{
name = top;
pos = (412,700);
}
);
layerId = m004;
shapes = (
{
closed = 1;
nodes = (
(849,627,l),
(863,700,l),
(432,700,l),
(418,627,l)
);
},
{
ref = A;
},
{
closed = 1;
nodes = (
(727,0,l),
(741,73,l),
(495,73,l),
(481,0,l)
);
},
{
closed = 1;
nodes = (
(731,327,l),
(745,400,l),
(455,400,l),
(441,327,l)
);
}
);
width = 794;
},
{
anchors = (
{
name = bottom;
pos = (386,0);
},
{
name = top;
pos = (451,700);
}
);
layerId = m008;
shapes = (
{
closed = 1;
nodes = (
(891,587,l),
(913,700,l),
(503,700,l),
(481,587,l)
);
},
{
ref = A;
},
{
closed = 1;
nodes = (
(777,0,l),
(799,113,l),
(540,113,l),
(518,0,l)
);
},
{
closed = 1;
nodes = (
(777,307,l),
(799,420,l),
(529,420,l),
(507,307,l)
);
}
);
width = 847;
},
{
anchors = (
{
name = bottom;
pos = (365,0);
},
{
name = top;
pos = (407,700);
}
);
layerId = m006;
shapes = (
{
closed = 1;
nodes = (
(843,647,l),
(853,700,l),
(412,700,l),
(402,647,l)
);
},
{
ref = A;
},
{
closed = 1;
nodes = (
(717,0,l),
(727,53,l),
(501,53,l),
(491,0,l)
);
},
{
closed = 1;
nodes = (
(722,337,l),
(733,390,l),
(453,390,l),
(442,337,l)
);
}
);
width = 782;
}
);
metricLeft = A;
metricRight = E;
unicode = 198;
},
{
glyphname = B;
kernLeft = H;
kernRight = B;
layers = (
{
anchors = (
{
name = bottom;
pos = (308,0);
},
{
name = center;
pos = (308,350);
},
{
name = top;
pos = (308,700);
}
);
layerId = m01;
shapes = (
{
closed = 1;
nodes = (
(330,0,ls),
(459,0,o),
(551,80,o),
(551,193,cs),
(551,293,o),
(480,362,o),
(379,362,c),
(383,358,l),
(458,358,o),
(511,421,o),
(511,510,cs),
(511,624,o),
(422,700,o),
(290,700,cs),
(100,700,l),
(100,0,l)
);
},
{
closed = 1;
nodes = (
(173,319,l),
(330,319,ls),
(414,319,o),
(473,269,o),
(473,196,cs),
(473,123,o),
(414,73,o),
(330,73,cs),
(173,73,l)
);
},
{
closed = 1;
nodes = (
(173,627,l),
(290,627,ls),
(376,627,o),
(433,580,o),
(433,510,cs),
(433,440,o),
(375,392,o),
(290,392,cs),
(173,392,l)
);
}
);
width = 599;
},
{
anchors = (
{
name = bottom;
pos = (342,0);
},
{
name = center;
pos = (342,350);
},
{
name = top;
pos = (342,700);
}
);
layerId = m005;
shapes = (
{
closed = 1;
nodes = (
(340,0,ls),
(502,0,o),
(611,80,o),
(611,200,cs),
(611,303,o),
(531,369,o),
(406,369,c),
(410,354,l),
(507,354,o),
(571,414,o),
(571,506,cs),
(571,624,o),
(464,700,o),
(300,700,cs),
(100,700,l),
(100,0,l)
);
},
{
closed = 1;
nodes = (
(233,299,l),
(340,299,ls),
(423,299,o),
(473,264,o),
(473,206,cs),
(473,148,o),
(423,113,o),
(340,113,cs),
(233,113,l)
);
},
{
closed = 1;
nodes = (
(233,587,l),
(300,587,ls),
(385,587,o),
(433,555,o),
(433,499,cs),
(433,443,o),
(385,411,o),
(300,411,cs),
(233,411,l)
);
}
);
width = 657;
},
{
anchors = (
{
name = bottom;
pos = (296,0);
},
{
name = center;
pos = (296,350);
},
{
name = top;
pos = (296,700);
}
);
layerId = m007;
shapes = (
{
closed = 1;
nodes = (
(310,0,ls),
(441,0,o),
(531,77,o),
(531,189,cs),
(531,292,o),
(455,361,o),
(341,361,c),
(346,357,l),
(431,357,o),
(491,423,o),
(491,515,cs),
(491,626,o),
(402,700,o),
(270,700,cs),
(100,700,l),
(100,0,l)
);
},
{
closed = 1;
nodes = (
(153,329,l),
(310,329,ls),
(408,329,o),
(473,274,o),
(473,191,cs),
(473,108,o),
(408,53,o),
(310,53,cs),
(153,53,l)
);
},
{
closed = 1;
nodes = (
(153,647,l),
(270,647,ls),
(368,647,o),
(433,595,o),
(433,515,cs),
(433,435,o),
(368,382,o),
(270,382,cs),
(153,382,l)
);
}
);
width = 579;
},
{
anchors = (
{
name = bottom;
pos = (198,0);
},
{
name = center;
pos = (266,350);
},
{
name = top;
pos = (334,700);
}
);
layerId = m004;
shapes = (
{
closed = 1;
nodes = (
(223,0,ls),
(376,0,o),
(476,79,o),
(476,200,cs),
(476,294,o),
(416,361,o),
(333,361,c),
(331,358,l),
(428,358,o),
(498,428,o),
(498,525,cs),
(498,630,o),
(416,700,o),
(291,700,cs),
(125,700,l),
(-11,0,l)
);
},
{
closed = 1;
nodes = (
(124,319,l),
(271,319,ls),
(346,319,o),
(400,269,o),
(400,198,cs),
(400,120,o),
(334,73,o),
(223,73,cs),
(76,73,l)
);
},
{
closed = 1;
nodes = (
(184,627,l),
(291,627,ls),
(369,627,o),
(420,584,o),
(420,518,cs),
(420,441,o),
(352,392,o),
(245,392,cs),
(138,392,l)
);
}
);
width = 544;
},
{
anchors = (
{
name = bottom;
pos = (230,0);
},
{
name = center;
pos = (298,350);
},
{
name = top;
pos = (366,700);
}
);
layerId = m008;
shapes = (
{
closed = 1;
nodes = (
(251,0,ls),
(423,0,o),
(535,81,o),
(535,204,cs),
(535,301,o),
(466,364,o),
(361,364,c),
(368,353,l),
(480,353,o),
(557,421,o),
(557,521,cs),
(557,632,o),
(461,700,o),
(303,700,cs),
(125,700,l),
(-11,0,l)
);
},
{
closed = 1;
nodes = (
(180,299,l),
(287,299,ls),
(358,299,o),
(401,266,o),
(401,212,cs),
(401,150,o),
(345,113,o),
(251,113,cs),
(144,113,l)
);
},
{
closed = 1;
nodes = (
(236,587,l),
(303,587,ls),
(375,587,o),
(418,556,o),
(418,503,cs),
(418,444,o),
(365,411,o),
(269,411,cs),
(202,411,l)
);
}
);
width = 601;
},
{
anchors = (
{
name = bottom;
pos = (185,0);
},
{
name = center;
pos = (253,350);
},
{
name = top;
pos = (321,700);
}
);
layerId = m006;
shapes = (
{
closed = 1;
nodes = (
(209,0,ls),
(355,0,o),
(455,82,o),
(455,201,cs),
(455,296,o),
(392,361,o),
(302,361,c),
(303,357,l),
(406,357,o),
(480,429,o),
(480,530,cs),
(480,633,o),
(403,700,o),
(285,700,cs),
(125,700,l),
(-11,0,l)
);
},
{
closed = 1;
nodes = (
(106,329,l),
(263,329,ls),
(343,329,o),
(398,276,o),
(398,201,cs),
(398,113,o),
(322,53,o),
(209,53,cs),
(52,53,l)
);
},
{
closed = 1;
nodes = (
(168,647,l),
(285,647,ls),
(366,647,o),
(421,596,o),
(421,523,cs),
(421,438,o),
(347,382,o),
(233,382,cs),
(116,382,l)
);
}
);
width = 521;
}
);
metricLeft = H;
unicode = 66;
},
{
glyphname = C;
kernLeft = O;
kernRight = O;
layers = (
{
anchors = (
{
name = bottom;
pos = (366,0);
},
{
name = top;
pos = (366,700);
}
);
layerId = m01;
shapes = (
{
closed = 1;
nodes = (
(533,-16,o),
(652,97,o),
(669,267,c),
(590,277,l),
(578,145,o),
(490,57,o),
(370,57,cs),
(229,57,o),
(130,178,o),
(130,350,cs),
(130,522,o),
(229,642,o),
(369,642,cs),
(488,642,o),
(574,555,o),
(589,418,c),
(669,428,l),
(653,601,o),
(534,716,o),
(371,716,cs),
(184,716,o),
(52,564,o),
(52,350,cs),
(52,136,o),
(184,-16,o),
(371,-16,cs)
);
}
);
width = 731;
},
{
anchors = (
{
name = bottom;
pos = (389,0);
},
{
name = top;
pos = (389,700);
}
);
layerId = m005;
shapes = (
{
closed = 1;
nodes = (
(578,-16,o),
(705,99,o),
(719,273,c),
(581,283,l),
(563,164,o),
(499,97,o),
(401,97,cs),
(278,97,o),
(188,203,o),
(188,348,cs),
(188,493,o),
(279,602,o),
(402,602,cs),
(500,602,o),
(565,533,o),
(581,412,c),
(719,422,l),
(705,599,o),
(579,716,o),
(401,716,cs),
(197,716,o),
(50,563,o),
(50,350,cs),
(50,137,o),
(198,-16,o),
(402,-16,cs)
);
}
);
width = 779;
},
{
anchors = (
{
name = bottom;
pos = (357,0);
},
{
name = top;
pos = (357,700);
}
);
layerId = m007;
shapes = (
{
closed = 1;
nodes = (
(518,-16,o),
(630,92,o),
(649,258,c),
(590,266,l),
(573,125,o),
(486,37,o),
(365,37,cs),
(218,37,o),
(111,169,o),
(111,350,cs),
(111,531,o),
(217,662,o),
(365,662,cs),
(485,662,o),
(568,575,o),
(589,428,c),
(649,437,l),
(630,607,o),
(519,716,o),
(365,716,cs),
(183,716,o),
(53,563,o),
(53,350,cs),
(53,137,o),
(183,-16,o),
(365,-16,cs)
);
}
);
width = 713;
},
{
anchors = (
{
name = bottom;
pos = (323,0);
},
{
name = top;
pos = (459,700);
}
);
layerId = m004;
shapes = (
{
closed = 1;
nodes = (
(503,-16,o),
(633,93,o),
(684,267,c),
(607,277,l),
(570,143,o),
(470,57,o),
(352,57,cs),
(227,57,o),
(151,152,o),
(151,309,cs),
(151,500,o),
(263,642,o),
(414,642,cs),
(528,642,o),
(603,561,o),
(623,417,c),
(705,427,l),
(688,605,o),
(579,716,o),
(421,716,cs),
(222,716,o),
(73,540,o),
(73,306,cs),
(73,109,o),
(179,-16,o),
(347,-16,cs)
);
}
);
width = 743;
},
{
anchors = (
{
name = bottom;
pos = (347,0);
},
{
name = top;
pos = (483,700);
}
);
layerId = m008;
shapes = (
{
closed = 1;
nodes = (
(554,-16,o),
(694,98,o),
(737,273,c),
(601,284,l),
(568,170,o),
(483,97,o),
(383,97,cs),
(275,97,o),
(209,181,o),
(209,318,cs),
(209,482,o),
(303,602,o),
(431,602,cs),
(525,602,o),
(587,537,o),
(612,412,c),
(753,422,l),
(736,600,o),
(613,716,o),
(441,716,cs),
(231,716,o),
(71,541,o),
(71,313,cs),
(71,114,o),
(194,-16,o),
(380,-16,cs)
);
}
);
width = 793;
},
{
anchors = (
{
name = bottom;
pos = (309,0);
},
{
name = top;
pos = (445,700);
}
);
layerId = m006;
shapes = (
{
closed = 1;
nodes = (
(495,-16,o),
(619,94,o),
(652,259,c),
(595,266,l),
(556,125,o),
(457,37,o),
(338,37,cs),
(210,37,o),
(132,140,o),
(132,309,cs),
(132,513,o),
(247,662,o),
(405,662,cs),
(525,662,o),
(603,576,o),
(618,428,c),
(681,436,l),
(661,610,o),
(557,716,o),
(408,716,cs),
(216,716,o),
(74,542,o),
(74,307,cs),
(74,108,o),
(177,-16,o),
(341,-16,cs)
);
}
);
width = 714;
}
);
metricLeft = O;
metricRight = "=O*1.2";
unicode = 67;
},
{
glyphname = D;
kernLeft = H;
kernRight = O;
layers = (
{
anchors = (
{
name = bottom;
pos = (354,0);
},
{
name = center;
pos = (354,350);
},
{
name = top;
pos = (354,700);
}
);
layerId = m01;
shapes = (
{
closed = 1;
nodes = (
(310,0,ls),
(506,0,o),
(638,141,o),
(638,350,cs),
(638,559,o),
(506,700,o),
(310,700,cs),
(100,700,l),
(100,0,l)
);
},
{
closed = 1;
nodes = (
(178,627,l),
(310,627,ls),
(459,627,o),
(560,515,o),
(560,350,cs),
(560,185,o),
(459,73,o),
(310,73,cs),
(178,73,l)
);
}
);
width = 690;
},
{
anchors = (
{
name = bottom;
pos = (387,0);
},
{
name = center;
pos = (387,350);
},
{
name = top;
pos = (387,700);
}
);
layerId = m005;
shapes = (
{
closed = 1;
nodes = (
(350,0,ls),
(554,0,o),
(698,144,o),
(698,350,cs),
(698,556,o),
(554,700,o),
(350,700,cs),
(100,700,l),
(100,0,l)
);
},
{
closed = 1;
nodes = (
(238,587,l),
(350,587,ls),
(474,587,o),
(560,490,o),
(560,350,cs),
(560,210,o),
(474,113,o),
(350,113,cs),
(238,113,l)
);
}
);
width = 748;
},
{
anchors = (
{
name = bottom;
pos = (343,0);
},
{
name = center;
pos = (343,350);
},
{
name = top;
pos = (343,700);
}
);
layerId = m007;
shapes = (
{
closed = 1;
nodes = (
(290,0,ls),
(487,0,o),
(618,140,o),
(618,350,cs),
(618,560,o),
(487,700,o),
(290,700,cs),
(100,700,l),
(100,0,l)
);
},
{
closed = 1;
nodes = (
(158,647,l),
(290,647,ls),
(452,647,o),
(560,529,o),
(560,350,cs),
(560,172,o),
(452,53,o),
(290,53,cs),
(158,53,l)
);
}
);
width = 671;
},
{
anchors = (
{
name = bottom;
pos = (246,0);
},
{
name = center;
pos = (314,350);
},
{
name = top;
pos = (382,700);
}
);
layerId = m004;
shapes = (
{
closed = 1;
nodes = (
(213,0,ls),
(439,0,o),
(602,160,o),
(602,381,cs),
(602,568,o),
(486,700,o),
(321,700,cs),
(125,700,l),
(-11,0,l)
);
},
{
closed = 1;
nodes = (
(189,627,l),
(321,627,ls),
(442,627,o),
(526,527,o),
(526,384,cs),
(526,204,o),
(394,73,o),
(213,73,cs),
(81,73,l)
);
}
);
width = 637;
},
{
anchors = (
{
name = bottom;
pos = (278,0);
},
{
name = center;
pos = (346,350);
},
{
name = top;
pos = (414,700);
}
);
layerId = m008;
shapes = (
{
closed = 1;
nodes = (
(259,0,ls),
(492,0,o),
(658,158,o),
(658,378,cs),
(658,568,o),
(533,700,o),
(353,700,cs),
(125,700,l),
(-11,0,l)
);
},
{
closed = 1;
nodes = (
(241,587,l),
(353,587,ls),
(457,587,o),
(527,504,o),
(527,380,cs),
(527,223,o),
(416,113,o),
(259,113,cs),
(149,113,l)
);
}
);
width = 691;
},
{
anchors = (
{
name = bottom;
pos = (229,0);
},
{
name = center;
pos = (297,350);
},
{
name = top;
pos = (365,700);
}
);
layerId = m006;
shapes = (
{
closed = 1;
nodes = (
(189,0,ls),
(411,0,o),
(572,163,o),
(572,387,cs),
(572,572,o),
(463,700,o),
(305,700,cs),
(125,700,l),
(-11,0,l)
);
},
{
closed = 1;
nodes = (
(173,647,l),
(305,647,ls),
(430,647,o),
(515,542,o),
(515,389,cs),
(515,194,o),
(378,53,o),
(189,53,cs),
(57,53,l)
);
}
);
width = 607;
}
);
metricLeft = H;
metricRight = "=O";
unicode = 68;
},
{
glyphname = Dcroat;
kernLeft = H;
kernRight = O;
layers = (
{
layerId = m01;
shapes = (
{
closed = 1;
nodes = (
(305,323,l),
(305,377,l),
(15,377,l),
(15,323,l)
);
},
{
ref = D;
}
);
width = 690;
},
{
layerId = m005;
shapes = (
{
closed = 1;
nodes = (
(338,294,l),
(338,407,l),
(10,407,l),
(10,294,l)
);
},
{
ref = D;
}
);
width = 748;
},
{
layerId = m007;
shapes = (
{
closed = 1;
nodes = (
(300,330,l),
(300,370,l),
(20,370,l),
(20,330,l)
);
},
{
ref = D;
}
);
width = 671;
},
{
layerId = m004;
shapes = (
{
closed = 1;
nodes = (
(320,323,l),
(330,377,l),
(40,377,l),
(30,323,l)
);
},
{
ref = D;
}
);
width = 637;
},
{
layerId = m008;
shapes = (
{
closed = 1;
nodes = (
(347,294,l),
(369,407,l),
(41,407,l),
(19,294,l)
);
},
{
ref = D;
}
);
width = 691;
},
{
layerId = m006;
shapes = (
{
closed = 1;
nodes = (
(316,330,l),
(324,370,l),
(44,370,l),
(36,330,l)
);
},
{
ref = D;
}
);
width = 607;
}
);
metricRight = "=D";
metricWidth = "=D";
unicode = 272;
},
{
glyphname = Eth;
kernLeft = H;
kernRight = O;
layers = (
{
layerId = m01;
shapes = (
{
closed = 1;
nodes = (
(305,323,l),
(305,377,l),
(15,377,l),
(15,323,l)
);
},
{
ref = D;
}
);
width = 690;
},
{
layerId = m005;
shapes = (
{
closed = 1;
nodes = (
(338,294,l),
(338,407,l),
(10,407,l),
(10,294,l)
);
},
{
ref = D;
}
);
width = 748;
},
{
layerId = m007;
shapes = (
{
closed = 1;
nodes = (
(300,330,l),
(300,370,l),
(20,370,l),
(20,330,l)
);
},
{
ref = D;
}
);
width = 671;
},
{
layerId = m004;
shapes = (
{
closed = 1;
nodes = (
(320,323,l),
(330,377,l),
(40,377,l),
(30,323,l)
);
},
{
ref = D;
}
);
width = 637;
},
{
layerId = m008;
shapes = (
{
closed = 1;
nodes = (
(347,294,l),
(369,407,l),
(41,407,l),
(19,294,l)
);
},
{
ref = D;
}
);
width = 691;
},
{
layerId = m006;
shapes = (
{
closed = 1;
nodes = (
(316,330,l),
(324,370,l),
(44,370,l),
(36,330,l)
);
},
{
ref = D;
}
);
width = 607;
}
);
metricRight = "=D";
metricWidth = "=D";
unicode = 208;
},
{
glyphname = E;
kernLeft = H;
kernRight = E;
layers = (
{
anchors = (
{
name = bottom;
pos = (289,0);
},
{
name = ogonek;
pos = (549,0);
},
{
name = top;
pos = (289,700);
},
{
name = topleft;
pos = (35,700);
}
);
layerId = m01;
shapes = (
{
closed = 1;
nodes = (
(508,0,l),
(508,73,l),
(178,73,l),
(178,327,l),
(448,327,l),
(448,400,l),
(178,400,l),
(178,627,l),
(508,627,l),
(508,700,l),
(100,700,l),
(100,0,l)
);
}
);
width = 552;
},
{
anchors = (
{
name = bottom;
pos = (322,0);
},
{
name = ogonek;
pos = (616,0);
},
{
name = top;
pos = (322,700);
},
{
name = topleft;
pos = (52,700);
}
);
layerId = m005;
shapes = (
{
closed = 1;
nodes = (
(568,0,l),
(568,113,l),
(238,113,l),
(238,307,l),
(508,307,l),
(508,420,l),
(238,420,l),
(238,587,l),
(568,587,l),
(568,700,l),
(100,700,l),
(100,0,l)
);
}
);
width = 625;
},
{
anchors = (
{
name = bottom;
pos = (278,0);
},
{
name = ogonek;
pos = (526,0);
},
{
name = top;
pos = (278,700);
},
{
name = topleft;
pos = (26,700);
}
);
layerId = m007;
shapes = (
{
closed = 1;
nodes = (
(488,0,l),
(488,53,l),
(158,53,l),
(158,337,l),
(428,337,l),
(428,390,l),
(158,390,l),
(158,647,l),
(488,647,l),
(488,700,l),
(100,700,l),
(100,0,l)
);
}
);
width = 526;
},
{
anchors = (
{
name = bottom;
pos = (178,0);
},
{
name = ogonek;
pos = (438,0);
},
{
name = top;
pos = (314,700);
},
{
name = topleft;
pos = (60,700);
}
);
layerId = m004;
shapes = (
{
closed = 1;
nodes = (
(397,0,l),
(411,73,l),
(81,73,l),
(131,327,l),
(401,327,l),
(415,400,l),
(145,400,l),
(189,627,l),
(519,627,l),
(533,700,l),
(125,700,l),
(-11,0,l)
);
}
);
width = 464;
},
{
anchors = (
{
name = bottom;
pos = (211,0);
},
{
name = ogonek;
pos = (505,0);
},
{
name = top;
pos = (347,700);
},
{
name = topleft;
pos = (77,700);
}
);
layerId = m008;
shapes = (
{
closed = 1;
nodes = (
(457,0,l),
(479,113,l),
(149,113,l),
(187,307,l),
(457,307,l),
(479,420,l),
(209,420,l),
(241,587,l),
(571,587,l),
(593,700,l),
(125,700,l),
(-11,0,l)
);
}
);
width = 527;
},
{
anchors = (
{
name = bottom;
pos = (167,0);
},
{
name = ogonek;
pos = (417,0);
},
{
name = top;
pos = (303,700);
},
{
name = topleft;
pos = (51,700);
}
);
layerId = m006;
shapes = (
{
closed = 1;
nodes = (
(377,0,l),
(387,53,l),
(57,53,l),
(112,337,l),
(382,337,l),
(393,390,l),
(123,390,l),
(173,647,l),
(503,647,l),
(513,700,l),
(125,700,l),
(-11,0,l)
);
}
);
width = 442;
}
);
metricLeft = H;
unicode = 69;
},
{
glyphname = F;
kernLeft = H;
kernRight = F;
layers = (
{
anchors = (
{
name = bottom;
pos = (282,0);
},
{
name = top;
pos = (282,700);
}
);
layerId = m01;
shapes = (
{
closed = 1;
nodes = (
(178,0,l),
(178,327,l),
(458,327,l),
(458,400,l),
(178,400,l),
(178,627,l),
(508,627,l),
(508,700,l),
(100,700,l),
(100,0,l)
);
}
);
width = 536;
},
{
anchors = (
{
name = bottom;
pos = (316,0);
},
{
name = top;
pos = (316,700);
}
);
layerId = m005;
shapes = (
{
closed = 1;
nodes = (
(238,0,l),
(238,307,l),
(518,307,l),
(518,420,l),
(238,420,l),
(238,587,l),
(568,587,l),
(568,700,l),
(100,700,l),
(100,0,l)
);
}
);
width = 604;
},
{
anchors = (
{
name = bottom;
pos = (269,0);
},
{
name = top;
pos = (269,700);
}
);
layerId = m007;
shapes = (
{
closed = 1;
nodes = (
(158,0,l),
(158,337,l),
(438,337,l),
(438,390,l),
(158,390,l),
(158,647,l),
(488,647,l),
(488,700,l),
(100,700,l),
(100,0,l)
);
}
);
width = 512;
},
{
anchors = (
{
name = bottom;
pos = (171,0);
},
{
name = top;
pos = (307,700);
}
);
layerId = m004;
shapes = (
{
closed = 1;
nodes = (
(67,0,l),
(131,327,l),
(411,327,l),
(425,400,l),
(145,400,l),
(189,627,l),
(519,627,l),
(533,700,l),
(125,700,l),
(-11,0,l)
);
}
);
width = 464;
},
{
anchors = (
{
name = bottom;
pos = (205,0);
},
{
name = top;
pos = (341,700);
}
);
layerId = m008;
shapes = (
{
closed = 1;
nodes = (
(123,0,l),
(184,307,l),
(467,307,l),
(489,420,l),
(207,420,l),
(240,587,l),
(571,587,l),
(593,700,l),
(125,700,l),
(-11,0,l)
);
}
);
width = 527;
},
{
anchors = (
{
name = bottom;
pos = (158,0);
},
{
name = top;
pos = (294,700);
}
);
layerId = m006;
shapes = (
{
closed = 1;
nodes = (
(47,0,l),
(112,337,l),
(392,337,l),
(403,390,l),
(123,390,l),
(173,647,l),
(503,647,l),
(513,700,l),
(125,700,l),
(-11,0,l)
);
}
);
width = 442;
}
);
metricLeft = H;
unicode = 70;
},
{
glyphname = G;
kernLeft = O;
kernRight = G;
layers = (
{
anchors = (
{
name = bottom;
pos = (393,0);
},
{
name = top;
pos = (393,700);
}
);
layerId = m01;
shapes = (
{
closed = 1;
nodes = (
(545,-16,o),
(657,113,o),
(657,311,c),
(649,262,l),
(634,0,l),
(707,0,l),
(707,354,l),
(379,354,l),
(379,281,l),
(622,281,l),
(602,148,o),
(501,57,o),
(374,57,cs),
(229,57,o),
(130,176,o),
(130,350,cs),
(130,524,o),
(229,642,o),
(374,642,cs),
(501,642,o),
(596,551,o),
(604,421,c),
(682,431,l),
(670,597,o),
(542,715,o),
(374,715,cs),
(185,715,o),
(52,564,o),
(52,351,cs),
(52,137,o),
(187,-16,o),
(374,-16,cs)
);
}
);
width = 802;
},
{
anchors = (
{
name = bottom;
pos = (418,0);
},
{
name = top;
pos = (418,700);
}
);
layerId = m005;
shapes = (
{
closed = 1;
nodes = (
(576,-16,o),
(676,96,o),
(685,301,c),
(665,291,l),
(631,0,l),
(765,0,l),
(765,354,l),
(377,354,l),
(377,241,l),
(615,241,l),
(603,160,o),
(510,97,o),
(403,97,cs),
(270,97,o),
(188,194,o),
(188,350,cs),
(188,506,o),
(269,602,o),
(402,602,cs),
(516,602,o),
(596,531,o),
(602,425,c),
(741,435,l),
(736,593,o),
(589,715,o),
(403,715,cs),
(197,715,o),
(50,564,o),
(50,351,cs),
(50,138,o),
(198,-16,o),
(402,-16,cs)
);
}
);
width = 860;
},
{
anchors = (
{
name = bottom;
pos = (385,0);
},
{
name = top;
pos = (385,700);
}
);
layerId = m007;
shapes = (
{
closed = 1;
nodes = (
(529,-16,o),
(642,107,o),
(658,301,c),
(650,309,l),
(636,0,l),
(688,0,l),
(688,344,l),
(380,344,l),
(380,291,l),
(624,291,l),
(608,142,o),
(501,37,o),
(365,37,cs),
(215,37,o),
(111,165,o),
(111,350,cs),
(111,535,o),
(214,662,o),
(365,662,cs),
(494,662,o),
(590,570,o),
(604,432,c),
(662,440,l),
(645,602,o),
(524,715,o),
(365,715,cs),
(182,715,o),
(53,564,o),
(53,350,cs),
(53,136,o),
(182,-16,o),
(365,-16,cs)
);
}
);
width = 783;
},
{
anchors = (
{
name = bottom;
pos = (351,0);
},
{
name = top;
pos = (487,700);
}
);
layerId = m004;
shapes = (
{
closed = 1;
nodes = (
(520,-16,o),
(641,106,o),
(680,311,c),
(663,262,l),
(597,0,l),
(670,0,l),
(739,354,l),
(411,354,l),
(397,281,l),
(640,281,l),
(590,140,o),
(491,57,o),
(372,57,cs),
(239,57,o),
(151,160,o),
(151,317,cs),
(151,501,o),
(271,642,o),
(429,642,cs),
(552,642,o),
(637,557,o),
(649,421,c),
(729,431,l),
(714,603,o),
(597,715,o),
(432,715,cs),
(228,715,o),
(73,541,o),
(73,311,cs),
(73,116,o),
(187,-16,o),
(357,-16,cs)
);
}
);
width = 755;
},
{
anchors = (
{
name = bottom;
pos = (378,0);
},
{
name = top;
pos = (514,700);
}
);
layerId = m008;
shapes = (
{
closed = 1;
nodes = (
(523,-16,o),
(643,96,o),
(686,287,c),
(660,245,l),
(589,0,l),
(723,0,l),
(800,354,l),
(412,354,l),
(390,241,l),
(628,241,l),
(566,147,o),
(484,97,o),
(396,97,cs),
(281,97,o),
(208,181,o),
(208,315,cs),
(208,478,o),
(315,602,o),
(457,602,cs),
(565,602,o),
(641,530,o),
(646,424,c),
(786,434,l),
(778,601,o),
(649,715,o),
(466,715,cs),
(241,715,o),
(70,539,o),
(70,306,cs),
(70,115,o),
(189,-16,o),
(363,-16,cs)
);
}
);
width = 816;
},
{
anchors = (
{
name = bottom;
pos = (344,0);
},
{
name = top;
pos = (480,700);
}
);
layerId = m006;
shapes = (
{
closed = 1;
nodes = (
(505,-16,o),
(630,100,o),
(686,298,c),
(660,249,l),
(601,0,l),
(653,0,l),
(718,334,l),
(410,334,l),
(400,281,l),
(645,281,l),
(600,130,o),
(492,37,o),
(362,37,cs),
(221,37,o),
(132,144,o),
(132,313,cs),
(132,513,o),
(256,662,o),
(421,662,cs),
(547,662,o),
(630,575,o),
(640,432,c),
(700,440,l),
(692,606,o),
(583,715,o),
(425,715,cs),
(225,715,o),
(74,540,o),
(74,308,cs),
(74,112,o),
(183,-16,o),
(348,-16,cs)
);
}
);
width = 738;
}
);
metricLeft = O;
metricRight = "=H*.95";
unicode = 71;
},
{
glyphname = H;
kernLeft = H;
kernRight = H;
layers = (
{
anchors = (
{
name = bottom;
pos = (348,0);
},
{
name = center;
pos = (348,350);
},
{
name = top;
pos = (348,700);
},
{
name = topleft;
pos = (35,700);
}
);
layerId = m01;
shapes = (
{
closed = 1;
nodes = (
(178,0,l),
(178,327,l),
(518,327,l),
(518,0,l),
(596,0,l),
(596,700,l),
(518,700,l),
(518,400,l),
(178,400,l),
(178,700,l),
(100,700,l),
(100,0,l)
);
}
);
width = 696;
},
{
anchors = (
{
name = bottom;
pos = (378,0);
},
{
name = center;
pos = (378,350);
},
{
name = top;
pos = (378,700);
},
{
name = topleft;
pos = (52,700);
}
);
layerId = m005;
shapes = (
{
closed = 1;
nodes = (
(238,0,l),
(238,307,l),
(518,307,l),
(518,0,l),
(656,0,l),
(656,700,l),
(518,700,l),
(518,420,l),
(238,420,l),
(238,700,l),
(100,700,l),
(100,0,l)
);
}
);
width = 756;
},
{
anchors = (
{
name = bottom;
pos = (338,0);
},
{
name = center;
pos = (338,350);
},
{
name = top;
pos = (338,700);
},
{
name = topleft;
pos = (26,700);
}
);
layerId = m007;
shapes = (
{
closed = 1;
nodes = (
(158,0,l),
(158,337,l),
(518,337,l),
(518,0,l),
(576,0,l),
(576,700,l),
(518,700,l),
(518,390,l),
(158,390,l),
(158,700,l),
(100,700,l),
(100,0,l)
);
}
);
width = 676;
},
{
anchors = (
{
name = bottom;
pos = (237,0);
},
{
name = center;
pos = (305,350);
},
{
name = top;
pos = (373,700);
},
{
name = topleft;
pos = (60,700);
}
);
layerId = m004;
shapes = (
{
closed = 1;
nodes = (
(67,0,l),
(131,327,l),
(471,327,l),
(407,0,l),
(485,0,l),
(621,700,l),
(543,700,l),
(485,400,l),
(145,400,l),
(203,700,l),
(125,700,l),
(-11,0,l)
);
}
);
width = 572;
},
{
anchors = (
{
name = bottom;
pos = (267,0);
},
{
name = center;
pos = (335,350);
},
{
name = top;
pos = (403,700);
},
{
name = topleft;
pos = (77,700);
}
);
layerId = m008;
shapes = (
{
closed = 1;
nodes = (
(127,0,l),
(187,307,l),
(467,307,l),
(407,0,l),
(545,0,l),
(681,700,l),
(543,700,l),
(489,420,l),
(209,420,l),
(263,700,l),
(125,700,l),
(-11,0,l)
);
}
);
width = 632;
},
{
anchors = (
{
name = bottom;
pos = (227,0);
},
{
name = center;
pos = (295,350);
},
{
name = top;
pos = (363,700);
},
{
name = topleft;
pos = (51,700);
}
);
layerId = m006;
shapes = (
{
closed = 1;
nodes = (
(47,0,l),
(112,337,l),
(472,337,l),
(407,0,l),
(465,0,l),
(601,700,l),
(543,700,l),
(483,390,l),
(123,390,l),
(183,700,l),
(125,700,l),
(-11,0,l)
);
}
);
width = 552;
}
);
unicode = 72;
},
{
glyphname = Hbar;
layers = (
{
layerId = m01;
shapes = (
{
closed = 1;
nodes = (
(671,530,l),
(671,590,l),
(35,590,l),
(35,530,l)
);
},
{
pos = (20,0);
ref = H;
}
);
width = 706;
},
{
layerId = m005;
shapes = (
{
closed = 1;
nodes = (
(701,520,l),
(701,600,l),
(35,600,l),
(35,520,l)
);
},
{
pos = (22,0);
ref = H;
}
);
width = 736;
},
{
layerId = m007;
shapes = (
{
closed = 1;
nodes = (
(651,540,l),
(651,580,l),
(35,580,l),
(35,540,l)
);
},
{
pos = (11,0);
ref = H;
}
);
width = 686;
},
{
layerId = m004;
shapes = (
{
closed = 1;
nodes = (
(663,530,l),
(675,590,l),
(39,590,l),
(27,530,l)
);
},
{
pos = (-43,0);
ref = H;
}
);
width = 582;
},
{
layerId = m008;
shapes = (
{
closed = 1;
nodes = (
(681,520,l),
(697,600,l),
(41,600,l),
(25,520,l)
);
},
{
pos = (-46,0);
ref = H;
}
);
width = 602;
},
{
layerId = m006;
shapes = (
{
closed = 1;
nodes = (
(645,540,l),
(653,580,l),
(37,580,l),
(29,540,l)
);
},
{
pos = (-53,0);
ref = H;
}
);
width = 562;
}
);
metricLeft = "=H-65";
metricRight = "=H-65";
unicode = 294;
},
{
glyphname = I;
kernLeft = H;
kernRight = H;
layers = (
{
anchors = (
{
name = bottom;
pos = (139,0);
},
{
name = ogonek;
pos = (219,0);
},
{
name = top;
pos = (139,700);
},
{
name = topleft;
pos = (35,700);
}
);
layerId = m01;
shapes = (
{
closed = 1;
nodes = (
(178,0,l),
(178,700,l),
(100,700,l),
(100,0,l)
);
}
);
width = 278;
},
{
anchors = (
{
name = bottom;
pos = (169,0);
},
{
name = ogonek;
pos = (286,0);
},
{
name = top;
pos = (169,700);
},
{
name = topleft;
pos = (52,700);
}
);
layerId = m005;
shapes = (
{
closed = 1;
nodes = (
(238,0,l),
(238,700,l),
(100,700,l),
(100,0,l)
);
}
);
width = 338;
},
{
anchors = (
{
name = bottom;
pos = (129,0);
},
{
name = ogonek;
pos = (196,0);
},
{
name = top;
pos = (129,700);
},
{
name = topleft;
pos = (26,700);
}
);
layerId = m007;
shapes = (
{
closed = 1;
nodes = (
(158,0,l),
(158,700,l),
(100,700,l),
(100,0,l)
);
}
);
width = 258;
},
{
anchors = (
{
name = bottom;
pos = (28,0);
},
{
name = ogonek;
pos = (108,0);
},
{
name = top;
pos = (164,700);
},
{
name = topleft;
pos = (60,700);
}
);
layerId = m004;
shapes = (
{
closed = 1;
nodes = (
(67,0,l),
(203,700,l),
(125,700,l),
(-11,0,l)
);
}
);
width = 154;
},
{
anchors = (
{
name = bottom;
pos = (58,0);
},
{
name = ogonek;
pos = (175,0);
},
{
name = top;
pos = (194,700);
},
{
name = topleft;
pos = (77,700);
}
);
layerId = m008;
shapes = (
{
closed = 1;
nodes = (
(127,0,l),
(263,700,l),
(125,700,l),
(-11,0,l)
);
}
);
width = 214;
},
{
anchors = (
{
name = bottom;
pos = (18,0);
},
{
name = ogonek;
pos = (87,0);
},
{
name = top;
pos = (154,700);
},
{
name = topleft;
pos = (51,700);
}
);
layerId = m006;
shapes = (
{
closed = 1;
nodes = (
(47,0,l),
(183,700,l),
(125,700,l),
(-11,0,l)
);
}
);
width = 134;
}
);
metricLeft = H;
metricRight = H;
unicode = 73;
},
{
glyphname = J;
kernLeft = J;
kernRight = U;
layers = (
{
anchors = (
{
name = bottom;
pos = (272,0);
},
{
name = top;
pos = (430,700);
}
);
layerId = m01;
shapes = (
{
closed = 1;
nodes = (
(380,-16,o),
(469,78,o),
(469,212,cs),
(469,700,l),
(391,700,l),
(391,212,ls),
(391,120,o),
(335,57,o),
(252,57,cs),
(169,57,o),
(112,120,o),
(112,212,cs),
(112,270,l),
(34,270,l),
(34,212,ls),
(34,78,o),
(124,-16,o),
(252,-16,cs)
);
}
);
width = 557;
},
{
anchors = (
{
name = bottom;
pos = (296,0);
},
{
name = top;
pos = (460,700);
}
);
layerId = m005;
shapes = (
{
closed = 1;
nodes = (
(425,-16,o),
(527,86,o),
(527,232,cs),
(527,700,l),
(389,700,l),
(389,232,ls),
(389,151,o),
(345,97,o),
(280,97,cs),
(215,97,o),
(170,152,o),
(170,232,cs),
(170,270,l),
(32,270,l),
(32,232,ls),
(32,87,o),
(135,-16,o),
(280,-16,cs)
);
}
);
width = 613;
},
{
anchors = (
{
name = bottom;
pos = (265,0);
},
{
name = top;
pos = (421,700);
}
);
layerId = m007;
shapes = (
{
closed = 1;
nodes = (
(366,-16,o),
(450,72,o),
(450,202,cs),
(450,700,l),
(392,700,l),
(392,202,ls),
(392,103,o),
(332,37,o),
(243,37,cs),
(153,37,o),
(93,103,o),
(93,202,cs),
(93,270,l),
(35,270,l),
(35,202,ls),
(35,72,o),
(119,-16,o),
(242,-16,cs)
);
}
);
width = 539;
},
{
anchors = (
{
name = bottom;
pos = (222,0);
},
{
name = top;
pos = (516,700);
}
);
layerId = m004;
shapes = (
{
closed = 1;
nodes = (
(336,-16,o),
(432,73,o),
(459,212,cs),
(554,700,l),
(476,700,l),
(381,212,ls),
(363,119,o),
(297,57,o),
(218,57,cs),
(136,57,o),
(89,123,o),
(106,212,cs),
(117,270,l),
(39,270,l),
(28,212,ls),
(4,84,o),
(85,-16,o),
(214,-16,cs)
);
}
);
width = 505;
},
{
anchors = (
{
name = bottom;
pos = (243,0);
},
{
name = top;
pos = (536,700);
}
);
layerId = m008;
shapes = (
{
closed = 1;
nodes = (
(384,-16,o),
(486,82,o),
(517,242,cs),
(606,700,l),
(468,700,l),
(379,242,ls),
(361,149,o),
(317,97,o),
(256,97,cs),
(190,97,o),
(155,156,o),
(170,242,cs),
(175,270,l),
(37,270,l),
(32,242,ls),
(6,98,o),
(101,-16,o),
(248,-16,cs)
);
}
);
width = 557;
},
{
anchors = (
{
name = bottom;
pos = (211,0);
},
{
name = top;
pos = (498,700);
}
);
layerId = m006;
shapes = (
{
closed = 1;
nodes = (
(317,-16,o),
(405,67,o),
(431,202,cs),
(528,700,l),
(470,700,l),
(373,202,ls),
(353,101,o),
(290,37,o),
(207,37,cs),
(119,37,o),
(66,109,o),
(84,202,cs),
(97,270,l),
(39,270,l),
(26,202,ls),
(3,80,o),
(82,-16,o),
(204,-16,cs)
);
}
);
width = 479;
}
);
unicode = 74;
},
{
glyphname = K;
kernLeft = H;
kernRight = K;
layers = (
{
anchors = (
{
name = bottom;
pos = (318,0);
},
{
name = top;
pos = (318,700);
}
);
layerId = m01;
shapes = (
{
closed = 1;
nodes = (
(572,700,l),
(482,700,l),
(116,280,l),
(169,234,l)
);
},
{
closed = 1;
nodes = (
(178,0,l),
(178,700,l),
(100,700,l),
(100,0,l)
);
},
{
closed = 1;
nodes = (
(601,0,l),
(322,422,l),
(254,392,l),
(511,0,l)
);
}
);
width = 622;
},
{
anchors = (
{
name = bottom;
pos = (363,0);
},
{
name = top;
pos = (363,700);
}
);
layerId = m005;
shapes = (
{
closed = 1;
nodes = (
(653,700,l),
(495,700,l),
(111,279,l),
(203,199,l)
);
},
{
closed = 1;
nodes = (
(238,0,l),
(238,700,l),
(100,700,l),
(100,0,l)
);
},
{
closed = 1;
nodes = (
(677,0,l),
(365,451,l),
(247,399,l),
(522,0,l)
);
}
);
width = 698;
},
{
anchors = (
{
name = bottom;
pos = (300,0);
},
{
name = top;
pos = (300,700);
}
);
layerId = m007;
shapes = (
{
closed = 1;
nodes = (
(540,700,l),
(477,700,l),
(120,281,l),
(158,248,l)
);
},
{
closed = 1;
nodes = (
(158,0,l),
(158,700,l),
(100,700,l),
(100,0,l)
);
},
{
closed = 1;
nodes = (
(572,0,l),
(290,437,l),
(259,388,l),
(506,0,l)
);
}
);
width = 592;
},
{
anchors = (
{
name = bottom;
pos = (207,0);
},
{
name = top;
pos = (343,700);
}
);
layerId = m004;
shapes = (
{
closed = 1;
nodes = (
(597,700,l),
(497,700,l),
(49,280,l),
(103,234,l)
);
},
{
closed = 1;
nodes = (
(67,0,l),
(203,700,l),
(125,700,l),
(-11,0,l)
);
},
{
closed = 1;
nodes = (
(490,0,l),
(293,422,l),
(227,392,l),
(408,0,l)
);
}
);
width = 549;
},
{
anchors = (
{
name = bottom;
pos = (252,0);
},
{
name = top;
pos = (388,700);
}
);
layerId = m008;
shapes = (
{
closed = 1;
nodes = (
(678,700,l),
(505,700,l),
(77,313,l),
(131,199,l)
);
},
{
closed = 1;
nodes = (
(127,0,l),
(263,700,l),
(125,700,l),
(-11,0,l)
);
},
{
closed = 1;
nodes = (
(566,0,l),
(342,451,l),
(222,399,l),
(419,0,l)
);
}
);
width = 625;
},
{
anchors = (
{
name = bottom;
pos = (189,0);
},
{
name = top;
pos = (325,700);
}
);
layerId = m006;
shapes = (
{
closed = 1;
nodes = (
(565,700,l),
(497,700,l),
(59,281,l),
(95,248,l)
);
},
{
closed = 1;
nodes = (
(47,0,l),
(183,700,l),
(125,700,l),
(-11,0,l)
);
},
{
closed = 1;
nodes = (
(461,0,l),
(264,437,l),
(231,388,l),
(403,0,l)
);
}
);
width = 520;
}
);
metricLeft = H;
unicode = 75;
},
{
glyphname = L;
kernLeft = H;
kernRight = L;
layers = (
{
anchors = (
{
name = bottom;
pos = (269,0);
},
{
name = center;
pos = (269,350);
},
{
name = top;
pos = (138,700);
},
{
name = topright;
pos = (503,700);
}
);
layerId = m01;
shapes = (
{
closed = 1;
nodes = (
(503,0,l),
(503,73,l),
(178,73,l),
(178,700,l),
(100,700,l),
(100,0,l)
);
}
);
width = 523;
},
{
anchors = (
{
name = bottom;
pos = (306,0);
},
{
name = center;
pos = (306,350);
},
{
name = top;
pos = (181,700);
},
{
name = topright;
pos = (559,700);
}
);
layerId = m005;
shapes = (
{
closed = 1;
nodes = (
(563,0,l),
(563,113,l),
(238,113,l),
(238,700,l),
(100,700,l),
(100,0,l)
);
}
);
width = 588;
},
{
anchors = (
{
name = bottom;
pos = (256,0);
},
{
name = center;
pos = (256,350);
},
{
name = top;
pos = (128,700);
},
{
name = topright;
pos = (485,700);
}
);
layerId = m007;
shapes = (
{
closed = 1;
nodes = (
(483,0,l),
(483,53,l),
(158,53,l),
(158,700,l),
(100,700,l),
(100,0,l)
);
}
);
width = 500;
},
{
anchors = (
{
name = bottom;
pos = (158,0);
},
{
name = center;
pos = (226,350);
},
{
name = top;
pos = (163,700);
},
{
name = topright;
pos = (528,700);
}
);
layerId = m004;
shapes = (
{
closed = 1;
nodes = (
(392,0,l),
(406,73,l),
(81,73,l),
(203,700,l),
(125,700,l),
(-11,0,l)
);
}
);
width = 460;
},
{
anchors = (
{
name = bottom;
pos = (195,0);
},
{
name = center;
pos = (263,350);
},
{
name = top;
pos = (197,700);
},
{
name = topright;
pos = (584,700);
}
);
layerId = m008;
shapes = (
{
closed = 1;
nodes = (
(452,0,l),
(474,113,l),
(149,113,l),
(263,700,l),
(125,700,l),
(-11,0,l)
);
}
);
width = 524;
},
{
anchors = (
{
name = bottom;
pos = (145,0);
},
{
name = center;
pos = (213,350);
},
{
name = top;
pos = (151,700);
},
{
name = topright;
pos = (510,700);
}
);
layerId = m006;
shapes = (
{
closed = 1;
nodes = (
(372,0,l),
(382,53,l),
(57,53,l),
(183,700,l),
(125,700,l),
(-11,0,l)
);
}
);
width = 437;
}
);
metricLeft = H;
unicode = 76;
},
{
glyphname = Lslash;
kernLeft = H;
kernRight = L;
layers = (
{
layerId = m01;
shapes = (
{
closed = 1;
nodes = (
(345,390,l),
(345,450,l),
(5,310,l),
(5,250,l)
);
},
{
ref = L;
}
);
width = 523;
},
{
layerId = m005;
shapes = (
{
closed = 1;
nodes = (
(349,373,l),
(349,475,l),
(-11,327,l),
(-11,225,l)
);
},
{
ref = L;
}
);
width = 588;
},
{
layerId = m007;
shapes = (
{
closed = 1;
nodes = (
(330,402,l),
(330,440,l),
(10,298,l),
(10,260,l)
);
},
{
ref = L;
}
);
width = 500;
},
{
layerId = m004;
shapes = (
{
closed = 1;
nodes = (
(373,390,l),
(384,450,l),
(17,310,l),
(6,250,l)
);
},
{
ref = L;
}
);
width = 460;
},
{
layerId = m008;
shapes = (
{
closed = 1;
nodes = (
(378,373,l),
(398,475,l),
(10,327,l),
(-10,225,l)
);
},
{
ref = L;
}
);
width = 524;
},
{
layerId = m006;
shapes = (
{
closed = 1;
nodes = (
(360,402,l),
(367,440,l),
(20,298,l),
(13,260,l)
);
},
{
ref = L;
}
);
width = 437;
}
);
metricRight = "=L";
metricWidth = "=L";
unicode = 321;
},
{
glyphname = M;
kernLeft = H;
kernRight = H;
layers = (
{
anchors = (
{
name = bottom;
pos = (439,0);
},
{
name = top;
pos = (439,700);
}
);
layerId = m01;
shapes = (
{
closed = 1;
nodes = (
(178,0,l),
(178,645,l),
(168,645,l),
(401,0,l),
(477,0,l),
(710,645,l),
(700,645,l),
(700,0,l),
(778,0,l),
(778,700,l),
(656,700,l),
(440,101,l),
(438,101,l),
(221,700,l),
(100,700,l),
(100,0,l)
);
}
);
width = 878;
},
{
anchors = (
{
name = bottom;
pos = (469,0);
},
{
name = top;
pos = (469,700);
}
);
layerId = m005;
shapes = (
{
closed = 1;
nodes = (
(238,0,l),
(238,572,l),
(197,572,l),
(418,0,l),
(520,0,l),
(741,572,l),
(700,572,l),
(700,0,l),
(838,0,l),
(838,700,l),
(658,700,l),
(442,131,l),
(496,131,l),
(279,700,l),
(100,700,l),
(100,0,l)
);
}
);
width = 938;
},
{
anchors = (
{
name = bottom;
pos = (419,0);
},
{
name = top;
pos = (419,700);
}
);
layerId = m007;
shapes = (
{
closed = 1;
nodes = (
(158,0,l),
(158,632,l),
(155,632,l),
(396,0,l),
(442,0,l),
(683,632,l),
(680,632,l),
(680,0,l),
(738,0,l),
(738,700,l),
(651,700,l),
(415,81,l),
(423,81,l),
(186,700,l),
(100,700,l),
(100,0,l)
);
}
);
width = 838;
},
{
anchors = (
{
name = bottom;
pos = (328,0);
},
{
name = top;
pos = (464,700);
}
);
layerId = m004;
shapes = (
{
closed = 1;
nodes = (
(67,0,l),
(195,657,l),
(179,665,l),
(290,0,l),
(370,0,l),
(740,667,l),
(718,665,l),
(589,0,l),
(667,0,l),
(803,700,l),
(681,700,l),
(329,65,l),
(353,65,l),
(246,700,l),
(125,700,l),
(-11,0,l)
);
}
);
width = 754;
},
{
anchors = (
{
name = bottom;
pos = (358,0);
},
{
name = top;
pos = (494,700);
}
);
layerId = m008;
shapes = (
{
closed = 1;
nodes = (
(122,0,l),
(233,572,l),
(192,572,l),
(302,0,l),
(409,0,l),
(741,572,l),
(695,572,l),
(584,0,l),
(727,0,l),
(863,700,l),
(678,700,l),
(351,131,l),
(405,131,l),
(299,700,l),
(125,700,l),
(-11,0,l)
);
}
);
width = 814;
},
{
anchors = (
{
name = bottom;
pos = (308,0);
},
{
name = top;
pos = (444,700);
}
);
layerId = m006;
shapes = (
{
closed = 1;
nodes = (
(47,0,l),
(170,632,l),
(167,632,l),
(285,0,l),
(331,0,l),
(695,632,l),
(692,632,l),
(569,0,l),
(627,0,l),
(763,700,l),
(676,700,l),
(320,81,l),
(328,81,l),
(211,700,l),
(125,700,l),
(-11,0,l)
);
}
);
width = 714;
}
);
metricLeft = H;
metricRight = H;
unicode = 77;
},
{
glyphname = N;
kernLeft = H;
kernRight = H;
layers = (
{
anchors = (
{
name = bottom;
pos = (373,0);
},
{
name = top;
pos = (373,700);
}
);
layerId = m01;
shapes = (
{
closed = 1;
nodes = (
(179,0,l),
(179,648,l),
(153,641,l),
(547,0,l),
(646,0,l),
(646,700,l),
(567,700,l),
(567,52,l),
(592,59,l),
(199,700,l),
(100,700,l),
(100,0,l)
);
}
);
width = 746;
},
{
anchors = (
{
name = bottom;
pos = (398,0);
},
{
name = top;
pos = (398,700);
}
);
layerId = m005;
shapes = (
{
closed = 1;
nodes = (
(239,0,l),
(239,534,l),
(215,527,l),
(547,0,l),
(696,0,l),
(696,700,l),
(557,700,l),
(557,166,l),
(581,173,l),
(249,700,l),
(100,700,l),
(100,0,l)
);
}
);
width = 796;
},
{
anchors = (
{
name = bottom;
pos = (360,0);
},
{
name = top;
pos = (360,700);
}
);
layerId = m007;
shapes = (
{
closed = 1;
nodes = (
(158,0,l),
(158,677,l),
(132,670,l),
(542,0,l),
(619,0,l),
(619,700,l),
(561,700,l),
(561,23,l),
(587,30,l),
(177,700,l),
(100,700,l),
(100,0,l)
);
}
);
width = 719;
},
{
anchors = (
{
name = bottom;
pos = (262,0);
},
{
name = top;
pos = (398,700);
}
);
layerId = m004;
shapes = (
{
closed = 1;
nodes = (
(68,0,l),
(194,647,l),
(172,645,l),
(436,0,l),
(535,0,l),
(671,700,l),
(592,700,l),
(466,53,l),
(488,55,l),
(224,700,l),
(125,700,l),
(-11,0,l)
);
}
);
width = 622;
},
{
anchors = (
{
name = bottom;
pos = (287,0);
},
{
name = top;
pos = (423,700);
}
);
layerId = m008;
shapes = (
{
closed = 1;
nodes = (
(123,0,l),
(227,533,l),
(200,530,l),
(431,0,l),
(585,0,l),
(721,700,l),
(577,700,l),
(473,167,l),
(500,170,l),
(269,700,l),
(125,700,l),
(-11,0,l)
);
}
);
width = 672;
},
{
anchors = (
{
name = bottom;
pos = (250,0);
},
{
name = top;
pos = (386,700);
}
);
layerId = m006;
shapes = (
{
closed = 1;
nodes = (
(48,0,l),
(180,676,l),
(154,674,l),
(432,0,l),
(510,0,l),
(646,700,l),
(587,700,l),
(455,24,l),
(481,26,l),
(203,700,l),
(125,700,l),
(-11,0,l)
);
}
);
width = 597;
}
);
metricLeft = H;
metricRight = H;
unicode = 78;
},
{
glyphname = Eng;
kernLeft = H;
kernRight = H;
layers = (
{
anchors = (
{
name = bottom;
pos = (358,0);
},
{
name = top;
pos = (358,700);
}
);
layerId = m01;
shapes = (
{
closed = 1;
nodes = (
(491,-200,ls),
(585,-200,o),
(631,-154,o),
(631,-60,cs),
(631,0,l),
(556,0,l),
(556,-67,ls),
(556,-107,o),
(536,-127,o),
(496,-127,cs),
(406,-127,l),
(406,-200,l)
);
},
{
ref = N;
}
);
width = 746;
},
{
anchors = (
{
name = bottom;
pos = (366,0);
},
{
name = top;
pos = (366,700);
}
);
layerId = m005;
shapes = (
{
closed = 1;
nodes = (
(494,-200,ls),
(608,-200,o),
(664,-147,o),
(664,-40,cs),
(664,0,l),
(529,0,l),
(529,-27,ls),
(529,-67,o),
(509,-87,o),
(469,-87,cs),
(379,-87,l),
(379,-200,l)
);
},
{
ref = N;
}
);
width = 796;
},
{
anchors = (
{
name = bottom;
pos = (354,0);
},
{
name = top;
pos = (354,700);
}
);
layerId = m007;
shapes = (
{
closed = 1;
nodes = (
(483,-200,ls),
(570,-200,o),
(613,-157,o),
(613,-70,cs),
(613,0,l),
(558,0,l),
(558,-77,ls),
(558,-124,o),
(535,-147,o),
(488,-147,cs),
(408,-147,l),
(408,-200,l)
);
},
{
ref = N;
}
);
width = 719;
},
{
anchors = (
{
name = bottom;
pos = (309,0);
},
{
name = top;
pos = (445,700);
}
);
layerId = m004;
shapes = (
{
closed = 1;
nodes = (
(422,-200,ls),
(490,-200,o),
(553,-146,o),
(570,-60,cs),
(582,0,l),
(507,0,l),
(494,-67,ls),
(487,-104,o),
(459,-127,o),
(422,-127,cs),
(332,-127,l),
(318,-200,l)
);
},
{
ref = N;
}
);
width = 669;
},
{
anchors = (
{
name = bottom;
pos = (317,0);
},
{
name = top;
pos = (453,700);
}
);
layerId = m008;
shapes = (
{
closed = 1;
nodes = (
(413,-200,ls),
(514,-200,o),
(586,-149,o),
(602,-67,cs),
(615,0,l),
(480,0,l),
(475,-27,ls),
(468,-64,o),
(444,-87,o),
(413,-87,cs),
(313,-87,l),
(291,-200,l)
);
},
{
ref = N;
}
);
width = 702;
},
{
anchors = (
{
name = bottom;
pos = (306,0);
},
{
name = top;
pos = (442,700);
}
);
layerId = m006;
shapes = (
{
closed = 1;
nodes = (
(412,-200,ls),
(484,-200,o),
(535,-152,o),
(552,-70,cs),
(566,0,l),
(511,0,l),
(496,-77,ls),
(487,-121,o),
(456,-147,o),
(412,-147,cs),
(332,-147,l),
(322,-200,l)
);
},
{
ref = N;
}
);
width = 653;
}
);
metricLeft = N;
metricRight = H;
unicode = 330;
},
{
glyphname = O;
kernLeft = O;
kernRight = O;
layers = (
{
anchors = (
{
name = bottom;
pos = (374,0);
},
{
name = center;
pos = (374,350);
},
{
name = ogonek;
pos = (676,10);
},
{
name = top;
pos = (374,700);
},
{
name = topleft;
pos = (17,700);
},
{
name = topright;
pos = (731,700);
}
);
layerId = m01;
shapes = (
{
closed = 1;
nodes = (
(563,-16,o),
(696,135,o),
(696,350,cs),
(696,565,o),
(563,716,o),
(374,716,cs),
(185,716,o),
(52,565,o),
(52,350,cs),
(52,135,o),
(185,-16,o),
(374,-16,cs)
);
},
{
closed = 1;
nodes = (
(230,57,o),
(130,177,o),
(130,350,cs),
(130,523,o),
(230,643,o),
(374,643,cs),
(518,643,o),
(618,523,o),
(618,350,cs),
(618,177,o),
(518,57,o),
(374,57,cs)
);
}
);
width = 748;
},
{
anchors = (
{
name = bottom;
pos = (402,0);
},
{
name = center;
pos = (402,350);
},
{
name = ogonek;
pos = (719,10);
},
{
name = top;
pos = (402,700);
},
{
name = topleft;
pos = (26,700);
},
{
name = topright;
pos = (778,700);
}
);
layerId = m005;
shapes = (
{
closed = 1;
nodes = (
(609,-16,o),
(754,135,o),
(754,350,cs),
(754,565,o),
(609,716,o),
(402,716,cs),
(195,716,o),
(50,565,o),
(50,350,cs),
(50,135,o),
(195,-16,o),
(402,-16,cs)
);
},
{
closed = 1;
nodes = (
(275,97,o),
(188,199,o),
(188,350,cs),
(188,501,o),
(275,603,o),
(402,603,cs),
(529,603,o),
(616,501,o),
(616,350,cs),
(616,199,o),
(529,97,o),
(402,97,cs)
);
}
);
width = 804;
},
{
anchors = (
{
name = bottom;
pos = (365,0);
},
{
name = center;
pos = (365,350);
},
{
name = ogonek;
pos = (663,10);
},
{
name = top;
pos = (365,700);
},
{
name = topleft;
pos = (12,700);
},
{
name = topright;
pos = (718,700);
}
);
layerId = m007;
shapes = (
{
closed = 1;
nodes = (
(549,-16,o),
(677,134,o),
(677,350,cs),
(677,566,o),
(549,716,o),
(365,716,cs),
(181,716,o),
(53,566,o),
(53,350,cs),
(53,134,o),
(181,-16,o),
(365,-16,cs)
);
},
{
closed = 1;
nodes = (
(215,37,o),
(111,165,o),
(111,350,cs),
(111,535,o),
(215,663,o),
(365,663,cs),
(515,663,o),
(619,535,o),
(619,350,cs),
(619,165,o),
(515,37,o),
(365,37,cs)
);
}
);
width = 730;
},
{
anchors = (
{
name = bottom;
pos = (330,0);
},
{
name = center;
pos = (398,350);
},
{
name = ogonek;
pos = (634,10);
},
{
name = top;
pos = (466,700);
},
{
name = topleft;
pos = (107,700);
},
{
name = topright;
pos = (824,700);
}
);
layerId = m004;
shapes = (
{
closed = 1;
nodes = (
(573,-16,o),
(721,153,o),
(721,382,cs),
(721,583,o),
(602,716,o),
(424,716,cs),
(225,716,o),
(74,544,o),
(74,316,cs),
(74,116,o),
(193,-16,o),
(372,-16,cs)
);
},
{
closed = 1;
nodes = (
(236,57,o),
(152,156,o),
(152,311,cs),
(152,500,o),
(272,643,o),
(429,643,cs),
(561,643,o),
(643,545,o),
(643,389,cs),
(643,200,o),
(524,57,o),
(367,57,cs)
);
}
);
width = 757;
},
{
anchors = (
{
name = bottom;
pos = (360,0);
},
{
name = center;
pos = (428,350);
},
{
name = ogonek;
pos = (681,10);
},
{
name = top;
pos = (496,700);
},
{
name = topleft;
pos = (116,700);
},
{
name = topright;
pos = (875,700);
}
);
layerId = m008;
shapes = (
{
closed = 1;
nodes = (
(620,-16,o),
(782,151,o),
(782,376,cs),
(782,578,o),
(649,716,o),
(452,716,cs),
(235,716,o),
(73,548,o),
(73,323,cs),
(73,121,o),
(206,-16,o),
(403,-16,cs)
);
},
{
closed = 1;
nodes = (
(288,97,o),
(211,186,o),
(211,321,cs),
(211,482,o),
(315,603,o),
(452,603,cs),
(569,603,o),
(644,516,o),
(644,380,cs),
(644,218,o),
(542,97,o),
(405,97,cs)
);
}
);
width = 816;
},
{
anchors = (
{
name = bottom;
pos = (321,0);
},
{
name = center;
pos = (389,350);
},
{
name = ogonek;
pos = (622,10);
},
{
name = top;
pos = (457,700);
},
{
name = topleft;
pos = (102,700);
},
{
name = topright;
pos = (811,700);
}
);
layerId = m006;
shapes = (
{
closed = 1;
nodes = (
(559,-16,o),
(702,153,o),
(702,384,cs),
(702,584,o),
(587,716,o),
(414,716,cs),
(220,716,o),
(75,545,o),
(75,315,cs),
(75,115,o),
(189,-16,o),
(363,-16,cs)
);
},
{
closed = 1;
nodes = (
(221,37,o),
(133,143,o),
(133,310,cs),
(133,513,o),
(254,663,o),
(418,663,cs),
(557,663,o),
(644,558,o),
(644,390,cs),
(644,187,o),
(523,37,o),
(360,37,cs)
);
}
);
width = 739;
}
);
unicode = 79;
},
{
glyphname = Oslash;
kernLeft = O;
kernRight = O;
layers = (
{
anchors = (
{
name = bottom;
pos = (408,0);
},
{
name = top;
pos = (408,700);
}
);
layerId = m01;
shapes = (
{
closed = 1;
nodes = (
(124,-66,l),
(779,765,l),
(691,765,l),
(36,-66,l)
);
},
{
pos = (34,0);
ref = O;
}
);
width = 815;
},
{
anchors = (
{
name = bottom;
pos = (418,0);
},
{
name = top;
pos = (418,700);
}
);
layerId = m005;
shapes = (
{
closed = 1;
nodes = (
(154,-66,l),
(800,765,l),
(681,765,l),
(35,-66,l)
);
},
{
pos = (22,0);
ref = O;
}
);
width = 835;
},
{
anchors = (
{
name = bottom;
pos = (388,0);
},
{
name = top;
pos = (388,700);
}
);
layerId = m007;
shapes = (
{
closed = 1;
nodes = (
(99,-56,l),
(738,755,l),
(676,755,l),
(37,-56,l)
);
},
{
pos = (15,0);
ref = O;
}
);
width = 775;
},
{
anchors = (
{
name = bottom;
pos = (344,0);
},
{
name = top;
pos = (480,700);
}
);
layerId = m004;
shapes = (
{
closed = 1;
nodes = (
(63,-66,l),
(850,765,l),
(762,765,l),
(-25,-66,l)
);
},
{
pos = (15,0);
ref = O;
}
);
width = 786;
},
{
anchors = (
{
name = bottom;
pos = (357,0);
},
{
name = top;
pos = (493,700);
}
);
layerId = m008;
shapes = (
{
closed = 1;
nodes = (
(98,-66,l),
(876,765,l),
(752,765,l),
(-26,-66,l)
);
},
{
pos = (7,0);
ref = O;
}
);
width = 811;
},
{
anchors = (
{
name = bottom;
pos = (324,0);
},
{
name = top;
pos = (460,700);
}
);
layerId = m006;
shapes = (
{
closed = 1;
nodes = (
(40,-56,l),
(807,755,l),
(745,755,l),
(-22,-56,l)
);
},
{
pos = (-1,0);
ref = O;
}
);
width = 746;
}
);
metricLeft = "=O*.7";
metricRight = "=O*.7";
unicode = 216;
},
{
glyphname = OE;
kernLeft = O;
kernRight = E;
layers = (
{
anchors = (
{
name = bottom;
pos = (539,0);
},
{
name = top;
pos = (539,700);
}
);
layerId = m01;
shapes = (
{
closed = 1;
nodes = (
(1026,0,l),
(1026,73,l),
(696,73,l),
(696,327,l),
(966,327,l),
(966,400,l),
(696,400,l),
(696,627,l),
(1026,627,l),
(1026,700,l),
(618,700,l),
(618,0,l)
);
},
{
closed = 1;
nodes = (
(572,-16,o),
(676,152,o),
(676,350,cs),
(676,548,o),
(572,716,o),
(374,716,cs),
(185,716,o),
(52,565,o),
(52,350,cs),
(52,135,o),
(185,-16,o),
(374,-16,cs)
);
},
{
closed = 1;
nodes = (
(230,57,o),
(130,177,o),
(130,350,cs),
(130,523,o),
(230,643,o),
(374,643,cs),
(518,643,o),
(618,523,o),
(618,350,cs),
(618,177,o),
(518,57,o),
(374,57,cs)
);
}
);
width = 1070;
},
{
anchors = (
{
name = bottom;
pos = (567,0);
},
{
name = top;
pos = (567,700);
}
);
layerId = m005;
shapes = (
{
closed = 1;
nodes = (
(1084,0,l),
(1084,113,l),
(754,113,l),
(754,307,l),
(1024,307,l),
(1024,420,l),
(754,420,l),
(754,587,l),
(1084,587,l),
(1084,700,l),
(616,700,l),
(616,0,l)
);
},
{
closed = 1;
nodes = (
(600,-16,o),
(694,152,o),
(694,350,cs),
(694,548,o),
(600,716,o),
(402,716,cs),
(195,716,o),
(50,565,o),
(50,350,cs),
(50,135,o),
(195,-16,o),
(402,-16,cs)
);
},
{
closed = 1;
nodes = (
(275,97,o),
(188,199,o),
(188,350,cs),
(188,501,o),
(275,603,o),
(402,603,cs),
(529,603,o),
(616,501,o),
(616,350,cs),
(616,199,o),
(529,97,o),
(402,97,cs)
);
}
);
width = 1141;
},
{
anchors = (
{
name = bottom;
pos = (530,0);
},
{
name = top;
pos = (530,700);
}
);
layerId = m007;
shapes = (
{
closed = 1;
nodes = (
(1007,0,l),
(1007,53,l),
(677,53,l),
(677,337,l),
(947,337,l),
(947,390,l),
(677,390,l),
(677,647,l),
(1007,647,l),
(1007,700,l),
(619,700,l),
(619,0,l)
);
},
{
closed = 1;
nodes = (
(562,-16,o),
(667,153,o),
(667,350,cs),
(667,547,o),
(562,716,o),
(365,716,cs),
(181,716,o),
(53,566,o),
(53,350,cs),
(53,134,o),
(181,-16,o),
(365,-16,cs)
);
},
{
closed = 1;
nodes = (
(215,37,o),
(111,165,o),
(111,350,cs),
(111,535,o),
(215,663,o),
(365,663,cs),
(515,663,o),
(619,535,o),
(619,350,cs),
(619,165,o),
(515,37,o),
(365,37,cs)
);
}
);
width = 1045;
},
{
anchors = (
{
name = bottom;
pos = (494,0);
},
{
name = top;
pos = (630,700);
}
);
layerId = m004;
shapes = (
{
closed = 1;
nodes = (
(981,0,l),
(995,73,l),
(665,73,l),
(715,327,l),
(985,327,l),
(999,400,l),
(729,400,l),
(773,627,l),
(1103,627,l),
(1117,700,l),
(709,700,l),
(573,0,l)
);
},
{
closed = 1;
nodes = (
(556,-16,o),
(698,156,o),
(698,394,cs),
(698,591,o),
(594,716,o),
(429,716,cs),
(232,716,o),
(71,531,o),
(71,304,cs),
(71,115,o),
(190,-16,o),
(361,-16,cs)
);
},
{
closed = 1;
nodes = (
(230,57,o),
(149,153,o),
(149,300,cs),
(149,488,o),
(279,643,o),
(436,643,cs),
(560,643,o),
(640,548,o),
(640,400,cs),
(640,211,o),
(511,57,o),
(354,57,cs)
);
}
);
width = 1048;
},
{
anchors = (
{
name = bottom;
pos = (524,0);
},
{
name = top;
pos = (660,700);
}
);
layerId = m008;
shapes = (
{
closed = 1;
nodes = (
(1044,0,l),
(1066,113,l),
(736,113,l),
(774,307,l),
(1044,307,l),
(1066,420,l),
(796,420,l),
(828,587,l),
(1158,587,l),
(1180,700,l),
(712,700,l),
(576,0,l)
);
},
{
closed = 1;
nodes = (
(593,-16,o),
(729,146,o),
(729,385,cs),
(729,593,o),
(627,716,o),
(456,716,cs),
(246,716,o),
(70,532,o),
(70,314,cs),
(70,123,o),
(207,-16,o),
(393,-16,cs)
);
},
{
closed = 1;
nodes = (
(283,97,o),
(208,183,o),
(208,311,cs),
(208,472,o),
(319,603,o),
(456,603,cs),
(568,603,o),
(641,518,o),
(641,389,cs),
(641,228,o),
(530,97,o),
(394,97,cs)
);
}
);
width = 1114;
},
{
anchors = (
{
name = bottom;
pos = (486,0);
},
{
name = top;
pos = (622,700);
}
);
layerId = m006;
shapes = (
{
closed = 1;
nodes = (
(965,0,l),
(975,53,l),
(645,53,l),
(700,337,l),
(970,337,l),
(981,390,l),
(711,390,l),
(761,647,l),
(1091,647,l),
(1101,700,l),
(713,700,l),
(577,0,l)
);
},
{
closed = 1;
nodes = (
(547,-16,o),
(690,160,o),
(690,398,cs),
(690,590,o),
(583,716,o),
(419,716,cs),
(226,716,o),
(73,533,o),
(73,301,cs),
(73,112,o),
(186,-16,o),
(354,-16,cs)
);
},
{
closed = 1;
nodes = (
(217,37,o),
(131,140,o),
(131,297,cs),
(131,499,o),
(263,663,o),
(426,663,cs),
(558,663,o),
(642,562,o),
(642,403,cs),
(642,200,o),
(511,37,o),
(348,37,cs)
);
}
);
width = 1030;
}
);
metricLeft = O;
metricRight = E;
unicode = 338;
},
{
glyphname = P;
kernLeft = H;
kernRight = P;
layers = (
{
anchors = (
{
name = bottom;
pos = (303,0);
},
{
name = top;
pos = (303,700);
}
);
layerId = m01;
shapes = (
{
closed = 1;
nodes = (
(178,0,l),
(178,309,l),
(340,309,ls),
(465,309,o),
(551,388,o),
(551,504,cs),
(551,621,o),
(465,700,o),
(340,700,cs),
(100,700,l),
(100,0,l)
);
},
{
closed = 1;
nodes = (
(178,627,l),
(340,627,ls),
(419,627,o),
(473,577,o),
(473,504,cs),
(473,431,o),
(420,382,o),
(340,382,cs),
(178,382,l)
);
}
);
width = 586;
},
{
anchors = (
{
name = bottom;
pos = (338,0);
},
{
name = top;
pos = (338,700);
}
);
layerId = m005;
shapes = (
{
closed = 1;
nodes = (
(238,0,l),
(238,278,l),
(340,278,ls),
(503,278,o),
(611,362,o),
(611,489,cs),
(611,616,o),
(503,700,o),
(340,700,cs),
(100,700,l),
(100,0,l)
);
},
{
closed = 1;
nodes = (
(238,587,l),
(340,587,ls),
(421,587,o),
(473,549,o),
(473,489,cs),
(473,429,o),
(421,391,o),
(340,391,cs),
(238,391,l)
);
}
);
width = 645;
},
{
anchors = (
{
name = bottom;
pos = (291,0);
},
{
name = top;
pos = (291,700);
}
);
layerId = m007;
shapes = (
{
closed = 1;
nodes = (
(158,0,l),
(158,319,l),
(310,319,ls),
(442,319,o),
(531,396,o),
(531,509,cs),
(531,623,o),
(442,700,o),
(310,700,cs),
(100,700,l),
(100,0,l)
);
},
{
closed = 1;
nodes = (
(158,647,l),
(310,647,ls),
(408,647,o),
(473,592,o),
(473,509,cs),
(473,426,o),
(409,372,o),
(310,372,cs),
(158,372,l)
);
}
);
width = 564;
},
{
anchors = (
{
name = bottom;
pos = (191,0);
},
{
name = top;
pos = (327,700);
}
);
layerId = m004;
shapes = (
{
closed = 1;
nodes = (
(67,0,l),
(127,309,l),
(283,309,ls),
(432,309,o),
(535,393,o),
(535,516,cs),
(535,626,o),
(452,700,o),
(331,700,cs),
(125,700,l),
(-11,0,l)
);
},
{
closed = 1;
nodes = (
(189,627,l),
(331,627,ls),
(408,627,o),
(459,581,o),
(459,513,cs),
(459,434,o),
(389,382,o),
(283,382,cs),
(141,382,l)
);
}
);
width = 521;
},
{
anchors = (
{
name = bottom;
pos = (226,0);
},
{
name = top;
pos = (362,700);
}
);
layerId = m008;
shapes = (
{
closed = 1;
nodes = (
(127,0,l),
(181,278,l),
(293,278,ls),
(473,278,o),
(592,365,o),
(592,497,cs),
(592,619,o),
(489,700,o),
(333,700,cs),
(125,700,l),
(-11,0,l)
);
},
{
closed = 1;
nodes = (
(241,587,l),
(333,587,ls),
(410,587,o),
(456,553,o),
(456,497,cs),
(456,432,o),
(393,391,o),
(293,391,cs),
(203,391,l)
);
}
);
width = 582;
},
{
anchors = (
{
name = bottom;
pos = (180,0);
},
{
name = top;
pos = (316,700);
}
);
layerId = m006;
shapes = (
{
closed = 1;
nodes = (
(47,0,l),
(109,319,l),
(271,319,ls),
(415,319,o),
(519,406,o),
(519,526,cs),
(519,630,o),
(440,700,o),
(325,700,cs),
(125,700,l),
(-11,0,l)
);
},
{
closed = 1;
nodes = (
(173,647,l),
(325,647,ls),
(408,647,o),
(463,599,o),
(463,526,cs),
(463,437,o),
(382,372,o),
(271,372,cs),
(119,372,l)
);
}
);
width = 502;
}
);
metricLeft = H;
unicode = 80;
},
{
glyphname = Thorn;
kernLeft = H;
kernRight = o;
layers = (
{
anchors = (
{
name = bottom;
pos = (308,0);
},
{
name = top;
pos = (308,700);
}
);
layerId = m01;
shapes = (
{
closed = 1;
nodes = (
(178,0,l),
(178,155,l),
(340,155,ls),
(465,155,o),
(551,234,o),
(551,350,cs),
(551,467,o),
(465,546,o),
(340,546,cs),
(178,546,l),
(178,700,l),
(100,700,l),
(100,0,l)
);
},
{
closed = 1;
nodes = (
(178,473,l),
(340,473,ls),
(419,473,o),
(473,423,o),
(473,350,cs),
(473,277,o),
(420,228,o),
(340,228,cs),
(178,228,l)
);
}
);
width = 599;
},
{
anchors = (
{
name = bottom;
pos = (342,0);
},
{
name = top;
pos = (342,700);
}
);
layerId = m005;
shapes = (
{
closed = 1;
nodes = (
(238,0,l),
(238,134,l),
(340,134,ls),
(503,134,o),
(611,220,o),
(611,350,cs),
(611,480,o),
(503,566,o),
(340,566,cs),
(238,566,l),
(238,700,l),
(100,700,l),
(100,0,l)
);
},
{
closed = 1;
nodes = (
(238,453,l),
(340,453,ls),
(422,453,o),
(473,414,o),
(473,350,cs),
(473,286,o),
(422,247,o),
(340,247,cs),
(238,247,l)
);
}
);
width = 657;
},
{
anchors = (
{
name = bottom;
pos = (296,0);
},
{
name = top;
pos = (296,700);
}
);
layerId = m007;
shapes = (
{
closed = 1;
nodes = (
(158,0,l),
(158,165,l),
(310,165,ls),
(447,165,o),
(531,235,o),
(531,350,cs),
(531,466,o),
(448,536,o),
(310,536,cs),
(158,536,l),
(158,700,l),
(100,700,l),
(100,0,l)
);
},
{
closed = 1;
nodes = (
(158,483,l),
(310,483,ls),
(416,483,o),
(473,437,o),
(473,350,cs),
(473,263,o),
(417,218,o),
(310,218,cs),
(158,218,l)
);
}
);
width = 579;
},
{
anchors = (
{
name = bottom;
pos = (196,0);
},
{
name = top;
pos = (332,700);
}
);
layerId = m004;
shapes = (
{
closed = 1;
nodes = (
(67,0,l),
(97,154,l),
(253,154,ls),
(402,154,o),
(505,238,o),
(505,361,cs),
(505,471,o),
(422,545,o),
(301,545,cs),
(173,545,l),
(203,700,l),
(125,700,l),
(-11,0,l)
);
},
{
closed = 1;
nodes = (
(159,472,l),
(301,472,ls),
(378,472,o),
(429,426,o),
(429,358,cs),
(429,279,o),
(359,227,o),
(253,227,cs),
(111,227,l)
);
}
);
width = 541;
},
{
anchors = (
{
name = bottom;
pos = (231,0);
},
{
name = top;
pos = (367,700);
}
);
layerId = m008;
shapes = (
{
closed = 1;
nodes = (
(127,0,l),
(153,134,l),
(277,134,ls),
(449,134,o),
(566,225,o),
(566,360,cs),
(566,484,o),
(467,566,o),
(317,566,cs),
(237,566,l),
(263,700,l),
(125,700,l),
(-11,0,l)
);
},
{
closed = 1;
nodes = (
(215,453,l),
(317,453,ls),
(387,453,o),
(430,418,o),
(430,361,cs),
(430,293,o),
(369,247,o),
(277,247,cs),
(175,247,l)
);
}
);
width = 602;
},
{
anchors = (
{
name = bottom;
pos = (185,0);
},
{
name = top;
pos = (321,700);
}
);
layerId = m006;
shapes = (
{
closed = 1;
nodes = (
(47,0,l),
(79,165,l),
(241,165,ls),
(388,165,o),
(487,244,o),
(487,361,cs),
(487,465,o),
(409,536,o),
(293,536,cs),
(151,536,l),
(183,700,l),
(125,700,l),
(-11,0,l)
);
},
{
closed = 1;
nodes = (
(141,483,l),
(293,483,ls),
(376,483,o),
(431,435,o),
(431,361,cs),
(431,275,o),
(355,218,o),
(241,218,cs),
(89,218,l)
);
}
);
width = 522;
}
);
metricLeft = H;
metricRight = B;
unicode = 222;
},
{
glyphname = Q;
kernLeft = O;
kernRight = Q;
layers = (
{
anchors = (
{
name = bottom;
pos = (386,0);
},
{
name = top;
pos = (386,700);
}
);
layerId = m01;
shapes = (
{
closed = 1;
nodes = (
(721,-66,l),
(406,346,l),
(318,346,l),
(633,-66,l)
);
},
{
ref = O;
}
);
width = 768;
},
{
anchors = (
{
name = bottom;
pos = (401,0);
},
{
name = top;
pos = (401,700);
}
);
layerId = m005;
shapes = (
{
closed = 1;
nodes = (
(761,-66,l),
(463,366,l),
(308,366,l),
(606,-66,l)
);
},
{
ref = O;
}
);
width = 806;
},
{
anchors = (
{
name = bottom;
pos = (378,0);
},
{
name = top;
pos = (378,700);
}
);
layerId = m007;
shapes = (
{
closed = 1;
nodes = (
(700,-66,l),
(391,346,l),
(329,346,l),
(638,-66,l)
);
},
{
ref = O;
}
);
width = 748;
},
{
anchors = (
{
name = bottom;
pos = (335,0);
},
{
name = top;
pos = (471,700);
}
);
layerId = m004;
shapes = (
{
closed = 1;
nodes = (
(660,-66,l),
(425,346,l),
(342,346,l),
(577,-66,l)
);
},
{
ref = O;
}
);
width = 768;
},
{
anchors = (
{
name = bottom;
pos = (351,0);
},
{
name = top;
pos = (487,700);
}
);
layerId = m008;
shapes = (
{
closed = 1;
nodes = (
(700,-66,l),
(486,366,l),
(356,366,l),
(570,-66,l)
);
},
{
ref = O;
}
);
width = 811;
},
{
anchors = (
{
name = bottom;
pos = (327,0);
},
{
name = top;
pos = (463,700);
}
);
layerId = m006;
shapes = (
{
closed = 1;
nodes = (
(639,-66,l),
(410,346,l),
(353,346,l),
(582,-66,l)
);
},
{
ref = O;
}
);
width = 748;
}
);
metricLeft = O;
metricRight = "=O*.9";
unicode = 81;
},
{
glyphname = R;
kernLeft = H;
kernRight = R;
layers = (
{
anchors = (
{
name = bottom;
pos = (321,0);
},
{
name = top;
pos = (321,700);
}
);
layerId = m01;
shapes = (
{
closed = 1;
nodes = (
(178,0,l),
(178,309,l),
(331,309,ls),
(417,309,o),
(460,266,o),
(466,174,cs),
(478,0,l),
(556,0,l),
(546,159,ls),
(538,283,o),
(483,347,o),
(385,347,c),
(365,340,l),
(477,340,o),
(551,406,o),
(551,508,cs),
(551,619,o),
(462,700,o),
(340,700,cs),
(100,700,l),
(100,0,l)
);
},
{
closed = 1;
nodes = (
(178,627,l),
(340,627,ls),
(418,627,o),
(473,576,o),
(473,504,cs),
(473,432,o),
(418,382,o),
(340,382,cs),
(178,382,l)
);
}
);
width = 625;
},
{
anchors = (
{
name = bottom;
pos = (353,0);
},
{
name = top;
pos = (353,700);
}
);
layerId = m005;
shapes = (
{
closed = 1;
nodes = (
(238,0,l),
(238,278,l),
(350,278,ls),
(428,278,o),
(464,244,o),
(469,163,cs),
(480,0,l),
(618,0,l),
(610,140,ls),
(603,266,o),
(543,327,o),
(425,327,c),
(415,317,l),
(530,317,o),
(611,392,o),
(611,498,cs),
(611,620,o),
(504,700,o),
(340,700,cs),
(100,700,l),
(100,0,l)
);
},
{
closed = 1;
nodes = (
(238,587,l),
(340,587,ls),
(421,587,o),
(473,549,o),
(473,489,cs),
(473,429,o),
(421,391,o),
(340,391,cs),
(238,391,l)
);
}
);
width = 684;
},
{
anchors = (
{
name = bottom;
pos = (309,0);
},
{
name = top;
pos = (309,700);
}
);
layerId = m007;
shapes = (
{
closed = 1;
nodes = (
(158,0,l),
(158,329,l),
(301,329,ls),
(414,329,o),
(459,287,o),
(466,175,cs),
(477,0,l),
(535,0,l),
(526,168,ls),
(519,291,o),
(464,355,o),
(365,355,c),
(365,350,l),
(462,350,o),
(531,420,o),
(531,517,cs),
(531,627,o),
(443,700,o),
(310,700,cs),
(100,700,l),
(100,0,l)
);
},
{
closed = 1;
nodes = (
(158,647,l),
(310,647,ls),
(407,647,o),
(473,593,o),
(473,514,cs),
(473,435,o),
(407,382,o),
(310,382,cs),
(158,382,l)
);
}
);
width = 605;
},
{
anchors = (
{
name = bottom;
pos = (212,0);
},
{
name = top;
pos = (348,700);
}
);
layerId = m004;
shapes = (
{
closed = 1;
nodes = (
(67,0,l),
(127,309,l),
(280,309,ls),
(364,309,o),
(407,266,o),
(397,194,cs),
(370,0,l),
(450,0,l),
(473,179,ls),
(487,284,o),
(429,347,o),
(320,347,c),
(320,340,l),
(448,340,o),
(536,413,o),
(536,521,cs),
(536,627,o),
(452,700,o),
(331,700,cs),
(125,700,l),
(-11,0,l)
);
},
{
closed = 1;
nodes = (
(189,627,l),
(331,627,ls),
(409,627,o),
(460,582,o),
(460,514,cs),
(460,434,o),
(390,382,o),
(283,382,cs),
(141,382,l)
);
}
);
width = 543;
},
{
anchors = (
{
name = bottom;
pos = (244,0);
},
{
name = top;
pos = (380,700);
}
);
layerId = m008;
shapes = (
{
closed = 1;
nodes = (
(127,0,l),
(181,278,l),
(281,278,ls),
(364,278,o),
(398,239,o),
(388,152,cs),
(371,0,l),
(511,0,l),
(527,162,ls),
(537,266,o),
(477,327,o),
(365,327,c),
(364,317,l),
(499,317,o),
(592,395,o),
(592,508,cs),
(592,624,o),
(494,700,o),
(343,700,cs),
(125,700,l),
(-11,0,l)
);
},
{
closed = 1;
nodes = (
(241,587,l),
(343,587,ls),
(413,587,o),
(456,552,o),
(456,496,cs),
(456,431,o),
(397,391,o),
(303,391,cs),
(203,391,l)
);
}
);
width = 603;
},
{
anchors = (
{
name = bottom;
pos = (201,0);
},
{
name = top;
pos = (337,700);
}
);
layerId = m006;
shapes = (
{
closed = 1;
nodes = (
(47,0,l),
(111,329,l),
(274,329,ls),
(364,329,o),
(410,283,o),
(399,205,cs),
(369,0,l),
(429,0,l),
(456,188,ls),
(471,291,o),
(416,355,o),
(312,355,c),
(322,350,l),
(437,350,o),
(519,425,o),
(518,531,cs),
(517,633,o),
(440,700,o),
(324,700,cs),
(125,700,l),
(-11,0,l)
);
},
{
closed = 1;
nodes = (
(172,647,l),
(324,647,ls),
(407,647,o),
(462,599,o),
(462,525,cs),
(462,439,o),
(386,382,o),
(272,382,cs),
(120,382,l)
);
}
);
width = 522;
}
);
metricLeft = H;
unicode = 82;
},
{
glyphname = S;
kernLeft = S;
kernRight = S;
layers = (
{
anchors = (
{
name = bottom;
pos = (298,0);
},
{
name = top;
pos = (298,700);
}
);
layerId = m01;
shapes = (
{
closed = 1;
nodes = (
(442,-16,o),
(544,75,o),
(544,197,cs),
(544,438,o),
(160,361,o),
(160,531,cs),
(160,601,o),
(224,643,o),
(295,643,cs),
(371,643,o),
(434,594,o),
(444,518,c),
(522,528,l),
(512,644,o),
(415,716,o),
(300,716,cs),
(181,716,o),
(82,638,o),
(82,524,cs),
(82,298,o),
(466,370,o),
(466,187,cs),
(466,104,o),
(387,57,o),
(306,57,cs),
(192,57,o),
(121,151,o),
(121,266,c),
(43,256,l),
(43,101,o),
(150,-16,o),
(305,-16,cs)
);
}
);
width = 591;
},
{
anchors = (
{
name = bottom;
pos = (325,0);
},
{
name = top;
pos = (325,700);
}
);
layerId = m005;
shapes = (
{
closed = 1;
nodes = (
(483,-16,o),
(598,76,o),
(598,198,cs),
(598,422,o),
(219,387,o),
(219,524,cs),
(219,573,o),
(267,603,o),
(322,603,cs),
(379,603,o),
(433,570,o),
(442,511,c),
(580,521,l),
(569,649,o),
(448,716,o),
(322,716,cs),
(184,716,o),
(81,636,o),
(81,513,cs),
(81,277,o),
(460,328,o),
(460,185,cs),
(460,126,o),
(396,97,o),
(336,97,cs),
(241,97,o),
(181,169,o),
(181,263,c),
(42,253,l),
(42,91,o),
(166,-16,o),
(330,-16,cs)
);
}
);
width = 645;
},
{
anchors = (
{
name = bottom;
pos = (286,0);
},
{
name = top;
pos = (286,700);
}
);
layerId = m007;
shapes = (
{
closed = 1;
nodes = (
(419,-16,o),
(520,71,o),
(520,185,cs),
(520,412,o),
(136,348,o),
(136,533,cs),
(136,611,o),
(204,663,o),
(284,663,cs),
(364,663,o),
(431,610,o),
(440,529,c),
(498,537,l),
(487,647,o),
(394,716,o),
(284,716,cs),
(170,716,o),
(78,641,o),
(78,531,cs),
(78,307,o),
(462,367,o),
(462,179,cs),
(462,89,o),
(373,37,o),
(288,37,cs),
(169,37,o),
(102,137,o),
(102,255,c),
(44,247,l),
(44,99,o),
(138,-16,o),
(288,-16,cs)
);
}
);
width = 565;
},
{
anchors = (
{
name = bottom;
pos = (237,0);
},
{
name = top;
pos = (373,700);
}
);
layerId = m004;
shapes = (
{
closed = 1;
nodes = (
(423,-16,o),
(524,74,o),
(524,191,cs),
(524,402,o),
(212,376,o),
(212,533,cs),
(212,602,o),
(272,643,o),
(342,643,cs),
(423,643,o),
(485,587,o),
(485,518,c),
(565,528,l),
(565,632,o),
(470,716,o),
(349,716,cs),
(233,716,o),
(135,641,o),
(135,526,cs),
(135,320,o),
(447,353,o),
(447,186,cs),
(447,104,o),
(370,57,o),
(293,57,cs),
(183,57,o),
(109,151,o),
(109,266,c),
(29,256,l),
(29,106,o),
(138,-16,o),
(291,-16,cs)
);
}
);
width = 576;
},
{
anchors = (
{
name = bottom;
pos = (272,0);
},
{
name = top;
pos = (408,700);
}
);
layerId = m008;
shapes = (
{
closed = 1;
nodes = (
(482,-16,o),
(597,76,o),
(597,198,cs),
(597,410,o),
(264,394,o),
(264,521,cs),
(264,573,o),
(320,603,o),
(380,603,cs),
(450,603,o),
(499,562,o),
(499,511,c),
(639,521,l),
(639,629,o),
(530,716,o),
(386,716,cs),
(246,716,o),
(126,636,o),
(126,507,cs),
(126,293,o),
(459,322,o),
(459,189,cs),
(459,131,o),
(396,97,o),
(331,97,cs),
(235,97,o),
(168,171,o),
(168,263,c),
(27,253,l),
(27,105,o),
(154,-16,o),
(328,-16,cs)
);
}
);
width = 647;
},
{
anchors = (
{
name = bottom;
pos = (230,0);
},
{
name = top;
pos = (366,700);
}
);
layerId = m006;
shapes = (
{
closed = 1;
nodes = (
(412,-16,o),
(511,71,o),
(511,185,cs),
(511,396,o),
(191,374,o),
(191,540,cs),
(191,617,o),
(260,663,o),
(338,663,cs),
(428,663,o),
(496,602,o),
(496,527,c),
(555,537,l),
(546,636,o),
(457,716,o),
(341,716,cs),
(234,716,o),
(135,649,o),
(135,539,cs),
(135,340,o),
(455,357,o),
(455,180,cs),
(455,90,o),
(370,37,o),
(284,37,cs),
(166,37,o),
(85,136,o),
(85,257,c),
(26,247,l),
(26,102,o),
(132,-16,o),
(282,-16,cs)
);
}
);
width = 562;
}
);
unicode = 83;
},
{
glyphname = Germandbls;
kernLeft = H;
kernRight = B;
layers = (
{
anchors = (
{
name = bottom;
pos = (355,0);
},
{
name = top;
pos = (355,700);
}
);
layerId = m01;
shapes = (
{
closed = 1;
nodes = (
(388,0,ls),
(539,0,o),
(640,82,o),
(640,205,cs),
(640,328,o),
(539,409,o),
(386,410,c),
(386,364,l),
(572,587,ls),
(586,604,o),
(592,622,o),
(592,638,cs),
(592,672,o),
(565,700,o),
(520,700,cs),
(100,700,l),
(100,0,l),
(178,0,l),
(178,627,l),
(509,627,l),
(338,413,l),
(338,337,l),
(388,337,ls),
(494,337,o),
(562,286,o),
(562,207,cs),
(562,128,o),
(495,78,o),
(388,78,cs),
(308,78,l),
(308,0,l)
);
}
);
width = 693;
},
{
anchors = (
{
name = bottom;
pos = (388,0);
},
{
name = top;
pos = (388,700);
}
);
layerId = m005;
shapes = (
{
closed = 1;
nodes = (
(418,0,ls),
(588,0,o),
(700,82,o),
(700,207,cs),
(700,323,o),
(604,399,o),
(447,406,c),
(457,370,l),
(608,536,ls),
(631,561,o),
(643,590,o),
(643,618,cs),
(643,667,o),
(606,700,o),
(550,700,cs),
(100,700,l),
(100,0,l),
(238,0,l),
(238,587,l),
(500,587,l),
(338,406,l),
(338,306,l),
(418,306,ls),
(509,306,o),
(562,272,o),
(562,213,cs),
(562,153,o),
(509,118,o),
(418,118,cs),
(328,118,l),
(328,0,l)
);
}
);
width = 751;
},
{
anchors = (
{
name = bottom;
pos = (329,0);
},
{
name = top;
pos = (329,700);
}
);
layerId = m007;
shapes = (
{
closed = 1;
nodes = (
(348,0,ls),
(492,0,o),
(590,84,o),
(590,206,cs),
(590,329,o),
(490,410,o),
(336,410,c),
(336,378,l),
(524,603,ls),
(536,617,o),
(542,633,o),
(542,647,cs),
(542,676,o),
(518,700,o),
(480,700,cs),
(100,700,l),
(100,0,l),
(158,0,l),
(158,647,l),
(490,647,l),
(308,419,l),
(308,357,l),
(358,357,ls),
(461,357,o),
(532,297,o),
(532,208,cs),
(532,119,o),
(461,58,o),
(358,58,cs),
(278,58,l),
(278,0,l)
);
}
);
width = 643;
},
{
anchors = (
{
name = bottom;
pos = (244,0);
},
{
name = top;
pos = (380,700);
}
);
layerId = m004;
shapes = (
{
closed = 1;
nodes = (
(292,0,ls),
(457,0,o),
(566,85,o),
(566,212,cs),
(566,328,o),
(475,407,o),
(342,407,c),
(355,373,l),
(575,587,ls),
(594,606,o),
(604,627,o),
(604,647,cs),
(604,678,o),
(580,700,o),
(545,700,cs),
(125,700,l),
(-11,0,l),
(67,0,l),
(189,627,l),
(520,627,l),
(307,413,l),
(292,337,l),
(342,337,ls),
(433,337,o),
(491,289,o),
(491,215,cs),
(491,130,o),
(415,78,o),
(292,78,cs),
(212,78,l),
(197,0,l)
);
}
);
width = 636;
},
{
anchors = (
{
name = bottom;
pos = (276,0);
},
{
name = top;
pos = (412,700);
}
);
layerId = m008;
shapes = (
{
closed = 1;
nodes = (
(347,0,ls),
(515,0,o),
(625,84,o),
(625,211,cs),
(625,332,o),
(525,407,o),
(366,407,c),
(422,374,l),
(601,536,ls),
(631,564,o),
(647,595,o),
(647,626,cs),
(647,670,o),
(614,700,o),
(565,700,cs),
(125,700,l),
(-11,0,l),
(127,0,l),
(241,587,l),
(503,587,l),
(306,406,l),
(286,306,l),
(366,306,ls),
(445,306,o),
(492,272,o),
(492,215,cs),
(492,154,o),
(438,118,o),
(347,118,cs),
(240,118,l),
(217,0,l)
);
}
);
width = 694;
},
{
anchors = (
{
name = bottom;
pos = (217,0);
},
{
name = top;
pos = (353,700);
}
);
layerId = m006;
shapes = (
{
closed = 1;
nodes = (
(258,0,ls),
(410,0,o),
(517,89,o),
(517,216,cs),
(517,333,o),
(426,410,o),
(286,410,c),
(299,378,l),
(530,603,ls),
(546,619,o),
(555,638,o),
(555,656,cs),
(555,683,o),
(536,700,o),
(505,700,cs),
(125,700,l),
(-11,0,l),
(47,0,l),
(173,647,l),
(500,647,l),
(273,419,l),
(261,357,l),
(286,357,ls),
(393,357,o),
(461,303,o),
(461,217,cs),
(461,123,o),
(378,58,o),
(258,58,cs),
(178,58,l),
(167,0,l)
);
}
);
width = 586;
}
);
metricLeft = H;
metricRight = "=B*1.1";
unicode = 7838;
},
{
glyphname = T;
kernLeft = T;
kernRight = T;
layers = (
{
anchors = (
{
name = bottom;
pos = (309,0);
},
{
name = center;
pos = (309,350);
},
{
name = top;
pos = (309,700);
}
);
layerId = m01;
shapes = (
{
closed = 1;
nodes = (
(348,0,l),
(348,627,l),
(598,627,l),
(598,700,l),
(20,700,l),
(20,627,l),
(270,627,l),
(270,0,l)
);
}
);
width = 618;
},
{
anchors = (
{
name = bottom;
pos = (344,0);
},
{
name = center;
pos = (344,350);
},
{
name = top;
pos = (344,700);
}
);
layerId = m005;
shapes = (
{
closed = 1;
nodes = (
(413,0,l),
(413,587,l),
(663,587,l),
(663,700,l),
(25,700,l),
(25,587,l),
(275,587,l),
(275,0,l)
);
}
);
width = 688;
},
{
anchors = (
{
name = bottom;
pos = (296,0);
},
{
name = center;
pos = (296,350);
},
{
name = top;
pos = (296,700);
}
);
layerId = m007;
shapes = (
{
closed = 1;
nodes = (
(325,0,l),
(325,647,l),
(575,647,l),
(575,700,l),
(17,700,l),
(17,647,l),
(267,647,l),
(267,0,l)
);
}
);
width = 592;
},
{
anchors = (
{
name = bottom;
pos = (259,0);
},
{
name = center;
pos = (327,350);
},
{
name = top;
pos = (395,700);
}
);
layerId = m004;
shapes = (
{
closed = 1;
nodes = (
(298,0,l),
(420,627,l),
(670,627,l),
(684,700,l),
(106,700,l),
(92,627,l),
(342,627,l),
(220,0,l)
);
}
);
width = 615;
},
{
anchors = (
{
name = bottom;
pos = (294,0);
},
{
name = center;
pos = (362,350);
},
{
name = top;
pos = (430,700);
}
);
layerId = m008;
shapes = (
{
closed = 1;
nodes = (
(363,0,l),
(477,587,l),
(727,587,l),
(749,700,l),
(111,700,l),
(89,587,l),
(339,587,l),
(225,0,l)
);
}
);
width = 683;
},
{
anchors = (
{
name = bottom;
pos = (246,0);
},
{
name = center;
pos = (314,350);
},
{
name = top;
pos = (382,700);
}
);
layerId = m006;
shapes = (
{
closed = 1;
nodes = (
(275,0,l),
(401,647,l),
(651,647,l),
(661,700,l),
(103,700,l),
(93,647,l),
(343,647,l),
(217,0,l)
);
}
);
width = 590;
}
);
unicode = 84;
},
{
glyphname = Tbar;
kernLeft = T;
kernRight = T;
layers = (
{
layerId = m01;
shapes = (
{
closed = 1;
nodes = (
(479,320,l),
(479,380,l),
(139,380,l),
(139,320,l)
);
},
{
ref = T;
}
);
width = 618;
},
{
layerId = m005;
shapes = (
{
closed = 1;
nodes = (
(515,305,l),
(515,395,l),
(155,395,l),
(155,305,l)
);
},
{
ref = T;
}
);
width = 688;
},
{
layerId = m007;
shapes = (
{
closed = 1;
nodes = (
(461,330,l),
(461,370,l),
(141,370,l),
(141,330,l)
);
},
{
ref = T;
}
);
width = 592;
},
{
layerId = m004;
shapes = (
{
closed = 1;
nodes = (
(498,320,l),
(510,380,l),
(170,380,l),
(158,320,l)
);
},
{
ref = T;
}
);
width = 615;
},
{
layerId = m008;
shapes = (
{
closed = 1;
nodes = (
(525,305,l),
(543,395,l),
(183,395,l),
(165,305,l)
);
},
{
ref = T;
}
);
width = 683;
},
{
layerId = m006;
shapes = (
{
closed = 1;
nodes = (
(485,330,l),
(493,370,l),
(173,370,l),
(165,330,l)
);
},
{
ref = T;
}
);
width = 590;
}
);
metricLeft = T;
metricRight = T;
unicode = 358;
},
{
glyphname = U;
kernLeft = U;
kernRight = U;
layers = (
{
anchors = (
{
name = bottom;
pos = (334,0);
},
{
name = ogonek;
pos = (472,0);
},
{
name = top;
pos = (334,700);
},
{
name = topright;
pos = (631,700);
}
);
layerId = m01;
shapes = (
{
closed = 1;
nodes = (
(486,-16,o),
(581,84,o),
(581,242,cs),
(581,700,l),
(503,700,l),
(503,242,ls),
(503,128,o),
(438,57,o),
(334,57,cs),
(229,57,o),
(164,128,o),
(164,242,cs),
(164,700,l),
(86,700,l),
(86,242,ls),
(86,84,o),
(183,-16,o),
(334,-16,cs)
);
}
);
width = 667;
},
{
anchors = (
{
name = bottom;
pos = (361,0);
},
{
name = ogonek;
pos = (509,0);
},
{
name = top;
pos = (361,700);
},
{
name = topright;
pos = (674,700);
}
);
layerId = m005;
shapes = (
{
closed = 1;
nodes = (
(524,-16,o),
(638,99,o),
(638,262,cs),
(638,700,l),
(500,700,l),
(500,262,ls),
(500,172,o),
(451,97,o),
(361,97,cs),
(271,97,o),
(221,172,o),
(221,262,cs),
(221,700,l),
(83,700,l),
(83,262,ls),
(83,99,o),
(198,-16,o),
(361,-16,cs)
);
}
);
width = 721;
},
{
anchors = (
{
name = bottom;
pos = (323,0);
},
{
name = ogonek;
pos = (451,0);
},
{
name = top;
pos = (323,700);
},
{
name = topright;
pos = (617,700);
}
);
layerId = m007;
shapes = (
{
closed = 1;
nodes = (
(464,-16,o),
(560,88,o),
(560,242,cs),
(560,700,l),
(502,700,l),
(502,242,ls),
(502,120,o),
(430,37,o),
(323,37,cs),
(216,37,o),
(143,120,o),
(143,242,cs),
(143,700,l),
(85,700,l),
(85,242,ls),
(85,89,o),
(182,-16,o),
(323,-16,cs)
);
}
);
width = 646;
},
{
anchors = (
{
name = bottom;
pos = (254,0);
},
{
name = ogonek;
pos = (403,0);
},
{
name = top;
pos = (390,700);
},
{
name = topright;
pos = (687,700);
}
);
layerId = m004;
shapes = (
{
closed = 1;
nodes = (
(410,-16,o),
(517,84,o),
(548,242,cs),
(637,700,l),
(559,700,l),
(470,242,ls),
(448,130,o),
(370,57,o),
(273,57,cs),
(171,57,o),
(111,137,o),
(131,242,cs),
(220,700,l),
(142,700,l),
(53,242,ls),
(25,97,o),
(121,-16,o),
(270,-16,cs)
);
}
);
width = 588;
},
{
anchors = (
{
name = bottom;
pos = (285,0);
},
{
name = ogonek;
pos = (453,0);
},
{
name = top;
pos = (421,700);
},
{
name = topright;
pos = (734,700);
}
);
layerId = m008;
shapes = (
{
closed = 1;
nodes = (
(462,-16,o),
(580,93,o),
(615,272,cs),
(698,700,l),
(559,700,l),
(476,272,ls),
(455,162,o),
(394,97,o),
(312,97,cs),
(225,97,o),
(177,171,o),
(197,272,cs),
(280,700,l),
(143,700,l),
(60,272,ls),
(29,112,o),
(140,-16,o),
(307,-16,cs)
);
}
);
width = 649;
},
{
anchors = (
{
name = bottom;
pos = (245,0);
},
{
name = ogonek;
pos = (387,0);
},
{
name = top;
pos = (381,700);
},
{
name = topright;
pos = (675,700);
}
);
layerId = m006;
shapes = (
{
closed = 1;
nodes = (
(393,-16,o),
(498,83,o),
(529,242,cs),
(618,700,l),
(560,700,l),
(471,242,ls),
(447,117,o),
(364,37,o),
(261,37,cs),
(154,37,o),
(89,124,o),
(112,242,cs),
(201,700,l),
(143,700,l),
(54,242,ls),
(26,97,o),
(116,-16,o),
(259,-16,cs)
);
}
);
width = 569;
}
);
unicode = 85;
},
{
glyphname = V;
kernLeft = V;
kernRight = V;
layers = (
{
anchors = (
{
name = bottom;
pos = (308,0);
},
{
name = top;
pos = (308,700);
}
);
layerId = m01;
shapes = (
{
closed = 1;
nodes = (
(359,0,l),
(592,700,l),
(514,700,l),
(293,36,l),
(322,36,l),
(102,700,l),
(24,700,l),
(257,0,l)
);
}
);
width = 616;
},
{
anchors = (
{
name = bottom;
pos = (336,0);
},
{
name = top;
pos = (336,700);
}
);
layerId = m005;
shapes = (
{
closed = 1;
nodes = (
(411,0,l),
(648,700,l),
(509,700,l),
(285,36,l),
(387,36,l),
(163,700,l),
(24,700,l),
(261,0,l)
);
}
);
width = 672;
},
{
anchors = (
{
name = bottom;
pos = (292,0);
},
{
name = top;
pos = (292,700);
}
);
layerId = m007;
shapes = (
{
closed = 1;
nodes = (
(333,0,l),
(559,700,l),
(502,700,l),
(288,36,l),
(295,36,l),
(82,700,l),
(25,700,l),
(251,0,l)
);
}
);
width = 583;
},
{
anchors = (
{
name = bottom;
pos = (287,0);
},
{
name = top;
pos = (423,700);
}
);
layerId = m004;
shapes = (
{
closed = 1;
nodes = (
(338,0,l),
(707,700,l),
(627,700,l),
(277,36,l),
(303,36,l),
(212,700,l),
(139,700,l),
(236,0,l)
);
}
);
width = 636;
},
{
anchors = (
{
name = bottom;
pos = (314,0);
},
{
name = top;
pos = (450,700);
}
);
layerId = m008;
shapes = (
{
closed = 1;
nodes = (
(389,0,l),
(762,700,l),
(617,700,l),
(264,36,l),
(366,36,l),
(271,700,l),
(138,700,l),
(239,0,l)
);
}
);
width = 691;
},
{
anchors = (
{
name = bottom;
pos = (274,0);
},
{
name = top;
pos = (410,700);
}
);
layerId = m006;
shapes = (
{
closed = 1;
nodes = (
(315,0,l),
(677,700,l),
(615,700,l),
(272,36,l),
(284,36,l),
(200,700,l),
(143,700,l),
(233,0,l)
);
}
);
width = 607;
}
);
unicode = 86;
},
{
glyphname = W;
kernLeft = W;
kernRight = W;
layers = (
{
anchors = (
{
name = bottom;
pos = (465,0);
},
{
name = top;
pos = (465,700);
}
);
layerId = m01;
shapes = (
{
closed = 1;
nodes = (
(347,0,l),
(475,587,l),
(455,587,l),
(583,0,l),
(686,0,l),
(858,700,l),
(785,700,l),
(622,38,l),
(643,38,l),
(499,700,l),
(431,700,l),
(287,38,l),
(308,38,l),
(145,700,l),
(72,700,l),
(244,0,l)
);
}
);
width = 930;
},
{
anchors = (
{
name = bottom;
pos = (510,0);
},
{
name = top;
pos = (510,700);
}
);
layerId = m005;
shapes = (
{
closed = 1;
nodes = (
(398,0,l),
(535,587,l),
(485,587,l),
(622,0,l),
(795,0,l),
(947,700,l),
(815,700,l),
(672,38,l),
(723,38,l),
(570,700,l),
(450,700,l),
(297,38,l),
(348,38,l),
(205,700,l),
(72,700,l),
(224,0,l)
);
}
);
width = 1019;
},
{
anchors = (
{
name = bottom;
pos = (445,0);
},
{
name = top;
pos = (445,700);
}
);
layerId = m007;
shapes = (
{
closed = 1;
nodes = (
(311,0,l),
(445,587,l),
(444,587,l),
(578,0,l),
(647,0,l),
(814,700,l),
(761,700,l),
(607,38,l),
(624,38,l),
(474,700,l),
(415,700,l),
(265,38,l),
(286,38,l),
(128,700,l),
(75,700,l),
(242,0,l)
);
}
);
width = 886;
},
{
anchors = (
{
name = bottom;
pos = (500,0);
},
{
name = top;
pos = (636,700);
}
);
layerId = m004;
shapes = (
{
closed = 1;
nodes = (
(382,0,l),
(624,587,l),
(604,587,l),
(618,0,l),
(721,0,l),
(1029,700,l),
(953,700,l),
(661,38,l),
(681,38,l),
(666,700,l),
(598,700,l),
(325,38,l),
(347,38,l),
(313,700,l),
(243,700,l),
(279,0,l)
);
}
);
width = 990;
},
{
anchors = (
{
name = bottom;
pos = (542,0);
},
{
name = top;
pos = (678,700);
}
);
layerId = m008;
shapes = (
{
closed = 1;
nodes = (
(425,0,l),
(676,587,l),
(626,587,l),
(649,0,l),
(827,0,l),
(1115,700,l),
(978,700,l),
(706,38,l),
(757,38,l),
(733,700,l),
(613,700,l),
(331,38,l),
(382,38,l),
(368,700,l),
(240,700,l),
(256,0,l)
);
}
);
width = 1076;
},
{
anchors = (
{
name = bottom;
pos = (489,0);
},
{
name = top;
pos = (625,700);
}
);
layerId = m006;
shapes = (
{
closed = 1;
nodes = (
(355,0,l),
(603,587,l),
(602,587,l),
(622,0,l),
(691,0,l),
(994,700,l),
(934,700,l),
(651,38,l),
(674,38,l),
(653,700,l),
(595,700,l),
(316,38,l),
(340,38,l),
(311,700,l),
(255,700,l),
(286,0,l)
);
}
);
width = 958;
}
);
metricLeft = "=V*3";
metricRight = "=V*3";
unicode = 87;
},
{
glyphname = X;
kernLeft = X;
kernRight = X;
layers = (
{
anchors = (
{
name = bottom;
pos = (339,0);
},
{
name = top;
pos = (339,700);
}
);
layerId = m01;
shapes = (
{
closed = 1;
nodes = (
(617,0,l),
(146,700,l),
(60,700,l),
(531,0,l)
);
},
{
closed = 1;
nodes = (
(146,0,l),
(617,700,l),
(531,700,l),
(60,0,l)
);
}
);
width = 677;
},
{
anchors = (
{
name = bottom;
pos = (381,0);
},
{
name = top;
pos = (381,700);
}
);
layerId = m005;
shapes = (
{
closed = 1;
nodes = (
(702,0,l),
(214,700,l),
(60,700,l),
(548,0,l)
);
},
{
closed = 1;
nodes = (
(214,0,l),
(702,700,l),
(548,700,l),
(60,0,l)
);
}
);
width = 762;
},
{
anchors = (
{
name = bottom;
pos = (323,0);
},
{
name = top;
pos = (323,700);
}
);
layerId = m007;
shapes = (
{
closed = 1;
nodes = (
(582,0,l),
(125,700,l),
(63,700,l),
(520,0,l)
);
},
{
closed = 1;
nodes = (
(125,0,l),
(582,700,l),
(520,700,l),
(63,0,l)
);
}
);
width = 642;
},
{
anchors = (
{
name = bottom;
pos = (365,0);
},
{
name = top;
pos = (501,700);
}
);
layerId = m004;
shapes = (
{
closed = 1;
nodes = (
(638,0,l),
(303,700,l),
(223,700,l),
(558,0,l)
);
},
{
closed = 1;
nodes = (
(177,0,l),
(784,700,l),
(688,700,l),
(81,0,l)
);
}
);
width = 737;
},
{
anchors = (
{
name = bottom;
pos = (405,0);
},
{
name = top;
pos = (541,700);
}
);
layerId = m008;
shapes = (
{
closed = 1;
nodes = (
(721,0,l),
(369,700,l),
(221,700,l),
(573,0,l)
);
},
{
closed = 1;
nodes = (
(243,0,l),
(867,700,l),
(703,700,l),
(79,0,l)
);
}
);
width = 820;
},
{
anchors = (
{
name = bottom;
pos = (353,0);
},
{
name = top;
pos = (489,700);
}
);
layerId = m006;
shapes = (
{
closed = 1;
nodes = (
(615,0,l),
(294,700,l),
(235,700,l),
(556,0,l)
);
},
{
closed = 1;
nodes = (
(158,0,l),
(751,700,l),
(684,700,l),
(91,0,l)
);
}
);
width = 707;
}
);
metricLeft = "=V*2.5";
metricRight = "=V*2.5";
unicode = 88;
},
{
glyphname = Y;
kernLeft = Y;
kernRight = Y;
layers = (
{
anchors = (
{
name = bottom;
pos = (314,0);
},
{
name = top;
pos = (314,700);
},
{
name = topleft;
pos = (55,700);
}
);
layerId = m01;
shapes = (
{
closed = 1;
nodes = (
(267,0,l),
(572,700,l),
(490,700,l),
(185,0,l)
);
},
{
closed = 1;
nodes = (
(340,246,l),
(142,700,l),
(60,700,l),
(293,165,l)
);
}
);
width = 620;
},
{
anchors = (
{
name = bottom;
pos = (352,0);
},
{
name = top;
pos = (352,700);
},
{
name = topleft;
pos = (60,700);
}
);
layerId = m005;
shapes = (
{
closed = 1;
nodes = (
(325,0,l),
(648,700,l),
(505,700,l),
(182,0,l)
);
},
{
closed = 1;
nodes = (
(411,245,l),
(204,700,l),
(60,700,l),
(329,104,l)
);
}
);
width = 696;
},
{
anchors = (
{
name = bottom;
pos = (300,0);
},
{
name = top;
pos = (300,700);
},
{
name = topleft;
pos = (55,700);
}
);
layerId = m007;
shapes = (
{
closed = 1;
nodes = (
(246,0,l),
(543,700,l),
(485,700,l),
(188,0,l)
);
},
{
closed = 1;
nodes = (
(315,247,l),
(121,700,l),
(63,700,l),
(282,187,l)
);
}
);
width = 591;
},
{
anchors = (
{
name = bottom;
pos = (335,0);
},
{
name = top;
pos = (471,700);
},
{
name = topleft;
pos = (212,700);
}
);
layerId = m004;
shapes = (
{
closed = 1;
nodes = (
(288,0,l),
(729,700,l),
(643,700,l),
(202,0,l)
);
},
{
closed = 1;
nodes = (
(405,246,l),
(295,700,l),
(217,700,l),
(346,165,l)
);
}
);
width = 674;
},
{
anchors = (
{
name = bottom;
pos = (369,0);
},
{
name = top;
pos = (505,700);
},
{
name = topleft;
pos = (215,700);
}
);
layerId = m008;
shapes = (
{
closed = 1;
nodes = (
(339,0,l),
(798,700,l),
(645,700,l),
(186,0,l)
);
},
{
closed = 1;
nodes = (
(463,245,l),
(344,700,l),
(215,700,l),
(368,104,l)
);
}
);
width = 743;
},
{
anchors = (
{
name = bottom;
pos = (330,0);
},
{
name = top;
pos = (466,700);
},
{
name = topleft;
pos = (219,700);
}
);
layerId = m006;
shapes = (
{
closed = 1;
nodes = (
(278,0,l),
(711,700,l),
(649,700,l),
(216,0,l)
);
},
{
closed = 1;
nodes = (
(385,247,l),
(279,700,l),
(227,700,l),
(346,187,l)
);
}
);
width = 658;
}
);
metricLeft = "=V*2.5";
metricRight = "=V*2";
unicode = 89;
},
{
glyphname = Z;
kernLeft = Z;
kernRight = Z;
layers = (
{
anchors = (
{
name = bottom;
pos = (262,0);
},
{
name = center;
pos = (262,350);
},
{
name = top;
pos = (262,700);
}
);
layerId = m01;
shapes = (
{
closed = 1;
nodes = (
(482,0,l),
(482,73,l),
(100,73,l),
(100,35,l),
(482,627,l),
(482,700,l),
(42,700,l),
(42,627,l),
(424,627,l),
(424,665,l),
(42,73,l),
(42,0,l)
);
}
);
width = 524;
},
{
anchors = (
{
name = bottom;
pos = (297,0);
},
{
name = center;
pos = (297,350);
},
{
name = top;
pos = (297,700);
}
);
layerId = m005;
shapes = (
{
closed = 1;
nodes = (
(542,0,l),
(542,113,l),
(172,113,l),
(172,76,l),
(542,587,l),
(542,700,l),
(52,700,l),
(52,587,l),
(422,587,l),
(422,624,l),
(52,113,l),
(52,0,l)
);
}
);
width = 594;
},
{
anchors = (
{
name = bottom;
pos = (252,0);
},
{
name = center;
pos = (252,350);
},
{
name = top;
pos = (252,700);
}
);
layerId = m007;
shapes = (
{
closed = 1;
nodes = (
(467,0,l),
(467,53,l),
(72,53,l),
(72,15,l),
(467,647,l),
(467,700,l),
(37,700,l),
(37,647,l),
(432,647,l),
(432,685,l),
(37,53,l),
(37,0,l)
);
}
);
width = 504;
},
{
anchors = (
{
name = bottom;
pos = (191,0);
},
{
name = center;
pos = (259,350);
},
{
name = top;
pos = (327,700);
}
);
layerId = m004;
shapes = (
{
closed = 1;
nodes = (
(411,0,l),
(425,73,l),
(44,73,l),
(44,38,l),
(533,627,l),
(547,700,l),
(107,700,l),
(93,627,l),
(474,627,l),
(474,662,l),
(-15,73,l),
(-29,0,l)
);
}
);
width = 479;
},
{
anchors = (
{
name = bottom;
pos = (219,0);
},
{
name = center;
pos = (287,350);
},
{
name = top;
pos = (355,700);
}
);
layerId = m008;
shapes = (
{
closed = 1;
nodes = (
(464,0,l),
(486,113,l),
(116,113,l),
(116,80,l),
(578,587,l),
(600,700,l),
(110,700,l),
(88,587,l),
(458,587,l),
(458,620,l),
(-4,113,l),
(-26,0,l)
);
}
);
width = 535;
},
{
anchors = (
{
name = bottom;
pos = (184,0);
},
{
name = center;
pos = (252,350);
},
{
name = top;
pos = (320,700);
}
);
layerId = m006;
shapes = (
{
closed = 1;
nodes = (
(399,0,l),
(409,53,l),
(14,53,l),
(14,18,l),
(525,647,l),
(535,700,l),
(105,700,l),
(95,647,l),
(490,647,l),
(490,682,l),
(-21,53,l),
(-31,0,l)
);
}
);
width = 465;
}
);
unicode = 90;
},
{
glyphname = R.ss01;
layers = (
{
anchors = (
{
name = bottom;
pos = (315,0);
},
{
name = top;
pos = (315,700);
}
);
layerId = m01;
shapes = (
{
closed = 1;
nodes = (
(178,0,l),
(178,309,l),
(340,309,ls),
(465,309,o),
(551,388,o),
(551,504,cs),
(551,621,o),
(465,700,o),
(340,700,cs),
(100,700,l),
(100,0,l)
);
},
{
closed = 1;
nodes = (
(565,0,l),
(381,350,l),
(297,343,l),
(476,0,l)
);
},
{
closed = 1;
nodes = (
(178,627,l),
(340,627,ls),
(419,627,o),
(473,577,o),
(473,504,cs),
(473,431,o),
(420,382,o),
(340,382,cs),
(178,382,l)
);
}
);
width = 613;
},
{
anchors = (
{
name = bottom;
pos = (347,0);
},
{
name = top;
pos = (347,700);
}
);
layerId = m005;
shapes = (
{
closed = 1;
nodes = (
(238,0,l),
(238,278,l),
(340,278,ls),
(503,278,o),
(611,362,o),
(611,489,cs),
(611,616,o),
(503,700,o),
(340,700,cs),
(100,700,l),
(100,0,l)
);
},
{
closed = 1;
nodes = (
(622,0,l),
(416,372,l),
(270,359,l),
(468,0,l)
);
},
{
closed = 1;
nodes = (
(238,587,l),
(340,587,ls),
(421,587,o),
(473,549,o),
(473,489,cs),
(473,429,o),
(421,391,o),
(340,391,cs),
(238,391,l)
);
}
);
width = 668;
},
{
anchors = (
{
name = bottom;
pos = (299,0);
},
{
name = top;
pos = (299,700);
}
);
layerId = m007;
shapes = (
{
closed = 1;
nodes = (
(158,0,l),
(158,319,l),
(310,319,ls),
(442,319,o),
(531,396,o),
(531,509,cs),
(531,623,o),
(442,700,o),
(310,700,cs),
(100,700,l),
(100,0,l)
);
},
{
closed = 1;
nodes = (
(538,0,l),
(365,349,l),
(301,344,l),
(470,0,l)
);
},
{
closed = 1;
nodes = (
(158,647,l),
(310,647,ls),
(408,647,o),
(473,592,o),
(473,509,cs),
(473,426,o),
(409,372,o),
(310,372,cs),
(158,372,l)
);
}
);
width = 587;
},
{
anchors = (
{
name = bottom;
pos = (204,0);
},
{
name = top;
pos = (340,700);
}
);
layerId = m004;
shapes = (
{
closed = 1;
nodes = (
(67,0,l),
(127,309,l),
(283,309,ls),
(432,309,o),
(535,393,o),
(535,516,cs),
(535,626,o),
(452,700,o),
(331,700,cs),
(125,700,l),
(-11,0,l)
);
},
{
closed = 1;
nodes = (
(454,0,l),
(338,350,l),
(261,343,l),
(373,0,l)
);
},
{
closed = 1;
nodes = (
(189,627,l),
(331,627,ls),
(408,627,o),
(459,581,o),
(459,513,cs),
(459,434,o),
(389,382,o),
(283,382,cs),
(141,382,l)
);
}
);
width = 534;
},
{
anchors = (
{
name = bottom;
pos = (236,0);
},
{
name = top;
pos = (372,700);
}
);
layerId = m008;
shapes = (
{
closed = 1;
nodes = (
(127,0,l),
(181,278,l),
(293,278,ls),
(473,278,o),
(592,365,o),
(592,497,cs),
(592,619,o),
(489,700,o),
(333,700,cs),
(125,700,l),
(-11,0,l)
);
},
{
closed = 1;
nodes = (
(511,0,l),
(377,372,l),
(239,359,l),
(367,0,l)
);
},
{
closed = 1;
nodes = (
(241,587,l),
(333,587,ls),
(410,587,o),
(456,553,o),
(456,497,cs),
(456,432,o),
(393,391,o),
(293,391,cs),
(203,391,l)
);
}
);
width = 590;
},
{
anchors = (
{
name = bottom;
pos = (188,0);
},
{
name = top;
pos = (324,700);
}
);
layerId = m006;
shapes = (
{
closed = 1;
nodes = (
(47,0,l),
(109,319,l),
(271,319,ls),
(415,319,o),
(519,406,o),
(519,526,cs),
(519,630,o),
(440,700,o),
(325,700,cs),
(125,700,l),
(-11,0,l)
);
},
{
closed = 1;
nodes = (
(427,0,l),
(322,349,l),
(262,344,l),
(364,0,l)
);
},
{
closed = 1;
nodes = (
(173,647,l),
(325,647,ls),
(408,647,o),
(463,599,o),
(463,526,cs),
(463,437,o),
(382,372,o),
(271,372,cs),
(119,372,l)
);
}
);
width = 507;
}
);
metricLeft = R;
metricRight = "=R*.7";
},
{
glyphname = Y.ss02;
layers = (
{
anchors = (
{
name = bottom;
pos = (330,0);
},
{
name = top;
pos = (330,700);
},
{
name = topleft;
pos = (41,700);
}
);
layerId = m01;
shapes = (
{
closed = 1;
nodes = (
(367,276,l),
(624,700,l),
(536,700,l),
(307,322,l),
(353,322,l),
(124,700,l),
(36,700,l),
(293,276,l)
);
},
{
closed = 1;
nodes = (
(369,0,l),
(369,317,l),
(291,317,l),
(291,0,l)
);
}
);
width = 660;
},
{
anchors = (
{
name = bottom;
pos = (374,0);
},
{
name = top;
pos = (374,700);
},
{
name = topleft;
pos = (44,700);
}
);
layerId = m005;
shapes = (
{
closed = 1;
nodes = (
(425,257,l),
(712,700,l),
(560,700,l),
(349,377,l),
(399,377,l),
(188,700,l),
(36,700,l),
(323,257,l)
);
},
{
closed = 1;
nodes = (
(443,0,l),
(443,337,l),
(305,337,l),
(305,0,l)
);
}
);
width = 748;
},
{
anchors = (
{
name = bottom;
pos = (314,0);
},
{
name = top;
pos = (314,700);
},
{
name = topleft;
pos = (41,700);
}
);
layerId = m007;
shapes = (
{
closed = 1;
nodes = (
(330,260,l),
(590,700,l),
(526,700,l),
(291,302,l),
(337,302,l),
(102,700,l),
(38,700,l),
(298,260,l)
);
},
{
closed = 1;
nodes = (
(343,0,l),
(343,324,l),
(285,324,l),
(285,0,l)
);
}
);
width = 626;
},
{
anchors = (
{
name = bottom;
pos = (323,0);
},
{
name = top;
pos = (459,700);
},
{
name = topleft;
pos = (170,700);
}
);
layerId = m004;
shapes = (
{
closed = 1;
nodes = (
(407,266,l),
(753,700,l),
(657,700,l),
(357,325,l),
(399,325,l),
(245,700,l),
(165,700,l),
(343,267,l)
);
},
{
closed = 1;
nodes = (
(362,0,l),
(424,317,l),
(346,317,l),
(284,0,l)
);
}
);
width = 690;
},
{
anchors = (
{
name = bottom;
pos = (366,0);
},
{
name = top;
pos = (502,700);
},
{
name = topleft;
pos = (172,700);
}
);
layerId = m008;
shapes = (
{
closed = 1;
nodes = (
(467,257,l),
(840,700,l),
(674,700,l),
(404,381,l),
(449,381,l),
(302,700,l),
(164,700,l),
(365,257,l)
);
},
{
closed = 1;
nodes = (
(435,0,l),
(500,337,l),
(362,337,l),
(297,0,l)
);
}
);
width = 777;
},
{
anchors = (
{
name = bottom;
pos = (311,0);
},
{
name = top;
pos = (447,700);
},
{
name = topleft;
pos = (174,700);
}
);
layerId = m006;
shapes = (
{
closed = 1;
nodes = (
(378,260,l),
(723,700,l),
(657,700,l),
(345,303,l),
(387,303,l),
(229,700,l),
(171,700,l),
(346,260,l)
);
},
{
closed = 1;
nodes = (
(340,0,l),
(403,324,l),
(345,324,l),
(282,0,l)
);
}
);
width = 662;
}
);
metricLeft = "=V*1.5";
metricRight = "=V*1.5";
},
{
glyphname = Oslash.ss03;
layers = (
{
anchors = (
{
name = bottom;
pos = (403,0);
},
{
name = top;
pos = (403,700);
}
);
layerId = m01;
shapes = (
{
closed = 1;
nodes = (
(119,0,l),
(774,700,l),
(686,700,l),
(31,0,l)
);
},
{
pos = (26,0);
ref = O;
}
);
width = 805;
},
{
anchors = (
{
name = bottom;
pos = (428,0);
},
{
name = top;
pos = (428,700);
}
);
layerId = m005;
shapes = (
{
closed = 1;
nodes = (
(159,0,l),
(825,700,l),
(696,700,l),
(30,0,l)
);
},
{
pos = (31,0);
ref = O;
}
);
width = 855;
},
{
anchors = (
{
name = bottom;
pos = (381,0);
},
{
name = top;
pos = (381,700);
}
);
layerId = m007;
shapes = (
{
closed = 1;
nodes = (
(93,0,l),
(729,700,l),
(668,700,l),
(32,0,l)
);
},
{
pos = (7,0);
ref = O;
}
);
width = 761;
},
{
anchors = (
{
name = bottom;
pos = (356,0);
},
{
name = top;
pos = (492,700);
}
);
layerId = m004;
shapes = (
{
closed = 1;
nodes = (
(74,0,l),
(865,700,l),
(773,700,l),
(-18,0,l)
);
},
{
pos = (26,0);
ref = O;
}
);
width = 809;
},
{
anchors = (
{
name = bottom;
pos = (364,0);
},
{
name = top;
pos = (500,700);
}
);
layerId = m008;
shapes = (
{
closed = 1;
nodes = (
(120,0,l),
(882,700,l),
(743,700,l),
(-19,0,l)
);
},
{
pos = (13,0);
ref = O;
}
);
width = 825;
},
{
anchors = (
{
name = bottom;
pos = (332,0);
},
{
name = top;
pos = (468,700);
}
);
layerId = m006;
shapes = (
{
closed = 1;
nodes = (
(49,0,l),
(816,700,l),
(750,700,l),
(-17,0,l)
);
},
{
pos = (6,0);
ref = O;
}
);
width = 761;
}
);
metricLeft = "=O*.6";
metricRight = "=O*.6";
},
{
glyphname = Q.ss03;
kernLeft = O;
kernRight = O;
layers = (
{
anchors = (
{
name = bottom;
pos = (381,0);
},
{
name = top;
pos = (381,700);
}
);
layerId = m01;
shapes = (
{
closed = 1;
nodes = (
(717,0,l),
(416,346,l),
(328,346,l),
(629,0,l)
);
},
{
ref = O;
}
);
width = 759;
},
{
anchors = (
{
name = bottom;
pos = (399,0);
},
{
name = top;
pos = (399,700);
}
);
layerId = m005;
shapes = (
{
closed = 1;
nodes = (
(761,0,l),
(473,346,l),
(318,346,l),
(606,0,l)
);
},
{
ref = O;
}
);
width = 802;
},
{
anchors = (
{
name = bottom;
pos = (368,0);
},
{
name = top;
pos = (368,700);
}
);
layerId = m007;
shapes = (
{
closed = 1;
nodes = (
(685,0,l),
(401,346,l),
(340,346,l),
(624,0,l)
);
},
{
ref = O;
}
);
width = 728;
},
{
anchors = (
{
name = bottom;
pos = (336,0);
},
{
name = top;
pos = (472,700);
}
);
layerId = m004;
shapes = (
{
closed = 1;
nodes = (
(679,0,l),
(445,346,l),
(357,346,l),
(591,0,l)
);
},
{
ref = O;
}
);
width = 770;
},
{
anchors = (
{
name = bottom;
pos = (353,0);
},
{
name = top;
pos = (489,700);
}
);
layerId = m008;
shapes = (
{
closed = 1;
nodes = (
(721,0,l),
(500,346,l),
(355,346,l),
(576,0,l)
);
},
{
ref = O;
}
);
width = 811;
},
{
anchors = (
{
name = bottom;
pos = (323,0);
},
{
name = top;
pos = (459,700);
}
);
layerId = m006;
shapes = (
{
closed = 1;
nodes = (
(647,0,l),
(430,346,l),
(369,346,l),
(586,0,l)
);
},
{
ref = O;
}
);
width = 739;
}
);
metricLeft = Q;
metricRight = "=Q*.9";
},
{
glyphname = a;
kernLeft = a;
kernRight = a;
layers = (
{
anchors = (
{
name = bottom;
pos = (255,0);
},
{
name = ogonek;
pos = (494,0);
},
{
name = top;
pos = (265,500);
}
);
layerId = m01;
shapes = (
{
closed = 1;
nodes = (
(315,-16,o),
(388,64,o),
(388,180,c),
(378,140,l),
(378,0,l),
(453,0,l),
(453,331,ls),
(453,449,o),
(388,516,o),
(271,516,cs),
(148,516,o),
(55,444,o),
(55,348,c),
(128,338,l),
(128,402,o),
(180,443,o),
(261,443,cs),
(328,443,o),
(372,418,o),
(375,377,cs),
(378,337,o),
(342,315,o),
(261,307,cs),
(121,295,o),
(42,235,o),
(42,141,cs),
(42,51,o),
(114,-16,o),
(210,-16,cs)
);
},
{
closed = 1;
nodes = (
(163,57,o),
(120,93,o),
(120,145,cs),
(120,201,o),
(171,235,o),
(266,243,cs),
(351,250,o),
(393,277,o),
(393,326,c),
(378,313,l),
(378,243,ls),
(378,133,o),
(315,57,o),
(225,57,cs)
);
}
);
width = 522;
},
{
anchors = (
{
name = bottom;
pos = (282,0);
},
{
name = ogonek;
pos = (560,0);
},
{
name = top;
pos = (292,500);
}
);
layerId = m005;
shapes = (
{
closed = 1;
nodes = (
(324,-16,o),
(397,62,o),
(397,180,c),
(377,141,l),
(377,0,l),
(512,0,l),
(512,326,ls),
(512,442,o),
(423,516,o),
(285,516,cs),
(149,516,o),
(55,445,o),
(55,342,c),
(189,332,l),
(189,374,o),
(232,403,o),
(298,403,cs),
(346,403,o),
(373,386,o),
(375,354,cs),
(377,318,o),
(360,310,o),
(256,297,cs),
(113,280,o),
(41,227,o),
(41,136,cs),
(41,47,o),
(112,-16,o),
(213,-16,cs)
);
},
{
closed = 1;
nodes = (
(208,97,o),
(179,116,o),
(179,149,cs),
(179,182,o),
(205,202,o),
(265,210,cs),
(338,219,o),
(392,251,o),
(392,298,c),
(377,318,l),
(377,273,ls),
(377,167,o),
(328,97,o),
(249,97,cs)
);
}
);
width = 580;
},
{
anchors = (
{
name = bottom;
pos = (247,0);
},
{
name = ogonek;
pos = (471,0);
},
{
name = top;
pos = (257,500);
}
);
layerId = m007;
shapes = (
{
closed = 1;
nodes = (
(306,-16,o),
(388,69,o),
(388,180,c),
(378,129,l),
(378,0,l),
(433,0,l),
(433,341,ls),
(433,457,o),
(374,516,o),
(260,516,cs),
(142,516,o),
(59,452,o),
(55,357,c),
(108,349,l),
(114,418,o),
(175,463,o),
(261,463,cs),
(329,463,o),
(369,435,o),
(375,382,cs),
(381,327,o),
(344,301,o),
(253,297,cs),
(118,291,o),
(42,234,o),
(42,138,cs),
(42,48,o),
(108,-16,o),
(200,-16,cs)
);
},
{
closed = 1;
nodes = (
(147,37,o),
(100,81,o),
(100,140,cs),
(100,206,o),
(160,247,o),
(260,250,cs),
(346,253,o),
(393,284,o),
(393,339,c),
(378,299,l),
(378,233,ls),
(378,126,o),
(302,37,o),
(211,37,cs)
);
}
);
width = 501;
},
{
anchors = (
{
name = bottom;
pos = (192,0);
},
{
name = ogonek;
pos = (430,0);
},
{
name = top;
pos = (300,500);
}
);
layerId = m004;
shapes = (
{
closed = 1;
nodes = (
(261,-16,o),
(341,61,o),
(364,180,c),
(341,140,l),
(314,0,l),
(389,0,l),
(455,338,ls),
(475,439,o),
(399,516,o),
(282,516,cs),
(173,516,o),
(85,449,o),
(59,348,c),
(130,338,l),
(146,406,o),
(200,443,o),
(282,443,cs),
(346,443,o),
(383,420,o),
(384,378,cs),
(386,334,o),
(340,310,o),
(247,307,cs),
(95,303,o),
(8,239,o),
(8,132,cs),
(8,43,o),
(69,-16,o),
(159,-16,cs)
);
},
{
closed = 1;
nodes = (
(124,57,o),
(85,89,o),
(85,139,cs),
(85,203,o),
(145,241,o),
(251,245,cs),
(339,248,o),
(387,275,o),
(397,326,c),
(375,313,l),
(361,243,ls),
(338,126,o),
(272,57,o),
(185,57,cs)
);
}
);
width = 488;
},
{
anchors = (
{
name = bottom;
pos = (222,0);
},
{
name = ogonek;
pos = (502,0);
},
{
name = top;
pos = (330,500);
}
);
layerId = m008;
shapes = (
{
closed = 1;
nodes = (
(279,-16,o),
(342,45,o),
(369,180,c),
(345,141,l),
(318,0,l),
(453,0,l),
(509,291,ls),
(533,415,o),
(441,516,o),
(296,516,cs),
(186,516,o),
(75,458,o),
(51,342,c),
(183,332,l),
(193,386,o),
(246,403,o),
(300,403,cs),
(354,403,o),
(384,385,o),
(384,351,cs),
(384,318,o),
(359,304,o),
(291,301,cs),
(148,293,o),
(9,261,o),
(9,132,cs),
(9,38,o),
(81,-16,o),
(177,-16,cs)
);
},
{
closed = 1;
nodes = (
(174,97,o),
(150,116,o),
(150,146,cs),
(150,181,o),
(180,198,o),
(263,212,cs),
(347,225,o),
(375,244,o),
(385,293,c),
(377,303,l),
(369,263,ls),
(349,164,o),
(286,97,o),
(213,97,cs)
);
}
);
width = 550;
},
{
anchors = (
{
name = bottom;
pos = (182,0);
},
{
name = ogonek;
pos = (408,0);
},
{
name = top;
pos = (290,500);
}
);
layerId = m006;
shapes = (
{
closed = 1;
nodes = (
(256,-16,o),
(333,60,o),
(358,180,c),
(338,129,l),
(313,0,l),
(368,0,l),
(434,339,ls),
(454,441,o),
(385,516,o),
(271,516,cs),
(166,516,o),
(82,453,o),
(59,357,c),
(111,347,l),
(129,418,o),
(192,463,o),
(273,463,cs),
(341,463,o),
(385,431,o),
(385,382,cs),
(385,327,o),
(342,301,o),
(245,297,cs),
(94,291,o),
(6,230,o),
(6,132,cs),
(6,46,o),
(71,-16,o),
(159,-16,cs)
);
},
{
closed = 1;
nodes = (
(105,37,o),
(63,75,o),
(63,131,cs),
(63,202,o),
(129,246,o),
(241,250,cs),
(333,253,o),
(383,283,o),
(390,339,c),
(371,299,l),
(358,233,ls),
(335,115,o),
(259,37,o),
(167,37,cs)
);
}
);
width = 466;
}
);
metricRight = "=m";
unicode = 97;
},
{
glyphname = ae;
kernLeft = a;
kernRight = o;
layers = (
{
anchors = (
{
name = bottom;
pos = (434,0);
},
{
name = top;
pos = (434,500);
}
);
layerId = m01;
shapes = (
{
closed = 1;
nodes = (
(723,-16,o),
(807,47,o),
(827,144,c),
(749,154,l),
(735,95,o),
(683,57,o),
(614,57,cs),
(521,57,o),
(457,127,o),
(457,230,c),
(830,230,l),
(830,248,ls),
(830,408,o),
(740,516,o),
(606,516,cs),
(472,516,o),
(379,407,o),
(379,251,cs),
(379,92,o),
(475,-16,o),
(616,-16,cs)
);
},
{
closed = 1;
nodes = (
(457,384,o),
(517,443,o),
(604,443,cs),
(691,443,o),
(752,384,o),
(752,298,c),
(457,298,l)
);
},
{
closed = 1;
nodes = (
(334,-16,o),
(418,67,o),
(418,180,c),
(453,331,l),
(453,456,o),
(394,516,o),
(271,516,cs),
(141,516,o),
(55,449,o),
(55,348,c),
(128,338,l),
(128,402,o),
(182,443,o),
(267,443,cs),
(328,443,o),
(366,422,o),
(374,383,cs),
(384,337,o),
(344,311,o),
(259,307,cs),
(125,301,o),
(42,237,o),
(42,141,cs),
(42,50,o),
(117,-16,o),
(219,-16,cs)
);
},
{
closed = 1;
nodes = (
(163,57,o),
(120,93,o),
(120,145,cs),
(120,203,o),
(175,240,o),
(266,243,cs),
(348,246,o),
(393,276,o),
(393,326,c),
(378,313,l),
(378,243,ls),
(378,133,o),
(315,57,o),
(225,57,cs)
);
}
);
width = 869;
},
{
anchors = (
{
name = bottom;
pos = (458,0);
},
{
name = top;
pos = (458,500);
}
);
layerId = m005;
shapes = (
{
closed = 1;
nodes = (
(771,-16,o),
(863,49,o),
(878,147,c),
(742,157,l),
(727,119,o),
(689,97,o),
(639,97,cs),
(566,97,o),
(516,143,o),
(516,210,c),
(878,210,l),
(878,248,ls),
(878,406,o),
(775,516,o),
(629,516,cs),
(482,516,o),
(377,406,o),
(377,250,cs),
(377,92,o),
(486,-16,o),
(647,-16,cs)
);
},
{
closed = 1;
nodes = (
(516,364,o),
(562,403,o),
(628,403,cs),
(694,403,o),
(739,365,o),
(739,308,c),
(516,308,l)
);
},
{
closed = 1;
nodes = (
(339,-16,o),
(437,58,o),
(437,180,c),
(512,326,l),
(512,448,o),
(414,516,o),
(285,516,cs),
(171,516,o),
(55,463,o),
(55,342,c),
(189,332,l),
(189,385,o),
(246,403,o),
(291,403,cs),
(338,403,o),
(371,384,o),
(374,356,cs),
(379,317,o),
(323,308,o),
(285,303,cs),
(162,287,o),
(41,254,o),
(41,135,cs),
(41,39,o),
(119,-16,o),
(221,-16,cs)
);
},
{
closed = 1;
nodes = (
(210,97,o),
(179,114,o),
(179,149,cs),
(179,195,o),
(230,206,o),
(265,210,cs),
(331,219,o),
(382,242,o),
(382,298,c),
(377,318,l),
(377,273,ls),
(377,182,o),
(336,97,o),
(249,97,cs)
);
}
);
width = 914;
},
{
anchors = (
{
name = bottom;
pos = (424,0);
},
{
name = top;
pos = (424,500);
}
);
layerId = m007;
shapes = (
{
closed = 1;
nodes = (
(703,-16,o),
(781,43,o),
(805,135,c),
(746,143,l),
(727,78,o),
(672,37,o),
(602,37,cs),
(504,37,o),
(437,119,o),
(437,240,c),
(810,240,l),
(810,248,ls),
(810,411,o),
(728,516,o),
(600,516,cs),
(470,516,o),
(379,407,o),
(379,249,cs),
(379,91,o),
(469,-16,o),
(603,-16,cs)
);
},
{
closed = 1;
nodes = (
(437,390,o),
(504,463,o),
(599,463,cs),
(691,463,o),
(752,394,o),
(752,288,c),
(437,288,l)
);
},
{
closed = 1;
nodes = (
(319,-16,o),
(408,78,o),
(408,200,c),
(433,341,l),
(433,457,o),
(374,516,o),
(260,516,cs),
(142,516,o),
(59,452,o),
(55,357,c),
(108,349,l),
(114,418,o),
(175,463,o),
(261,463,cs),
(329,463,o),
(369,435,o),
(375,382,cs),
(381,327,o),
(344,301,o),
(251,297,cs),
(115,291,o),
(42,235,o),
(42,138,cs),
(42,46,o),
(107,-16,o),
(202,-16,cs)
);
},
{
closed = 1;
nodes = (
(147,37,o),
(100,81,o),
(100,140,cs),
(100,206,o),
(160,247,o),
(260,250,cs),
(346,253,o),
(393,284,o),
(393,339,c),
(378,299,l),
(378,233,ls),
(378,126,o),
(302,37,o),
(211,37,cs)
);
}
);
width = 850;
},
{
anchors = (
{
name = bottom;
pos = (372,0);
},
{
name = top;
pos = (470,500);
}
);
layerId = m004;
shapes = (
{
closed = 1;
nodes = (
(673,-16,o),
(754,42,o),
(794,144,c),
(718,154,l),
(689,93,o),
(634,57,o),
(572,57,cs),
(484,57,o),
(429,129,o),
(441,230,c),
(814,230,l),
(820,265,ls),
(845,409,o),
(763,516,o),
(628,516,cs),
(478,516,o),
(362,385,o),
(362,216,cs),
(362,74,o),
(443,-16,o),
(571,-16,cs)
);
},
{
closed = 1;
nodes = (
(472,386,o),
(537,443,o),
(621,443,cs),
(710,443,o),
(766,380,o),
(749,298,c),
(454,298,l)
);
},
{
closed = 1;
nodes = (
(283,-16,o),
(377,63,o),
(399,180,c),
(455,338,l),
(474,439,o),
(399,516,o),
(282,516,cs),
(173,516,o),
(85,449,o),
(59,348,c),
(130,338,l),
(146,406,o),
(200,443,o),
(282,443,cs),
(346,443,o),
(383,420,o),
(384,378,cs),
(386,334,o),
(340,310,o),
(247,307,cs),
(95,303,o),
(8,239,o),
(8,132,cs),
(8,41,o),
(70,-16,o),
(168,-16,cs)
);
},
{
closed = 1;
nodes = (
(124,57,o),
(85,89,o),
(85,139,cs),
(85,203,o),
(145,241,o),
(251,245,cs),
(339,248,o),
(387,275,o),
(397,326,c),
(375,313,l),
(361,243,ls),
(338,126,o),
(272,57,o),
(185,57,cs)
);
}
);
width = 857;
},
{
anchors = (
{
name = bottom;
pos = (397,0);
},
{
name = top;
pos = (495,500);
}
);
layerId = m008;
shapes = (
{
closed = 1;
nodes = (
(717,-16,o),
(811,47,o),
(846,147,c),
(711,157,l),
(689,119,o),
(647,97,o),
(599,97,cs),
(528,97,o),
(484,146,o),
(496,210,c),
(858,210,l),
(865,248,ls),
(893,399,o),
(797,516,o),
(645,516,cs),
(488,516,o),
(370,392,o),
(370,226,cs),
(370,79,o),
(462,-16,o),
(603,-16,cs)
);
},
{
closed = 1;
nodes = (
(525,366,o),
(574,403,o),
(639,403,cs),
(707,403,o),
(749,363,o),
(738,308,c),
(515,308,l)
);
},
{
closed = 1;
nodes = (
(308,-16,o),
(405,61,o),
(429,180,c),
(509,291,l),
(533,415,o),
(441,516,o),
(296,516,cs),
(186,516,o),
(75,458,o),
(51,342,c),
(183,332,l),
(193,386,o),
(246,403,o),
(294,403,cs),
(345,403,o),
(382,384,o),
(384,352,cs),
(387,308,o),
(317,302,o),
(277,300,cs),
(148,293,o),
(9,260,o),
(9,131,cs),
(9,41,o),
(77,-16,o),
(184,-16,cs)
);
},
{
closed = 1;
nodes = (
(174,97,o),
(150,116,o),
(150,146,cs),
(150,181,o),
(180,198,o),
(263,212,cs),
(347,225,o),
(375,244,o),
(385,293,c),
(377,303,l),
(369,263,ls),
(349,164,o),
(286,97,o),
(213,97,cs)
);
}
);
width = 903;
},
{
anchors = (
{
name = bottom;
pos = (360,0);
},
{
name = top;
pos = (458,500);
}
);
layerId = m006;
shapes = (
{
closed = 1;
nodes = (
(652,-16,o),
(721,34,o),
(768,135,c),
(711,145,l),
(675,73,o),
(626,37,o),
(565,37,cs),
(469,37,o),
(407,124,o),
(421,240,c),
(794,240,l),
(795,248,ls),
(815,408,o),
(739,516,o),
(608,516,cs),
(468,516,o),
(366,393,o),
(366,223,cs),
(366,77,o),
(442,-16,o),
(563,-16,cs)
);
},
{
closed = 1;
nodes = (
(451,396,o),
(519,463,o),
(606,463,cs),
(696,463,o),
(754,391,o),
(745,288,c),
(430,288,l)
);
},
{
closed = 1;
nodes = (
(275,-16,o),
(363,66,o),
(375,179,c),
(434,339,l),
(454,441,o),
(385,516,o),
(271,516,cs),
(166,516,o),
(82,453,o),
(59,357,c),
(111,347,l),
(129,418,o),
(192,463,o),
(273,463,cs),
(341,463,o),
(385,431,o),
(385,382,cs),
(385,327,o),
(342,301,o),
(245,297,cs),
(94,291,o),
(6,230,o),
(6,130,cs),
(6,44,o),
(71,-16,o),
(165,-16,cs)
);
},
{
closed = 1;
nodes = (
(105,37,o),
(63,75,o),
(63,131,cs),
(63,202,o),
(129,246,o),
(241,250,cs),
(333,253,o),
(383,283,o),
(390,339,c),
(371,299,l),
(358,233,ls),
(335,115,o),
(259,37,o),
(167,37,cs)
);
}
);
width = 837;
}
);
metricLeft = a;
metricRight = e;
unicode = 230;
},
{
glyphname = b;
kernLeft = l;
kernRight = o;
layers = (
{
anchors = (
{
name = bottom;
pos = (294,0);
},
{
name = center;
pos = (294,250);
},
{
name = top;
pos = (294,500);
}
);
layerId = m01;
shapes = (
{
closed = 1;
nodes = (
(453,-16,o),
(542,94,o),
(542,250,cs),
(542,406,o),
(453,516,o),
(325,516,cs),
(219,516,o),
(146,441,o),
(146,330,cs),
(146,170,ls),
(146,59,o),
(219,-16,o),
(325,-16,cs)
);
},
{
closed = 1;
nodes = (
(155,0,l),
(155,700,l),
(80,700,l),
(80,0,l)
);
},
{
closed = 1;
nodes = (
(218,57,o),
(156,135,o),
(156,250,cs),
(156,365,o),
(218,443,o),
(310,443,cs),
(402,443,o),
(464,365,o),
(464,250,cs),
(464,135,o),
(402,57,o),
(310,57,cs)
);
}
);
width = 581;
},
{
anchors = (
{
name = bottom;
pos = (326,0);
},
{
name = center;
pos = (326,250);
},
{
name = top;
pos = (326,500);
}
);
layerId = m005;
shapes = (
{
closed = 1;
nodes = (
(512,-16,o),
(602,94,o),
(602,250,cs),
(602,406,o),
(512,516,o),
(384,516,cs),
(268,516,o),
(191,426,o),
(191,290,cs),
(191,210,ls),
(191,74,o),
(268,-16,o),
(384,-16,cs)
);
},
{
closed = 1;
nodes = (
(215,0,l),
(215,700,l),
(80,700,l),
(80,0,l)
);
},
{
closed = 1;
nodes = (
(266,97,o),
(216,158,o),
(216,250,cs),
(216,342,o),
(266,403,o),
(340,403,cs),
(414,403,o),
(464,342,o),
(464,250,cs),
(464,158,o),
(414,97,o),
(340,97,cs)
);
}
);
width = 638;
},
{
anchors = (
{
name = bottom;
pos = (282,0);
},
{
name = center;
pos = (282,250);
},
{
name = top;
pos = (282,500);
}
);
layerId = m007;
shapes = (
{
closed = 1;
nodes = (
(436,-16,o),
(521,91,o),
(521,250,cs),
(521,409,o),
(436,516,o),
(311,516,cs),
(203,516,o),
(125,438,o),
(125,330,cs),
(125,170,ls),
(125,63,o),
(204,-16,o),
(311,-16,cs)
);
},
{
closed = 1;
nodes = (
(135,0,l),
(135,700,l),
(80,700,l),
(80,0,l)
);
},
{
closed = 1;
nodes = (
(201,37,o),
(135,122,o),
(135,250,cs),
(135,378,o),
(201,463,o),
(299,463,cs),
(397,463,o),
(463,378,o),
(463,250,cs),
(463,122,o),
(397,37,o),
(299,37,cs)
);
}
);
width = 561;
},
{
anchors = (
{
name = bottom;
pos = (197,0);
},
{
name = center;
pos = (246,250);
},
{
name = top;
pos = (295,500);
}
);
layerId = m004;
shapes = (
{
closed = 1;
nodes = (
(384,-16,o),
(495,115,o),
(495,282,cs),
(495,421,o),
(415,516,o),
(298,516,cs),
(198,516,o),
(131,448,o),
(108,323,cs),
(83,193,ls),
(60,72,o),
(127,-16,o),
(243,-16,cs)
);
},
{
closed = 1;
nodes = (
(57,0,l),
(193,700,l),
(118,700,l),
(-18,0,l)
);
},
{
closed = 1;
nodes = (
(140,57,o),
(86,149,o),
(111,275,cs),
(132,380,o),
(195,443,o),
(279,443,cs),
(364,443,o),
(417,379,o),
(417,276,cs),
(417,152,o),
(340,57,o),
(239,57,cs)
);
}
);
width = 535;
},
{
anchors = (
{
name = bottom;
pos = (227,0);
},
{
name = center;
pos = (276,250);
},
{
name = top;
pos = (325,500);
}
);
layerId = m008;
shapes = (
{
closed = 1;
nodes = (
(447,-16,o),
(549,109,o),
(549,281,cs),
(549,424,o),
(478,516,o),
(366,516,cs),
(258,516,o),
(175,430,o),
(148,290,cs),
(133,210,ls),
(108,81,o),
(182,-16,o),
(306,-16,cs)
);
},
{
closed = 1;
nodes = (
(117,0,l),
(253,700,l),
(118,700,l),
(-18,0,l)
);
},
{
closed = 1;
nodes = (
(190,97,o),
(149,164,o),
(168,259,cs),
(186,346,o),
(242,403,o),
(310,403,cs),
(373,403,o),
(413,353,o),
(413,272,cs),
(413,171,o),
(352,97,o),
(269,97,cs)
);
}
);
width = 588;
},
{
anchors = (
{
name = bottom;
pos = (185,0);
},
{
name = center;
pos = (234,250);
},
{
name = top;
pos = (283,500);
}
);
layerId = m006;
shapes = (
{
closed = 1;
nodes = (
(371,-16,o),
(475,116,o),
(475,295,cs),
(475,434,o),
(408,516,o),
(294,516,cs),
(189,516,o),
(114,445,o),
(88,321,cs),
(68,226,ls),
(38,86,o),
(107,-16,o),
(231,-16,cs)
);
},
{
closed = 1;
nodes = (
(37,0,l),
(173,700,l),
(118,700,l),
(-18,0,l)
);
},
{
closed = 1;
nodes = (
(120,37,o),
(63,132,o),
(89,264,cs),
(113,385,o),
(190,463,o),
(284,463,cs),
(371,463,o),
(418,402,o),
(418,289,cs),
(418,141,o),
(339,37,o),
(227,37,cs)
);
}
);
width = 515;
}
);
metricLeft = l;
metricRight = o;
unicode = 98;
},
{
glyphname = c;
kernLeft = o;
kernRight = o;
layers = (
{
anchors = (
{
name = bottom;
pos = (267,0);
},
{
name = top;
pos = (267,500);
}
);
layerId = m01;
shapes = (
{
closed = 1;
nodes = (
(395,-16,o),
(485,63,o),
(495,177,c),
(417,187,l),
(411,110,o),
(353,57,o),
(274,57,cs),
(180,57,o),
(117,134,o),
(117,249,cs),
(117,365,o),
(180,443,o),
(274,443,cs),
(353,443,o),
(411,388,o),
(417,307,c),
(495,317,l),
(485,434,o),
(395,516,o),
(274,516,cs),
(135,516,o),
(39,406,o),
(39,249,cs),
(39,92,o),
(135,-16,o),
(275,-16,cs)
);
}
);
width = 534;
},
{
anchors = (
{
name = bottom;
pos = (290,0);
},
{
name = top;
pos = (290,500);
}
);
layerId = m005;
shapes = (
{
closed = 1;
nodes = (
(433,-16,o),
(531,64,o),
(544,183,c),
(398,193,l),
(386,133,o),
(348,97,o),
(294,97,cs),
(226,97,o),
(184,155,o),
(184,248,cs),
(184,343,o),
(227,403,o),
(294,403,cs),
(347,403,o),
(385,365,o),
(398,301,c),
(544,311,l),
(530,434,o),
(430,516,o),
(296,516,cs),
(142,516,o),
(36,407,o),
(36,249,cs),
(36,91,o),
(142,-16,o),
(298,-16,cs)
);
}
);
width = 580;
},
{
anchors = (
{
name = bottom;
pos = (258,0);
},
{
name = top;
pos = (258,500);
}
);
layerId = m007;
shapes = (
{
closed = 1;
nodes = (
(378,-16,o),
(462,61,o),
(475,178,c),
(417,186,l),
(406,95,o),
(346,37,o),
(264,37,cs),
(164,37,o),
(98,122,o),
(98,249,cs),
(98,377,o),
(165,463,o),
(263,463,cs),
(346,463,o),
(406,402,o),
(417,308,c),
(475,316,l),
(461,436,o),
(377,516,o),
(264,516,cs),
(132,516,o),
(40,406,o),
(40,249,cs),
(40,92,o),
(132,-16,o),
(265,-16,cs)
);
}
);
width = 515;
},
{
anchors = (
{
name = bottom;
pos = (217,0);
},
{
name = top;
pos = (315,500);
}
);
layerId = m004;
shapes = (
{
closed = 1;
nodes = (
(358,-16,o),
(441,54,o),
(477,177,c),
(401,187,l),
(379,106,o),
(321,57,o),
(245,57,cs),
(163,57,o),
(116,113,o),
(116,217,cs),
(116,346,o),
(189,443,o),
(289,443,cs),
(365,443,o),
(421,387,o),
(426,307,c),
(506,317,l),
(500,435,o),
(413,516,o),
(297,516,cs),
(150,516,o),
(40,387,o),
(40,219,cs),
(40,75,o),
(121,-16,o),
(247,-16,cs)
);
}
);
width = 532;
},
{
anchors = (
{
name = bottom;
pos = (244,0);
},
{
name = top;
pos = (342,500);
}
);
layerId = m008;
shapes = (
{
closed = 1;
nodes = (
(405,-16,o),
(504,60,o),
(536,181,c),
(401,191,l),
(383,133,o),
(336,97,o),
(278,97,cs),
(217,97,o),
(187,137,o),
(187,220,cs),
(187,330,o),
(239,403,o),
(318,403,cs),
(377,403,o),
(419,363,o),
(421,303,c),
(560,313,l),
(563,431,o),
(465,516,o),
(327,516,cs),
(161,516,o),
(39,393,o),
(39,226,cs),
(39,79,o),
(133,-16,o),
(277,-16,cs)
);
}
);
width = 586;
},
{
anchors = (
{
name = bottom;
pos = (205,0);
},
{
name = top;
pos = (303,500);
}
);
layerId = m006;
shapes = (
{
closed = 1;
nodes = (
(340,-16,o),
(420,58,o),
(456,186,c),
(400,196,l),
(374,95,o),
(314,37,o),
(236,37,cs),
(151,37,o),
(99,107,o),
(99,221,cs),
(99,360,o),
(177,463,o),
(282,463,cs),
(360,463,o),
(409,406,o),
(417,308,c),
(477,318,l),
(467,441,o),
(395,516,o),
(286,516,cs),
(146,516,o),
(42,392,o),
(42,226,cs),
(42,81,o),
(121,-16,o),
(238,-16,cs)
);
}
);
width = 509;
}
);
metricLeft = o;
metricRight = o;
unicode = 99;
},
{
glyphname = d;
kernLeft = o;
kernRight = l;
layers = (
{
anchors = (
{
name = bottom;
pos = (288,0);
},
{
name = center;
pos = (288,250);
},
{
name = top;
pos = (288,965);
},
{
name = topright;
pos = (561,965);
}
);
layerId = m01;
shapes = (
{
closed = 1;
nodes = (
(361,-16,o),
(435,60,o),
(435,170,cs),
(435,330,ls),
(435,441,o),
(362,516,o),
(256,516,cs),
(128,516,o),
(39,406,o),
(39,250,cs),
(39,93,o),
(128,-16,o),
(255,-16,cs)
);
},
{
closed = 1;
nodes = (
(179,57,o),
(117,135,o),
(117,250,cs),
(117,365,o),
(179,443,o),
(271,443,cs),
(363,443,o),
(425,365,o),
(425,250,cs),
(425,135,o),
(363,57,o),
(271,57,cs)
);
},
{
closed = 1;
nodes = (
(501,0,l),
(501,700,l),
(426,700,l),
(426,0,l)
);
}
);
width = 581;
},
{
anchors = (
{
name = bottom;
pos = (312,0);
},
{
name = center;
pos = (312,250);
},
{
name = top;
pos = (312,965);
},
{
name = topright;
pos = (604,965);
}
);
layerId = m005;
shapes = (
{
closed = 1;
nodes = (
(370,-16,o),
(447,74,o),
(447,210,cs),
(447,290,ls),
(447,425,o),
(368,516,o),
(252,516,cs),
(124,516,o),
(36,408,o),
(36,251,cs),
(36,94,o),
(126,-16,o),
(254,-16,cs)
);
},
{
closed = 1;
nodes = (
(224,97,o),
(174,158,o),
(174,250,cs),
(174,342,o),
(224,403,o),
(298,403,cs),
(372,403,o),
(422,342,o),
(422,250,cs),
(422,158,o),
(372,97,o),
(298,97,cs)
);
},
{
closed = 1;
nodes = (
(558,0,l),
(558,700,l),
(423,700,l),
(423,0,l)
);
}
);
width = 638;
},
{
anchors = (
{
name = bottom;
pos = (279,0);
},
{
name = center;
pos = (279,250);
},
{
name = top;
pos = (279,965);
},
{
name = topright;
pos = (548,965);
}
);
layerId = m007;
shapes = (
{
closed = 1;
nodes = (
(358,-16,o),
(436,62,o),
(436,170,cs),
(436,330,ls),
(436,438,o),
(358,516,o),
(250,516,cs),
(125,516,o),
(40,409,o),
(40,250,cs),
(40,91,o),
(124,-16,o),
(250,-16,cs)
);
},
{
closed = 1;
nodes = (
(164,37,o),
(98,122,o),
(98,250,cs),
(98,378,o),
(164,463,o),
(262,463,cs),
(360,463,o),
(426,378,o),
(426,250,cs),
(426,122,o),
(360,37,o),
(262,37,cs)
);
},
{
closed = 1;
nodes = (
(481,0,l),
(481,700,l),
(426,700,l),
(426,0,l)
);
}
);
width = 561;
},
{
anchors = (
{
name = bottom;
pos = (241,0);
},
{
name = center;
pos = (290,250);
},
{
name = top;
pos = (429,965);
},
{
name = topright;
pos = (704,965);
}
);
layerId = m004;
shapes = (
{
closed = 1;
nodes = (
(337,-16,o),
(405,53,o),
(428,177,cs),
(453,307,ls),
(477,429,o),
(411,516,o),
(293,516,cs),
(151,516,o),
(40,386,o),
(40,220,cs),
(40,80,o),
(121,-16,o),
(238,-16,cs)
);
},
{
closed = 1;
nodes = (
(174,57,o),
(118,123,o),
(118,225,cs),
(118,348,o),
(197,443,o),
(299,443,cs),
(399,443,o),
(451,353,o),
(425,226,cs),
(404,119,o),
(343,57,o),
(259,57,cs)
);
},
{
closed = 1;
nodes = (
(456,0,l),
(592,700,l),
(517,700,l),
(381,0,l)
);
}
);
width = 497;
},
{
anchors = (
{
name = bottom;
pos = (263,0);
},
{
name = center;
pos = (312,250);
},
{
name = top;
pos = (451,965);
},
{
name = topright;
pos = (741,965);
}
);
layerId = m008;
shapes = (
{
closed = 1;
nodes = (
(326,-16,o),
(412,72,o),
(438,210,cs),
(453,290,ls),
(478,422,o),
(410,516,o),
(289,516,cs),
(146,516,o),
(37,385,o),
(37,213,cs),
(37,74,o),
(108,-16,o),
(218,-16,cs)
);
},
{
closed = 1;
nodes = (
(210,97,o),
(173,145,o),
(173,225,cs),
(173,328,o),
(234,403,o),
(319,403,cs),
(397,403,o),
(438,339,o),
(420,246,cs),
(402,158,o),
(341,97,o),
(271,97,cs)
);
},
{
closed = 1;
nodes = (
(507,0,l),
(643,700,l),
(508,700,l),
(372,0,l)
);
}
);
width = 548;
},
{
anchors = (
{
name = bottom;
pos = (233,0);
},
{
name = center;
pos = (282,250);
},
{
name = top;
pos = (421,965);
},
{
name = topright;
pos = (692,965);
}
);
layerId = m006;
shapes = (
{
closed = 1;
nodes = (
(327,-16,o),
(402,56,o),
(428,179,cs),
(448,274,ls),
(478,413,o),
(407,516,o),
(282,516,cs),
(144,516,o),
(41,388,o),
(41,216,cs),
(41,74,o),
(113,-16,o),
(226,-16,cs)
);
},
{
closed = 1;
nodes = (
(150,37,o),
(98,106,o),
(98,220,cs),
(98,362,o),
(176,463,o),
(286,463,cs),
(394,463,o),
(453,365,o),
(426,231,cs),
(403,113,o),
(328,37,o),
(237,37,cs)
);
},
{
closed = 1;
nodes = (
(437,0,l),
(573,700,l),
(518,700,l),
(382,0,l)
);
}
);
width = 478;
}
);
metricLeft = o;
metricRight = l;
unicode = 100;
},
{
glyphname = dcroat;
kernLeft = o;
kernRight = l;
layers = (
{
layerId = m01;
shapes = (
{
closed = 1;
nodes = (
(604,573,l),
(604,627,l),
(244,627,l),
(244,573,l)
);
},
{
ref = d;
}
);
width = 620;
},
{
layerId = m005;
shapes = (
{
closed = 1;
nodes = (
(651,568,l),
(651,630,l),
(263,630,l),
(263,568,l)
);
},
{
ref = d;
}
);
width = 667;
},
{
layerId = m007;
shapes = (
{
closed = 1;
nodes = (
(594,583,l),
(594,617,l),
(254,617,l),
(254,583,l)
);
},
{
ref = d;
}
);
width = 610;
},
{
layerId = m004;
shapes = (
{
closed = 1;
nodes = (
(667,573,l),
(678,627,l),
(318,627,l),
(307,573,l)
);
},
{
ref = d;
}
);
width = 603;
},
{
layerId = m008;
shapes = (
{
closed = 1;
nodes = (
(713,568,l),
(725,630,l),
(337,630,l),
(325,568,l)
);
},
{
ref = d;
}
);
width = 649;
},
{
layerId = m006;
shapes = (
{
closed = 1;
nodes = (
(659,583,l),
(666,617,l),
(326,617,l),
(319,583,l)
);
},
{
ref = d;
}
);
width = 593;
}
);
metricLeft = "=d";
metricRight = "=l*.2";
unicode = 273;
},
{
glyphname = eth;
kernLeft = o;
kernRight = o;
layers = (
{
anchors = (
{
name = bottom;
pos = (281,0);
},
{
name = top;
pos = (281,965);
}
);
layerId = m01;
shapes = (
{
closed = 1;
nodes = (
(429,-16,o),
(523,104,o),
(523,296,cs),
(523,541,o),
(371,716,o),
(160,716,c),
(160,648,l),
(336,648,o),
(453,501,o),
(453,280,c),
(468,270,l),
(468,386,o),
(388,465,o),
(271,465,cs),
(137,465,o),
(39,363,o),
(39,224,cs),
(39,84,o),
(138,-16,o),
(277,-16,cs)
);
},
{
closed = 1;
nodes = (
(185,57,o),
(117,127,o),
(117,225,cs),
(117,323,o),
(185,392,o),
(281,392,cs),
(377,392,o),
(446,323,o),
(446,225,cs),
(446,127,o),
(377,57,o),
(281,57,cs)
);
},
{
closed = 1;
nodes = (
(494,650,l),
(471,695,l),
(163,550,l),
(186,505,l)
);
}
);
width = 562;
},
{
anchors = (
{
name = bottom;
pos = (299,0);
},
{
name = top;
pos = (299,965);
}
);
layerId = m005;
shapes = (
{
closed = 1;
nodes = (
(459,-15,o),
(562,106,o),
(562,297,cs),
(562,539,o),
(396,715,o),
(169,715,c),
(169,605,l),
(332,605,o),
(448,490,o),
(448,329,c),
(469,287,l),
(469,393,o),
(390,465,o),
(274,465,cs),
(137,465,o),
(36,364,o),
(36,226,cs),
(36,84,o),
(144,-17,o),
(295,-16,cs)
);
},
{
closed = 1;
nodes = (
(233,97,o),
(184,150,o),
(184,226,cs),
(184,301,o),
(232,352,o),
(302,352,cs),
(373,352,o),
(423,300,o),
(423,225,cs),
(423,150,o),
(373,97,o),
(303,97,cs)
);
},
{
closed = 1;
nodes = (
(502,626,l),
(476,680,l),
(159,532,l),
(185,478,l)
);
}
);
width = 598;
},
{
anchors = (
{
name = bottom;
pos = (272,0);
},
{
name = top;
pos = (272,965);
}
);
layerId = m007;
shapes = (
{
closed = 1;
nodes = (
(417,-16,o),
(504,102,o),
(504,300,cs),
(504,549,o),
(366,716,o),
(161,716,c),
(161,668,l),
(339,668,o),
(454,518,o),
(454,285,c),
(458,289,l),
(458,385,o),
(379,454,o),
(267,454,cs),
(134,454,o),
(40,357,o),
(40,219,cs),
(40,82,o),
(135,-16,o),
(270,-16,cs)
);
},
{
closed = 1;
nodes = (
(167,37,o),
(98,111,o),
(98,219,cs),
(98,326,o),
(170,401,o),
(272,401,cs),
(374,401,o),
(447,326,o),
(447,220,cs),
(447,114,o),
(372,37,o),
(268,37,cs)
);
},
{
closed = 1;
nodes = (
(483,645,l),
(465,681,l),
(166,541,l),
(184,505,l)
);
}
);
width = 544;
},
{
anchors = (
{
name = bottom;
pos = (230,0);
},
{
name = top;
pos = (418,965);
}
);
layerId = m004;
shapes = (
{
closed = 1;
nodes = (
(423,-16,o),
(521,112,o),
(521,321,cs),
(521,554,o),
(401,716,o),
(229,716,c),
(216,648,l),
(368,648,o),
(457,512,o),
(457,280,c),
(472,260,l),
(472,384,o),
(396,465,o),
(279,465,cs),
(148,465,o),
(47,366,o),
(37,230,cs),
(26,87,o),
(121,-16,o),
(264,-16,cs)
);
},
{
closed = 1;
nodes = (
(178,57,o),
(113,124,o),
(113,221,cs),
(113,321,o),
(181,392,o),
(276,392,cs),
(370,392,o),
(437,321,o),
(437,223,cs),
(437,125,o),
(370,57,o),
(273,57,cs)
);
},
{
closed = 1;
nodes = (
(550,650,l),
(536,695,l),
(200,550,l),
(214,505,l)
);
}
);
width = 557;
},
{
anchors = (
{
name = bottom;
pos = (251,0);
},
{
name = top;
pos = (439,965);
}
);
layerId = m008;
shapes = (
{
closed = 1;
nodes = (
(456,-15,o),
(567,122,o),
(567,329,cs),
(567,555,o),
(432,715,o),
(241,715,c),
(220,605,l),
(364,605,o),
(465,492,o),
(465,329,c),
(480,276,l),
(480,388,o),
(398,465,o),
(277,465,cs),
(138,465,o),
(37,363,o),
(37,223,cs),
(37,83,o),
(141,-17,o),
(287,-16,cs)
);
},
{
closed = 1;
nodes = (
(220,98,o),
(173,147,o),
(173,218,cs),
(173,295,o),
(227,351,o),
(302,351,cs),
(372,351,o),
(419,302,o),
(419,231,cs),
(419,154,o),
(365,98,o),
(290,98,cs)
);
},
{
closed = 1;
nodes = (
(558,627,l),
(542,681,l),
(196,533,l),
(212,479,l)
);
}
);
width = 599;
},
{
anchors = (
{
name = bottom;
pos = (222,0);
},
{
name = top;
pos = (410,965);
}
);
layerId = m006;
shapes = (
{
closed = 1;
nodes = (
(412,-16,o),
(504,109,o),
(504,318,cs),
(504,553,o),
(388,716,o),
(220,716,c),
(211,668,l),
(367,668,o),
(461,524,o),
(461,285,c),
(461,231,l),
(482,360,o),
(403,454,o),
(274,454,cs),
(138,454,o),
(37,350,o),
(37,209,cs),
(37,75,o),
(127,-16,o),
(258,-16,cs)
);
},
{
closed = 1;
nodes = (
(160,37,o),
(93,108,o),
(93,210,cs),
(93,321,o),
(170,401,o),
(275,401,cs),
(373,401,o),
(439,331,o),
(439,228,cs),
(439,118,o),
(363,37,o),
(258,37,cs)
);
},
{
closed = 1;
nodes = (
(530,645,l),
(519,681,l),
(193,541,l),
(204,505,l)
);
}
);
width = 543;
}
);
metricLeft = o;
metricRight = o;
unicode = 240;
},
{
glyphname = e;
kernLeft = o;
kernRight = o;
layers = (
{
anchors = (
{
name = bottom;
pos = (265,0);
},
{
name = ogonek;
pos = (405,0);
},
{
name = top;
pos = (265,500);
}
);
layerId = m01;
shapes = (
{
closed = 1;
nodes = (
(383,-16,o),
(467,47,o),
(487,144,c),
(409,154,l),
(395,95,o),
(343,57,o),
(274,57,cs),
(181,57,o),
(117,127,o),
(117,230,c),
(490,230,l),
(490,248,ls),
(490,408,o),
(400,516,o),
(266,516,cs),
(132,516,o),
(39,407,o),
(39,251,cs),
(39,92,o),
(135,-16,o),
(275,-16,cs)
);
},
{
closed = 1;
nodes = (
(117,384,o),
(177,443,o),
(264,443,cs),
(351,443,o),
(412,384,o),
(412,298,c),
(117,298,l)
);
}
);
width = 529;
},
{
anchors = (
{
name = bottom;
pos = (287,0);
},
{
name = ogonek;
pos = (454,0);
},
{
name = top;
pos = (287,500);
}
);
layerId = m005;
shapes = (
{
closed = 1;
nodes = (
(431,-16,o),
(522,49,o),
(537,147,c),
(401,157,l),
(386,119,o),
(348,97,o),
(298,97,cs),
(225,97,o),
(175,143,o),
(175,210,c),
(537,210,l),
(537,248,ls),
(537,406,o),
(434,516,o),
(287,516,cs),
(141,516,o),
(36,406,o),
(36,251,cs),
(36,91,o),
(145,-16,o),
(306,-16,cs)
);
},
{
closed = 1;
nodes = (
(175,364,o),
(221,403,o),
(287,403,cs),
(353,403,o),
(398,365,o),
(398,308,c),
(175,308,l)
);
}
);
width = 573;
},
{
anchors = (
{
name = bottom;
pos = (256,0);
},
{
name = ogonek;
pos = (387,0);
},
{
name = top;
pos = (256,500);
}
);
layerId = m007;
shapes = (
{
closed = 1;
nodes = (
(364,-16,o),
(442,43,o),
(466,135,c),
(407,143,l),
(388,78,o),
(333,37,o),
(264,37,cs),
(165,37,o),
(98,119,o),
(98,240,c),
(471,240,l),
(471,248,ls),
(471,411,o),
(389,516,o),
(261,516,cs),
(131,516,o),
(40,407,o),
(40,249,cs),
(40,91,o),
(130,-16,o),
(264,-16,cs)
);
},
{
closed = 1;
nodes = (
(98,390,o),
(165,463,o),
(260,463,cs),
(352,463,o),
(413,394,o),
(413,288,c),
(98,288,l)
);
}
);
width = 511;
},
{
anchors = (
{
name = bottom;
pos = (218,0);
},
{
name = ogonek;
pos = (377,0);
},
{
name = top;
pos = (316,500);
}
);
layerId = m004;
shapes = (
{
closed = 1;
nodes = (
(351,-16,o),
(431,42,o),
(471,144,c),
(395,154,l),
(366,93,o),
(311,57,o),
(249,57,cs),
(161,57,o),
(106,129,o),
(118,230,c),
(491,230,l),
(497,265,ls),
(522,408,o),
(439,516,o),
(304,516,cs),
(155,516,o),
(39,385,o),
(39,216,cs),
(39,74,o),
(121,-16,o),
(249,-16,cs)
);
},
{
closed = 1;
nodes = (
(149,386,o),
(214,443,o),
(298,443,cs),
(387,443,o),
(443,380,o),
(426,298,c),
(131,298,l)
);
}
);
width = 534;
},
{
anchors = (
{
name = bottom;
pos = (237,0);
},
{
name = ogonek;
pos = (415,0);
},
{
name = top;
pos = (335,500);
}
);
layerId = m008;
shapes = (
{
closed = 1;
nodes = (
(386,-16,o),
(480,47,o),
(515,147,c),
(380,157,l),
(358,119,o),
(316,97,o),
(268,97,cs),
(197,97,o),
(153,146,o),
(165,210,c),
(527,210,l),
(534,248,ls),
(562,399,o),
(466,516,o),
(314,516,cs),
(157,516,o),
(39,392,o),
(39,226,cs),
(39,79,o),
(131,-16,o),
(272,-16,cs)
);
},
{
closed = 1;
nodes = (
(194,366,o),
(243,403,o),
(308,403,cs),
(376,403,o),
(418,363,o),
(407,308,c),
(184,308,l)
);
}
);
width = 572;
},
{
anchors = (
{
name = bottom;
pos = (207,0);
},
{
name = ogonek;
pos = (359,0);
},
{
name = top;
pos = (305,500);
}
);
layerId = m006;
shapes = (
{
closed = 1;
nodes = (
(328,-16,o),
(397,34,o),
(444,135,c),
(387,145,l),
(351,73,o),
(302,37,o),
(241,37,cs),
(145,37,o),
(83,124,o),
(97,240,c),
(470,240,l),
(471,248,ls),
(491,408,o),
(415,516,o),
(284,516,cs),
(144,516,o),
(42,393,o),
(42,223,cs),
(42,77,o),
(118,-16,o),
(239,-16,cs)
);
},
{
closed = 1;
nodes = (
(127,396,o),
(195,463,o),
(282,463,cs),
(372,463,o),
(430,391,o),
(421,288,c),
(106,288,l)
);
}
);
width = 513;
}
);
metricLeft = o;
metricRight = o;
unicode = 101;
},
{
glyphname = f;
kernLeft = f;
kernRight = f;
layers = (
{
anchors = (
{
name = bottom;
pos = (173,0);
},
{
name = top;
pos = (173,965);
}
);
layerId = m01;
shapes = (
{
closed = 1;
nodes = (
(189,0,l),
(189,577,ls),
(189,617,o),
(209,637,o),
(249,637,cs),
(339,637,l),
(339,710,l),
(254,710,ls),
(160,710,o),
(114,664,o),
(114,570,cs),
(114,0,l)
);
},
{
closed = 1;
nodes = (
(339,427,l),
(339,500,l),
(6,500,l),
(6,427,l)
);
}
);
width = 346;
},
{
anchors = (
{
name = bottom;
pos = (211,0);
},
{
name = top;
pos = (211,965);
}
);
layerId = m005;
shapes = (
{
closed = 1;
nodes = (
(257,0,l),
(257,537,ls),
(257,577,o),
(277,597,o),
(317,597,cs),
(407,597,l),
(407,710,l),
(292,710,ls),
(178,710,o),
(122,657,o),
(122,550,cs),
(122,0,l)
);
},
{
closed = 1;
nodes = (
(407,387,l),
(407,500,l),
(14,500,l),
(14,387,l)
);
}
);
width = 421;
},
{
anchors = (
{
name = bottom;
pos = (160,0);
},
{
name = top;
pos = (160,965);
}
);
layerId = m007;
shapes = (
{
closed = 1;
nodes = (
(166,0,l),
(166,587,ls),
(166,634,o),
(189,657,o),
(236,657,cs),
(316,657,l),
(316,710,l),
(241,710,ls),
(154,710,o),
(111,667,o),
(111,580,cs),
(111,0,l)
);
},
{
closed = 1;
nodes = (
(316,447,l),
(316,500,l),
(3,500,l),
(3,447,l)
);
}
);
width = 319;
},
{
anchors = (
{
name = bottom;
pos = (152,0);
},
{
name = top;
pos = (340,965);
}
);
layerId = m004;
shapes = (
{
closed = 1;
nodes = (
(169,0,l),
(281,577,ls),
(288,614,o),
(316,637,o),
(353,637,cs),
(443,637,l),
(457,710,l),
(372,710,ls),
(285,710,o),
(221,656,o),
(205,570,cs),
(94,0,l)
);
},
{
closed = 1;
nodes = (
(402,427,l),
(416,500,l),
(83,500,l),
(69,427,l)
);
}
);
width = 331;
},
{
anchors = (
{
name = bottom;
pos = (182,0);
},
{
name = top;
pos = (370,965);
}
);
layerId = m008;
shapes = (
{
closed = 1;
nodes = (
(229,0,l),
(333,537,ls),
(341,575,o),
(364,597,o),
(395,597,cs),
(495,597,l),
(517,710,l),
(382,710,ls),
(289,710,o),
(222,660,o),
(206,577,cs),
(94,0,l)
);
},
{
closed = 1;
nodes = (
(454,387,l),
(476,500,l),
(83,500,l),
(61,387,l)
);
}
);
width = 395;
},
{
anchors = (
{
name = bottom;
pos = (142,0);
},
{
name = top;
pos = (330,965);
}
);
layerId = m006;
shapes = (
{
closed = 1;
nodes = (
(149,0,l),
(263,587,ls),
(271,630,o),
(303,657,o),
(347,657,cs),
(427,657,l),
(437,710,l),
(362,710,ls),
(281,710,o),
(222,660,o),
(207,580,cs),
(94,0,l)
);
},
{
closed = 1;
nodes = (
(386,447,l),
(396,500,l),
(83,500,l),
(73,447,l)
);
}
);
width = 308;
}
);
unicode = 102;
},
{
glyphname = g;
kernLeft = g;
kernRight = g;
layers = (
{
anchors = (
{
name = bottom;
pos = (288,-225);
},
{
name = top;
pos = (288,500);
}
);
layerId = m01;
shapes = (
{
closed = 1;
nodes = (
(408,-216,o),
(501,-122,o),
(501,19,cs),
(501,500,l),
(426,500,l),
(426,19,ls),
(426,-79,o),
(362,-143,o),
(266,-143,cs),
(192,-143,o),
(137,-105,o),
(133,-51,c),
(55,-61,l),
(59,-151,o),
(147,-216,o),
(266,-216,cs)
);
},
{
closed = 1;
nodes = (
(361,-16,o),
(435,60,o),
(435,170,cs),
(435,330,ls),
(435,441,o),
(362,516,o),
(256,516,cs),
(128,516,o),
(39,406,o),
(39,250,cs),
(39,93,o),
(128,-16,o),
(255,-16,cs)
);
},
{
closed = 1;
nodes = (
(179,57,o),
(117,135,o),
(117,250,cs),
(117,365,o),
(179,443,o),
(271,443,cs),
(363,443,o),
(425,365,o),
(425,250,cs),
(425,135,o),
(363,57,o),
(271,57,cs)
);
}
);
width = 581;
},
{
anchors = (
{
name = bottom;
pos = (312,-225);
},
{
name = top;
pos = (312,500);
}
);
layerId = m005;
shapes = (
{
closed = 1;
nodes = (
(450,-216,o),
(558,-112,o),
(558,50,cs),
(558,500,l),
(423,500,l),
(423,20,ls),
(423,-52,o),
(369,-103,o),
(294,-103,cs),
(245,-103,o),
(210,-82,o),
(200,-45,c),
(52,-55,l),
(52,-150,o),
(146,-216,o),
(282,-216,cs)
);
},
{
closed = 1;
nodes = (
(370,-16,o),
(447,74,o),
(447,210,cs),
(447,290,ls),
(447,425,o),
(368,516,o),
(252,516,cs),
(124,516,o),
(36,408,o),
(36,251,cs),
(36,94,o),
(126,-16,o),
(254,-16,cs)
);
},
{
closed = 1;
nodes = (
(224,97,o),
(174,158,o),
(174,250,cs),
(174,342,o),
(224,403,o),
(298,403,cs),
(372,403,o),
(422,342,o),
(422,250,cs),
(422,158,o),
(372,97,o),
(298,97,cs)
);
}
);
width = 638;
},
{
anchors = (
{
name = bottom;
pos = (280,-225);
},
{
name = top;
pos = (280,500);
}
);
layerId = m007;
shapes = (
{
closed = 1;
nodes = (
(391,-216,o),
(482,-125,o),
(482,9,cs),
(482,500,l),
(427,500,l),
(427,9,ls),
(427,-93,o),
(360,-163,o),
(262,-163,cs),
(188,-163,o),
(131,-124,o),
(116,-62,c),
(57,-70,l),
(73,-158,o),
(153,-216,o),
(259,-216,cs)
);
},
{
closed = 1;
nodes = (
(358,-16,o),
(436,62,o),
(436,170,cs),
(436,330,ls),
(436,438,o),
(358,516,o),
(250,516,cs),
(125,516,o),
(40,409,o),
(40,250,cs),
(40,91,o),
(124,-16,o),
(250,-16,cs)
);
},
{
closed = 1;
nodes = (
(164,37,o),
(98,122,o),
(98,250,cs),
(98,378,o),
(164,463,o),
(262,463,cs),
(360,463,o),
(426,378,o),
(426,250,cs),
(426,122,o),
(360,37,o),
(262,37,cs)
);
}
);
width = 562;
},
{
anchors = (
{
name = bottom;
pos = (198,-225);
},
{
name = top;
pos = (339,500);
}
);
layerId = m004;
shapes = (
{
closed = 1;
nodes = (
(333,-216,o),
(433,-126,o),
(461,19,cs),
(554,500,l),
(479,500,l),
(386,19,ls),
(367,-80,o),
(296,-143,o),
(202,-143,cs),
(129,-143,o),
(79,-105,o),
(79,-51,c),
(-1,-61,l),
(9,-153,o),
(91,-216,o),
(201,-216,cs)
);
},
{
closed = 1;
nodes = (
(337,-16,o),
(405,53,o),
(428,177,cs),
(453,307,ls),
(477,429,o),
(411,516,o),
(293,516,cs),
(151,516,o),
(40,386,o),
(40,220,cs),
(40,80,o),
(121,-16,o),
(238,-16,cs)
);
},
{
closed = 1;
nodes = (
(174,57,o),
(118,123,o),
(118,225,cs),
(118,348,o),
(197,443,o),
(299,443,cs),
(399,443,o),
(451,353,o),
(425,226,cs),
(404,119,o),
(343,57,o),
(259,57,cs)
);
}
);
width = 498;
},
{
anchors = (
{
name = bottom;
pos = (220,-225);
},
{
name = top;
pos = (361,500);
}
);
layerId = m008;
shapes = (
{
closed = 1;
nodes = (
(373,-216,o),
(484,-126,o),
(512,20,cs),
(605,500,l),
(470,500,l),
(377,20,ls),
(362,-55,o),
(304,-103,o),
(228,-103,cs),
(178,-103,o),
(146,-82,o),
(141,-45,c),
(-9,-55,l),
(1,-152,o),
(93,-216,o),
(221,-216,cs)
);
},
{
closed = 1;
nodes = (
(326,-16,o),
(412,72,o),
(438,210,cs),
(453,290,ls),
(478,422,o),
(410,516,o),
(289,516,cs),
(146,516,o),
(37,385,o),
(37,213,cs),
(37,74,o),
(108,-16,o),
(218,-16,cs)
);
},
{
closed = 1;
nodes = (
(210,97,o),
(173,145,o),
(173,225,cs),
(173,328,o),
(234,403,o),
(319,403,cs),
(397,403,o),
(438,339,o),
(420,246,cs),
(402,158,o),
(341,97,o),
(271,97,cs)
);
}
);
width = 549;
},
{
anchors = (
{
name = bottom;
pos = (190,-225);
},
{
name = top;
pos = (331,500);
}
);
layerId = m006;
shapes = (
{
closed = 1;
nodes = (
(315,-216,o),
(412,-131,o),
(439,9,cs),
(534,500,l),
(479,500,l),
(384,9,ls),
(364,-96,o),
(288,-163,o),
(191,-163,cs),
(115,-163,o),
(62,-122,o),
(59,-62,c),
(-2,-70,l),
(4,-157,o),
(81,-216,o),
(188,-216,cs)
);
},
{
closed = 1;
nodes = (
(327,-16,o),
(402,56,o),
(428,179,cs),
(448,274,ls),
(478,413,o),
(407,516,o),
(282,516,cs),
(144,516,o),
(41,388,o),
(41,216,cs),
(41,74,o),
(113,-16,o),
(226,-16,cs)
);
},
{
closed = 1;
nodes = (
(150,37,o),
(98,106,o),
(98,220,cs),
(98,362,o),
(176,463,o),
(286,463,cs),
(394,463,o),
(453,365,o),
(426,231,cs),
(403,113,o),
(328,37,o),
(237,37,cs)
);
}
);
width = 478;
}
);
metricLeft = o;
metricRight = l;
unicode = 103;
},
{
glyphname = h;
kernLeft = l;
kernRight = m;
layers = (
{
anchors = (
{
name = bottom;
pos = (278,0);
},
{
name = center;
pos = (278,483);
},
{
name = top;
pos = (116,700);
}
);
layerId = m01;
shapes = (
{
closed = 1;
nodes = (
(482,0,l),
(482,329,ls),
(482,444,o),
(419,516,o),
(320,516,cs),
(218,516,o),
(139,439,o),
(139,339,c),
(154,243,l),
(154,364,o),
(214,443,o),
(304,443,cs),
(369,443,o),
(407,401,o),
(407,329,cs),
(407,0,l)
);
},
{
closed = 1;
nodes = (
(154,0,l),
(154,700,l),
(79,700,l),
(79,0,l)
);
}
);
width = 551;
},
{
anchors = (
{
name = bottom;
pos = (309,0);
},
{
name = center;
pos = (309,483);
},
{
name = top;
pos = (144,700);
}
);
layerId = m005;
shapes = (
{
closed = 1;
nodes = (
(542,0,l),
(542,299,ls),
(542,437,o),
(482,516,o),
(376,516,cs),
(263,516,o),
(188,427,o),
(188,293,c),
(214,243,l),
(214,339,o),
(258,403,o),
(325,403,cs),
(377,403,o),
(407,363,o),
(407,293,cs),
(407,0,l)
);
},
{
closed = 1;
nodes = (
(214,0,l),
(214,700,l),
(79,700,l),
(79,0,l)
);
}
);
width = 610;
},
{
anchors = (
{
name = bottom;
pos = (268,0);
},
{
name = center;
pos = (268,483);
},
{
name = top;
pos = (108,700);
}
);
layerId = m007;
shapes = (
{
closed = 1;
nodes = (
(462,0,l),
(462,319,ls),
(462,439,o),
(398,516,o),
(300,516,cs),
(196,516,o),
(114,430,o),
(114,319,c),
(134,243,l),
(134,376,o),
(197,463,o),
(294,463,cs),
(367,463,o),
(407,413,o),
(407,319,cs),
(407,0,l)
);
},
{
closed = 1;
nodes = (
(134,0,l),
(134,700,l),
(79,700,l),
(79,0,l)
);
}
);
width = 530;
},
{
anchors = (
{
name = bottom;
pos = (182,0);
},
{
name = center;
pos = (276,483);
},
{
name = top;
pos = (155,700);
}
);
layerId = m004;
shapes = (
{
closed = 1;
nodes = (
(386,0,l),
(444,300,ls),
(469,428,o),
(410,516,o),
(301,516,cs),
(203,516,o),
(125,444,o),
(111,339,c),
(105,243,l),
(127,364,o),
(197,443,o),
(282,443,cs),
(353,443,o),
(386,388,o),
(369,300,cs),
(311,0,l)
);
},
{
closed = 1;
nodes = (
(58,0,l),
(194,700,l),
(119,700,l),
(-17,0,l)
);
}
);
width = 485;
},
{
anchors = (
{
name = bottom;
pos = (213,0);
},
{
name = center;
pos = (307,483);
},
{
name = top;
pos = (184,700);
}
);
layerId = m008;
shapes = (
{
closed = 1;
nodes = (
(446,0,l),
(508,319,ls),
(530,432,o),
(469,516,o),
(363,516,cs),
(257,516,o),
(175,431,o),
(149,293,c),
(165,243,l),
(184,343,o),
(234,403,o),
(299,403,cs),
(353,403,o),
(382,362,o),
(370,303,cs),
(311,0,l)
);
},
{
closed = 1;
nodes = (
(118,0,l),
(254,700,l),
(119,700,l),
(-17,0,l)
);
}
);
width = 543;
},
{
anchors = (
{
name = bottom;
pos = (172,0);
},
{
name = center;
pos = (266,483);
},
{
name = top;
pos = (150,700);
}
);
layerId = m006;
shapes = (
{
closed = 1;
nodes = (
(366,0,l),
(426,309,ls),
(449,429,o),
(391,516,o),
(285,516,cs),
(184,516,o),
(102,438,o),
(80,319,c),
(85,243,l),
(113,378,o),
(187,463,o),
(278,463,cs),
(354,463,o),
(389,404,o),
(371,309,cs),
(311,0,l)
);
},
{
closed = 1;
nodes = (
(38,0,l),
(174,700,l),
(119,700,l),
(-17,0,l)
);
}
);
width = 464;
}
);
metricLeft = m;
metricRight = m;
unicode = 104;
},
{
glyphname = hbar;
kernLeft = l;
kernRight = m;
layers = (
{
layerId = m01;
shapes = (
{
closed = 1;
nodes = (
(376,573,l),
(376,627,l),
(16,627,l),
(16,573,l)
);
},
{
pos = (36,0);
ref = h;
}
);
width = 587;
},
{
layerId = m005;
shapes = (
{
closed = 1;
nodes = (
(404,568,l),
(404,630,l),
(16,630,l),
(16,568,l)
);
},
{
pos = (46,0);
ref = h;
}
);
width = 656;
},
{
layerId = m007;
shapes = (
{
closed = 1;
nodes = (
(356,583,l),
(356,617,l),
(16,617,l),
(16,583,l)
);
},
{
pos = (26,0);
ref = h;
}
);
width = 556;
},
{
layerId = m004;
shapes = (
{
closed = 1;
nodes = (
(429,573,l),
(440,627,l),
(80,627,l),
(69,573,l)
);
},
{
pos = (26,0);
ref = h;
}
);
width = 511;
},
{
layerId = m008;
shapes = (
{
closed = 1;
nodes = (
(456,568,l),
(468,630,l),
(80,630,l),
(68,568,l)
);
},
{
pos = (36,0);
ref = h;
}
);
width = 579;
},
{
layerId = m006;
shapes = (
{
closed = 1;
nodes = (
(411,583,l),
(418,617,l),
(78,617,l),
(71,583,l)
);
},
{
pos = (16,0);
ref = h;
}
);
width = 480;
}
);
metricLeft = "=h*.2";
metricRight = h;
unicode = 295;
},
{
glyphname = idotless;
kernLeft = l;
kernRight = l;
layers = (
{
anchors = (
{
name = bottom;
pos = (114,0);
},
{
name = ogonek;
pos = (192,0);
},
{
name = top;
pos = (114,500);
}
);
layerId = m01;
shapes = (
{
closed = 1;
nodes = (
(151,0,l),
(151,500,l),
(76,500,l),
(76,0,l)
);
}
);
width = 227;
},
{
anchors = (
{
name = bottom;
pos = (144,0);
},
{
name = ogonek;
pos = (259,0);
},
{
name = top;
pos = (144,500);
}
);
layerId = m005;
shapes = (
{
closed = 1;
nodes = (
(211,0,l),
(211,500,l),
(76,500,l),
(76,0,l)
);
}
);
width = 287;
},
{
anchors = (
{
name = bottom;
pos = (104,0);
},
{
name = ogonek;
pos = (169,0);
},
{
name = top;
pos = (104,500);
}
);
layerId = m007;
shapes = (
{
closed = 1;
nodes = (
(131,0,l),
(131,500,l),
(76,500,l),
(76,0,l)
);
}
);
width = 207;
},
{
anchors = (
{
name = bottom;
pos = (18,0);
},
{
name = ogonek;
pos = (97,0);
},
{
name = top;
pos = (116,500);
}
);
layerId = m004;
shapes = (
{
closed = 1;
nodes = (
(56,0,l),
(153,500,l),
(78,500,l),
(-19,0,l)
);
}
);
width = 97;
},
{
anchors = (
{
name = bottom;
pos = (48,0);
},
{
name = ogonek;
pos = (164,0);
},
{
name = top;
pos = (146,500);
}
);
layerId = m008;
shapes = (
{
closed = 1;
nodes = (
(116,0,l),
(213,500,l),
(78,500,l),
(-19,0,l)
);
}
);
width = 157;
},
{
anchors = (
{
name = bottom;
pos = (8,0);
},
{
name = ogonek;
pos = (76,0);
},
{
name = top;
pos = (106,500);
}
);
layerId = m006;
shapes = (
{
closed = 1;
nodes = (
(36,0,l),
(133,500,l),
(78,500,l),
(-19,0,l)
);
}
);
width = 77;
}
);
metricLeft = "=l*.95";
metricRight = "=l*.95";
unicode = 305;
},
{
glyphname = ibreve;
kernLeft = l;
kernRight = l;
layers = (
{
anchors = (
{
name = top;
pos = (121,730);
}
);
layerId = m01;
shapes = (
{
pos = (8,0);
ref = idotless;
},
{
closed = 1;
nodes = (
(192,580,o),
(231,633,o),
(231,730,c),
(167,730,l),
(166,674,o),
(150,644,o),
(121,644,cs),
(92,644,o),
(76,674,o),
(75,730,c),
(11,730,l),
(11,633,o),
(50,580,o),
(121,580,cs)
);
}
);
width = 242;
},
{
anchors = (
{
name = top;
pos = (131,750);
}
);
layerId = m005;
shapes = (
{
pos = (2,0);
ref = idotless;
},
{
closed = 1;
nodes = (
(216,580,o),
(251,630,o),
(251,750,c),
(156,750,l),
(156,697,o),
(149,675,o),
(131,675,cs),
(113,675,o),
(106,697,o),
(106,750,c),
(11,750,l),
(11,630,o),
(46,580,o),
(131,580,cs)
);
}
);
width = 262;
},
{
anchors = (
{
name = top;
pos = (111,720);
}
);
layerId = m007;
shapes = (
{
pos = (1,0);
ref = idotless;
},
{
closed = 1;
nodes = (
(170,590,o),
(205,636,o),
(211,720,c),
(166,720,l),
(160,665,o),
(140,634,o),
(111,634,cs),
(82,634,o),
(62,665,o),
(56,720,c),
(11,720,l),
(17,636,o),
(52,590,o),
(111,590,cs)
);
}
);
width = 222;
},
{
anchors = (
{
name = top;
pos = (207,730);
}
);
layerId = m004;
shapes = (
{
ref = idotless;
},
{
closed = 1;
nodes = (
(255,580,o),
(298,631,o),
(317,730,c),
(253,730,l),
(242,672,o),
(224,644,o),
(198,644,cs),
(171,644,o),
(156,678,o),
(161,730,c),
(97,730,l),
(91,635,o),
(126,580,o),
(192,580,cs)
);
}
);
width = 223;
},
{
anchors = (
{
name = top;
pos = (221,750);
}
);
layerId = m008;
shapes = (
{
pos = (-6,0);
ref = idotless;
},
{
closed = 1;
nodes = (
(276,580,o),
(316,627,o),
(341,750,c),
(241,750,l),
(230,693,o),
(222,675,o),
(208,675,cs),
(194,675,o),
(190,693,o),
(191,750,c),
(101,750,l),
(78,633,o),
(107,580,o),
(194,580,cs)
);
}
);
width = 243;
},
{
anchors = (
{
name = top;
pos = (195,720);
}
);
layerId = m006;
shapes = (
{
pos = (-7,0);
ref = idotless;
},
{
closed = 1;
nodes = (
(232,590,o),
(274,635,o),
(295,720,c),
(245,720,l),
(234,665,o),
(210,634,o),
(179,634,cs),
(148,634,o),
(133,664,o),
(137,720,c),
(95,720,l),
(84,637,o),
(112,590,o),
(173,590,cs)
);
}
);
width = 203;
}
);
metricLeft = "=idotless*.15";
metricRight = "=idotless*.15";
unicode = 301;
},
{
glyphname = icircumflex;
kernLeft = l;
kernRight = l;
layers = (
{
layerId = m01;
shapes = (
{
closed = 1;
nodes = (
(67,580,l),
(111,690,l),
(155,580,l),
(218,580,l),
(168,730,l),
(54,730,l),
(4,580,l)
);
},
{
pos = (-2,0);
ref = idotless;
}
);
width = 222;
},
{
layerId = m005;
shapes = (
{
closed = 1;
nodes = (
(103,580,l),
(133,680,l),
(163,580,l),
(262,580,l),
(210,720,l),
(56,720,l),
(4,580,l)
);
},
{
pos = (4,0);
ref = idotless;
}
);
width = 266;
},
{
layerId = m007;
shapes = (
{
closed = 1;
nodes = (
(45,590,l),
(105,700,l),
(165,590,l),
(206,590,l),
(156,720,l),
(54,720,l),
(4,590,l)
);
},
{
pos = (-5,0);
ref = idotless;
}
);
width = 210;
},
{
layerId = m004;
shapes = (
{
closed = 1;
nodes = (
(128,580,l),
(194,690,l),
(216,580,l),
(279,580,l),
(258,730,l),
(144,730,l),
(65,580,l)
);
},
{
pos = (-3,0);
ref = idotless;
}
);
width = 215;
},
{
layerId = m008;
shapes = (
{
closed = 1;
nodes = (
(164,580,l),
(214,680,l),
(224,580,l),
(323,580,l),
(298,720,l),
(144,720,l),
(65,580,l)
);
},
{
pos = (-2,0);
ref = idotless;
}
);
width = 259;
},
{
layerId = m006;
shapes = (
{
closed = 1;
nodes = (
(108,590,l),
(189,700,l),
(228,590,l),
(269,590,l),
(244,720,l),
(142,720,l),
(67,590,l)
);
},
{
pos = (-3,0);
ref = idotless;
}
);
width = 203;
}
);
metricLeft = "=idotless*.05";
metricRight = "=idotless*.05";
unicode = 238;
},
{
glyphname = idieresis;
kernLeft = l;
kernRight = l;
layers = (
{
layerId = m01;
shapes = (
{
closed = 1;
nodes = (
(207,580,l),
(207,660,l),
(132,660,l),
(132,580,l)
);
},
{
ref = idotless;
},
{
closed = 1;
nodes = (
(94,580,l),
(94,660,l),
(19,660,l),
(19,580,l)
);
}
);
width = 226;
},
{
layerId = m005;
shapes = (
{
closed = 1;
nodes = (
(259,570,l),
(259,690,l),
(154,690,l),
(154,570,l)
);
},
{
pos = (10,0);
ref = idotless;
},
{
closed = 1;
nodes = (
(124,570,l),
(124,690,l),
(19,690,l),
(19,570,l)
);
}
);
width = 278;
},
{
layerId = m007;
shapes = (
{
closed = 1;
nodes = (
(197,590,l),
(197,650,l),
(137,650,l),
(137,590,l)
);
},
{
pos = (-2,0);
ref = idotless;
},
{
closed = 1;
nodes = (
(79,590,l),
(79,650,l),
(19,650,l),
(19,590,l)
);
}
);
width = 216;
},
{
layerId = m004;
shapes = (
{
closed = 1;
nodes = (
(259,580,l),
(275,660,l),
(200,660,l),
(184,580,l)
);
},
{
pos = (-12,0);
ref = idotless;
},
{
closed = 1;
nodes = (
(146,580,l),
(162,660,l),
(87,660,l),
(71,580,l)
);
}
);
width = 193;
},
{
layerId = m008;
shapes = (
{
closed = 1;
nodes = (
(309,570,l),
(333,690,l),
(228,690,l),
(204,570,l)
);
},
{
pos = (-8,0);
ref = idotless;
},
{
closed = 1;
nodes = (
(174,570,l),
(198,690,l),
(93,690,l),
(69,570,l)
);
}
);
width = 245;
},
{
layerId = m006;
shapes = (
{
closed = 1;
nodes = (
(251,590,l),
(263,650,l),
(203,650,l),
(191,590,l)
);
},
{
pos = (-14,0);
ref = idotless;
},
{
closed = 1;
nodes = (
(133,590,l),
(145,650,l),
(85,650,l),
(73,590,l)
);
}
);
width = 183;
}
);
metricLeft = "=idotless*.25";
metricRight = "=idotless*.25";
unicode = 239;
},
{
glyphname = imacron;
kernLeft = l;
kernRight = l;
layers = (
{
anchors = (
{
name = top;
pos = (116,643);
}
);
layerId = m01;
shapes = (
{
pos = (3,0);
ref = idotless;
},
{
closed = 1;
nodes = (
(217,580,l),
(217,643,l),
(15,643,l),
(15,580,l)
);
}
);
width = 232;
},
{
anchors = (
{
name = top;
pos = (131,673);
}
);
layerId = m005;
shapes = (
{
pos = (2,0);
ref = idotless;
},
{
closed = 1;
nodes = (
(247,570,l),
(247,673,l),
(15,673,l),
(15,570,l)
);
}
);
width = 262;
},
{
anchors = (
{
name = top;
pos = (106,633);
}
);
layerId = m007;
shapes = (
{
pos = (-4,0);
ref = idotless;
},
{
closed = 1;
nodes = (
(197,590,l),
(197,633,l),
(15,633,l),
(15,590,l)
);
}
);
width = 212;
},
{
anchors = (
{
name = top;
pos = (183,643);
}
);
layerId = m004;
shapes = (
{
pos = (-7,0);
ref = idotless;
},
{
closed = 1;
nodes = (
(272,580,l),
(284,643,l),
(82,643,l),
(70,580,l)
);
}
);
width = 206;
},
{
anchors = (
{
name = top;
pos = (204,673);
}
);
layerId = m008;
shapes = (
{
pos = (-8,0);
ref = idotless;
},
{
closed = 1;
nodes = (
(300,570,l),
(320,673,l),
(88,673,l),
(68,570,l)
);
}
);
width = 236;
},
{
anchors = (
{
name = top;
pos = (171,633);
}
);
layerId = m006;
shapes = (
{
pos = (-14,0);
ref = idotless;
},
{
closed = 1;
nodes = (
(254,590,l),
(262,633,l),
(80,633,l),
(72,590,l)
);
}
);
width = 186;
}
);
metricLeft = "=idotless*.2";
metricRight = "=idotless*.2";
unicode = 299;
},
{
glyphname = itilde;
kernLeft = l;
kernRight = l;
layers = (
{
anchors = (
{
name = top;
pos = (122,699);
}
);
layerId = m01;
shapes = (
{
pos = (9,0);
ref = idotless;
},
{
closed = 1;
nodes = (
(207,580,o),
(243,625,o),
(243,689,c),
(180,689,l),
(180,662,o),
(171,643,o),
(158,643,cs),
(137,643,o),
(142,699,o),
(87,699,cs),
(37,699,o),
(1,654,o),
(1,590,c),
(64,590,l),
(64,617,o),
(73,636,o),
(85,636,cs),
(106,636,o),
(102,580,o),
(157,580,cs)
);
}
);
width = 244;
},
{
anchors = (
{
name = top;
pos = (131,742);
}
);
layerId = m005;
shapes = (
{
pos = (2,0);
ref = idotless;
},
{
closed = 1;
nodes = (
(234,580,o),
(261,632,o),
(261,732,c),
(179,732,l),
(179,701,o),
(172,684,o),
(160,684,cs),
(137,684,o),
(140,742,o),
(83,742,cs),
(31,742,o),
(1,693,o),
(1,590,c),
(83,590,l),
(83,622,o),
(90,637,o),
(102,637,cs),
(126,637,o),
(125,580,o),
(181,580,cs)
);
}
);
width = 262;
},
{
anchors = (
{
name = top;
pos = (112,689);
}
);
layerId = m007;
shapes = (
{
pos = (2,0);
ref = idotless;
},
{
closed = 1;
nodes = (
(188,590,o),
(219,628,o),
(223,680,c),
(180,680,l),
(180,653,o),
(167,633,o),
(150,633,cs),
(121,633,o),
(126,689,o),
(76,689,cs),
(36,689,o),
(4,652,o),
(1,599,c),
(45,599,l),
(49,626,o),
(62,646,o),
(76,646,cs),
(100,646,o),
(99,590,o),
(148,590,cs)
);
}
);
width = 224;
},
{
anchors = (
{
name = top;
pos = (208,699);
}
);
layerId = m004;
shapes = (
{
pos = (-1,0);
ref = idotless;
},
{
closed = 1;
nodes = (
(282,580,o),
(314,617,o),
(327,689,c),
(264,689,l),
(259,662,o),
(246,643,o),
(233,643,cs),
(211,643,o),
(219,699,o),
(159,699,cs),
(107,699,o),
(80,657,o),
(66,590,c),
(129,590,l),
(134,618,o),
(147,636,o),
(159,636,cs),
(181,636,o),
(172,580,o),
(233,580,cs)
);
}
);
width = 242;
},
{
anchors = (
{
name = top;
pos = (235,742);
}
);
layerId = m008;
shapes = (
{
pos = (-1,0);
ref = idotless;
},
{
closed = 1;
nodes = (
(295,580,o),
(334,634,o),
(354,732,c),
(272,732,l),
(265,700,o),
(256,684,o),
(244,684,cs),
(222,684,o),
(230,742,o),
(176,742,cs),
(122,742,o),
(84,683,o),
(66,590,c),
(148,590,l),
(153,619,o),
(163,637,o),
(176,637,cs),
(199,637,o),
(192,580,o),
(244,580,cs)
);
}
);
width = 260;
},
{
anchors = (
{
name = top;
pos = (197,689);
}
);
layerId = m006;
shapes = (
{
pos = (-1,0);
ref = idotless;
},
{
closed = 1;
nodes = (
(261,590,o),
(288,619,o),
(306,680,c),
(263,680,l),
(257,652,o),
(241,633,o),
(223,633,cs),
(193,633,o),
(206,689,o),
(152,689,cs),
(110,689,o),
(81,654,o),
(68,599,c),
(112,599,l),
(122,628,o),
(138,646,o),
(152,646,cs),
(177,646,o),
(171,590,o),
(223,590,cs)
);
}
);
width = 222;
}
);
metricLeft = "=idotless*.01";
metricRight = "=idotless*.01";
unicode = 297;
},
{
glyphname = jdotless;
kernLeft = j;
kernRight = j;
layers = (
{
anchors = (
{
name = bottom;
pos = (113,-225);
},
{
name = top;
pos = (117,500);
}
);
layerId = m01;
shapes = (
{
closed = 1;
nodes = (
(15,-200,ls),
(109,-200,o),
(155,-154,o),
(155,-60,cs),
(155,500,l),
(80,500,l),
(80,-67,ls),
(80,-107,o),
(60,-127,o),
(20,-127,cs),
(-70,-127,l),
(-70,-200,l)
);
}
);
width = 234;
},
{
anchors = (
{
name = bottom;
pos = (129,-225);
},
{
name = top;
pos = (155,500);
}
);
layerId = m005;
shapes = (
{
closed = 1;
nodes = (
(45,-200,ls),
(159,-200,o),
(215,-147,o),
(215,-40,cs),
(215,500,l),
(80,500,l),
(80,-27,ls),
(80,-67,o),
(60,-87,o),
(20,-87,cs),
(-70,-87,l),
(-70,-200,l)
);
}
);
width = 295;
},
{
anchors = (
{
name = bottom;
pos = (110,-225);
},
{
name = top;
pos = (110,500);
}
);
layerId = m007;
shapes = (
{
closed = 1;
nodes = (
(5,-200,ls),
(92,-200,o),
(135,-157,o),
(135,-70,cs),
(135,500,l),
(80,500,l),
(80,-77,ls),
(80,-124,o),
(57,-147,o),
(10,-147,cs),
(-70,-147,l),
(-70,-200,l)
);
}
);
width = 214;
},
{
anchors = (
{
name = bottom;
pos = (-66,-225);
},
{
name = top;
pos = (82,500);
}
);
layerId = m004;
shapes = (
{
closed = 1;
nodes = (
(-140,-200,ls),
(-66,-200,o),
(-9,-145,o),
(8,-60,cs),
(117,500,l),
(42,500,l),
(-68,-67,ls),
(-75,-103,o),
(-103,-127,o),
(-140,-127,cs),
(-230,-127,l),
(-244,-200,l)
);
}
);
width = 99;
},
{
anchors = (
{
name = bottom;
pos = (-50,-225);
},
{
name = top;
pos = (111,500);
}
);
layerId = m008;
shapes = (
{
closed = 1;
nodes = (
(-122,-200,ls),
(-21,-200,o),
(51,-149,o),
(67,-67,cs),
(177,500,l),
(42,500,l),
(-60,-27,ls),
(-67,-64,o),
(-91,-87,o),
(-122,-87,cs),
(-222,-87,l),
(-244,-200,l)
);
}
);
width = 160;
},
{
anchors = (
{
name = bottom;
pos = (-69,-225);
},
{
name = top;
pos = (70,500);
}
);
layerId = m006;
shapes = (
{
closed = 1;
nodes = (
(-154,-200,ls),
(-84,-200,o),
(-29,-149,o),
(-14,-70,cs),
(97,500,l),
(42,500,l),
(-70,-77,ls),
(-78,-119,o),
(-111,-147,o),
(-154,-147,cs),
(-234,-147,l),
(-244,-200,l)
);
}
);
width = 79;
}
);
unicode = 567;
},
{
glyphname = k;
kernLeft = l;
kernRight = k;
layers = (
{
anchors = (
{
name = bottom;
pos = (262,0);
},
{
name = top;
pos = (262,965);
}
);
layerId = m01;
shapes = (
{
closed = 1;
nodes = (
(483,500,l),
(388,500,l),
(97,201,l),
(149,154,l)
);
},
{
closed = 1;
nodes = (
(154,0,l),
(154,700,l),
(79,700,l),
(79,0,l)
);
},
{
closed = 1;
nodes = (
(495,0,l),
(277,363,l),
(237,290,l),
(407,0,l)
);
}
);
width = 507;
},
{
anchors = (
{
name = bottom;
pos = (310,0);
},
{
name = top;
pos = (310,965);
}
);
layerId = m005;
shapes = (
{
closed = 1;
nodes = (
(580,500,l),
(402,500,l),
(116,240,l),
(202,146,l)
);
},
{
closed = 1;
nodes = (
(214,0,l),
(214,700,l),
(79,700,l),
(79,0,l)
);
},
{
closed = 1;
nodes = (
(578,0,l),
(350,362,l),
(241,290,l),
(418,0,l)
);
}
);
width = 591;
},
{
anchors = (
{
name = bottom;
pos = (246,0);
},
{
name = top;
pos = (246,965);
}
);
layerId = m007;
shapes = (
{
closed = 1;
nodes = (
(449,500,l),
(382,500,l),
(101,201,l),
(101,127,l)
);
},
{
closed = 1;
nodes = (
(134,0,l),
(134,700,l),
(79,700,l),
(79,0,l)
);
},
{
closed = 1;
nodes = (
(467,0,l),
(267,343,l),
(238,290,l),
(403,0,l)
);
}
);
width = 478;
},
{
anchors = (
{
name = bottom;
pos = (166,0);
},
{
name = top;
pos = (354,965);
}
);
layerId = m004;
shapes = (
{
closed = 1;
nodes = (
(484,500,l),
(384,500,l),
(35,201,l),
(83,154,l)
);
},
{
closed = 1;
nodes = (
(58,0,l),
(194,700,l),
(119,700,l),
(-17,0,l)
);
},
{
closed = 1;
nodes = (
(399,0,l),
(252,363,l),
(207,290,l),
(321,0,l)
);
}
);
width = 443;
},
{
anchors = (
{
name = bottom;
pos = (213,0);
},
{
name = top;
pos = (401,965);
}
);
layerId = m008;
shapes = (
{
closed = 1;
nodes = (
(581,500,l),
(398,500,l),
(62,240,l),
(134,146,l)
);
},
{
closed = 1;
nodes = (
(118,0,l),
(254,700,l),
(119,700,l),
(-17,0,l)
);
},
{
closed = 1;
nodes = (
(482,0,l),
(324,362,l),
(206,290,l),
(327,0,l)
);
}
);
width = 526;
},
{
anchors = (
{
name = bottom;
pos = (150,0);
},
{
name = top;
pos = (338,965);
}
);
layerId = m006;
shapes = (
{
closed = 1;
nodes = (
(450,500,l),
(377,500,l),
(38,201,l),
(30,127,l)
);
},
{
closed = 1;
nodes = (
(38,0,l),
(174,700,l),
(119,700,l),
(-17,0,l)
);
},
{
closed = 1;
nodes = (
(371,0,l),
(238,343,l),
(203,290,l),
(312,0,l)
);
}
);
width = 415;
}
);
metricLeft = h;
unicode = 107;
},
{
glyphname = l;
kernLeft = l;
kernRight = l;
layers = (
{
anchors = (
{
name = bottom;
pos = (118,0);
},
{
name = center;
pos = (118,483);
},
{
name = top;
pos = (118,700);
},
{
name = topright;
pos = (215,965);
}
);
layerId = m01;
shapes = (
{
closed = 1;
nodes = (
(155,0,l),
(155,710,l),
(80,710,l),
(80,0,l)
);
}
);
width = 235;
},
{
anchors = (
{
name = bottom;
pos = (148,0);
},
{
name = center;
pos = (148,483);
},
{
name = top;
pos = (148,700);
},
{
name = topright;
pos = (261,965);
}
);
layerId = m005;
shapes = (
{
closed = 1;
nodes = (
(215,0,l),
(215,710,l),
(80,710,l),
(80,0,l)
);
}
);
width = 295;
},
{
anchors = (
{
name = bottom;
pos = (108,0);
},
{
name = center;
pos = (108,483);
},
{
name = top;
pos = (108,700);
},
{
name = topright;
pos = (202,965);
}
);
layerId = m007;
shapes = (
{
closed = 1;
nodes = (
(135,0,l),
(135,710,l),
(80,710,l),
(80,0,l)
);
}
);
width = 215;
},
{
anchors = (
{
name = bottom;
pos = (20,0);
},
{
name = center;
pos = (114,483);
},
{
name = top;
pos = (156,700);
},
{
name = topright;
pos = (305,965);
}
);
layerId = m004;
shapes = (
{
closed = 1;
nodes = (
(57,0,l),
(195,710,l),
(120,710,l),
(-18,0,l)
);
}
);
width = 98;
},
{
anchors = (
{
name = bottom;
pos = (50,0);
},
{
name = center;
pos = (144,483);
},
{
name = top;
pos = (182,700);
},
{
name = topright;
pos = (351,965);
}
);
layerId = m008;
shapes = (
{
closed = 1;
nodes = (
(117,0,l),
(255,710,l),
(120,710,l),
(-18,0,l)
);
}
);
width = 158;
},
{
anchors = (
{
name = bottom;
pos = (10,0);
},
{
name = center;
pos = (104,483);
},
{
name = top;
pos = (144,700);
},
{
name = topright;
pos = (292,965);
}
);
layerId = m006;
shapes = (
{
closed = 1;
nodes = (
(37,0,l),
(175,710,l),
(120,710,l),
(-18,0,l)
);
}
);
width = 78;
}
);
unicode = 108;
},
{
glyphname = lslash;
kernLeft = l;
kernRight = l;
layers = (
{
layerId = m01;
shapes = (
{
closed = 1;
nodes = (
(216,385,l),
(216,445,l),
(16,325,l),
(16,265,l)
);
},
{
pos = (-1,0);
ref = l;
}
);
width = 232;
},
{
layerId = m005;
shapes = (
{
closed = 1;
nodes = (
(296,369,l),
(296,473,l),
(16,341,l),
(16,237,l)
);
},
{
pos = (23,0);
ref = l;
}
);
width = 312;
},
{
layerId = m007;
shapes = (
{
closed = 1;
nodes = (
(196,386,l),
(196,427,l),
(16,319,l),
(16,278,l)
);
},
{
pos = (-8,0);
ref = l;
}
);
width = 212;
},
{
layerId = m004;
shapes = (
{
closed = 1;
nodes = (
(233,385,l),
(244,445,l),
(21,325,l),
(9,265,l)
);
},
{
pos = (-11,0);
ref = l;
}
);
width = 205;
},
{
layerId = m008;
shapes = (
{
closed = 1;
nodes = (
(310,369,l),
(330,473,l),
(24,341,l),
(4,237,l)
);
},
{
pos = (14,0);
ref = l;
}
);
width = 285;
},
{
layerId = m006;
shapes = (
{
closed = 1;
nodes = (
(213,386,l),
(220,427,l),
(19,319,l),
(12,278,l)
);
},
{
pos = (-18,0);
ref = l;
}
);
width = 185;
}
);
metricLeft = "=l*.2";
metricRight = "=l*.2";
unicode = 322;
},
{
glyphname = m;
kernLeft = m;
kernRight = m;
layers = (
{
anchors = (
{
name = bottom;
pos = (432,0);
},
{
name = top;
pos = (432,500);
}
);
layerId = m01;
shapes = (
{
closed = 1;
nodes = (
(790,0,l),
(790,329,ls),
(790,443,o),
(727,516,o),
(629,516,cs),
(527,516,o),
(447,438,o),
(447,339,c),
(472,243,l),
(472,367,o),
(525,443,o),
(612,443,cs),
(677,443,o),
(715,400,o),
(715,329,cs),
(715,0,l)
);
},
{
closed = 1;
nodes = (
(154,0,l),
(154,500,l),
(79,500,l),
(79,0,l)
);
},
{
closed = 1;
nodes = (
(472,0,l),
(472,329,ls),
(472,442,o),
(408,516,o),
(311,516,cs),
(212,516,o),
(139,440,o),
(139,339,c),
(154,243,l),
(154,367,o),
(207,443,o),
(294,443,cs),
(359,443,o),
(397,400,o),
(397,329,cs),
(397,0,l)
);
}
);
width = 859;
},
{
anchors = (
{
name = bottom;
pos = (463,0);
},
{
name = top;
pos = (463,500);
}
);
layerId = m005;
shapes = (
{
closed = 1;
nodes = (
(850,0,l),
(850,299,ls),
(850,438,o),
(792,516,o),
(689,516,cs),
(577,516,o),
(496,423,o),
(496,293,c),
(532,243,l),
(532,340,o),
(574,403,o),
(638,403,cs),
(688,403,o),
(715,365,o),
(715,293,cs),
(715,0,l)
);
},
{
closed = 1;
nodes = (
(214,0,l),
(214,500,l),
(79,500,l),
(79,0,l)
);
},
{
closed = 1;
nodes = (
(532,0,l),
(532,299,ls),
(532,438,o),
(474,516,o),
(371,516,cs),
(261,516,o),
(188,427,o),
(188,293,c),
(214,243,l),
(214,340,o),
(256,403,o),
(320,403,cs),
(370,403,o),
(397,365,o),
(397,293,cs),
(397,0,l)
);
}
);
width = 918;
},
{
anchors = (
{
name = bottom;
pos = (422,0);
},
{
name = top;
pos = (422,500);
}
);
layerId = m007;
shapes = (
{
closed = 1;
nodes = (
(770,0,l),
(770,319,ls),
(770,436,o),
(704,516,o),
(607,516,cs),
(506,516,o),
(427,429,o),
(427,319,c),
(452,243,l),
(452,378,o),
(510,463,o),
(602,463,cs),
(674,463,o),
(715,411,o),
(715,319,cs),
(715,0,l)
);
},
{
closed = 1;
nodes = (
(134,0,l),
(134,500,l),
(79,500,l),
(79,0,l)
);
},
{
closed = 1;
nodes = (
(452,0,l),
(452,319,ls),
(452,436,o),
(386,516,o),
(290,516,cs),
(190,516,o),
(114,430,o),
(114,319,c),
(134,243,l),
(134,378,o),
(192,463,o),
(284,463,cs),
(356,463,o),
(397,411,o),
(397,319,cs),
(397,0,l)
);
}
);
width = 838;
},
{
anchors = (
{
name = bottom;
pos = (337,0);
},
{
name = top;
pos = (435,500);
}
);
layerId = m004;
shapes = (
{
closed = 1;
nodes = (
(695,0,l),
(753,300,ls),
(778,428,o),
(720,516,o),
(612,516,cs),
(512,516,o),
(431,442,o),
(420,339,c),
(424,243,l),
(446,363,o),
(517,443,o),
(600,443,cs),
(667,443,o),
(696,391,o),
(678,300,cs),
(620,0,l)
);
},
{
closed = 1;
nodes = (
(59,0,l),
(156,500,l),
(81,500,l),
(-16,0,l)
);
},
{
closed = 1;
nodes = (
(377,0,l),
(435,300,ls),
(460,427,o),
(403,516,o),
(298,516,cs),
(202,516,o),
(126,443,o),
(112,339,c),
(106,243,l),
(128,363,o),
(199,443,o),
(282,443,cs),
(349,443,o),
(378,391,o),
(360,300,cs),
(302,0,l)
);
}
);
width = 794;
},
{
anchors = (
{
name = bottom;
pos = (367,0);
},
{
name = top;
pos = (465,500);
}
);
layerId = m008;
shapes = (
{
closed = 1;
nodes = (
(755,0,l),
(817,319,ls),
(840,434,o),
(781,516,o),
(676,516,cs),
(566,516,o),
(475,427,o),
(448,293,c),
(484,243,l),
(506,349,o),
(548,403,o),
(609,403,cs),
(662,403,o),
(691,362,o),
(679,303,cs),
(620,0,l)
);
},
{
closed = 1;
nodes = (
(119,0,l),
(216,500,l),
(81,500,l),
(-16,0,l)
);
},
{
closed = 1;
nodes = (
(437,0,l),
(499,319,ls),
(521,434,o),
(464,516,o),
(362,516,cs),
(258,516,o),
(176,430,o),
(150,293,c),
(166,243,l),
(188,349,o),
(230,403,o),
(291,403,cs),
(344,403,o),
(373,362,o),
(361,303,cs),
(302,0,l)
);
}
);
width = 852;
},
{
anchors = (
{
name = bottom;
pos = (326,0);
},
{
name = top;
pos = (424,500);
}
);
layerId = m006;
shapes = (
{
closed = 1;
nodes = (
(675,0,l),
(735,309,ls),
(758,429,o),
(699,516,o),
(594,516,cs),
(493,516,o),
(408,437,o),
(384,319,c),
(404,243,l),
(430,379,o),
(500,463,o),
(589,463,cs),
(664,463,o),
(699,404,o),
(680,309,cs),
(620,0,l)
);
},
{
closed = 1;
nodes = (
(39,0,l),
(136,500,l),
(81,500,l),
(-16,0,l)
);
},
{
closed = 1;
nodes = (
(357,0,l),
(417,309,ls),
(440,430,o),
(382,516,o),
(279,516,cs),
(182,516,o),
(105,440,o),
(81,319,c),
(86,243,l),
(112,379,o),
(182,463,o),
(271,463,cs),
(346,463,o),
(381,404,o),
(362,309,cs),
(302,0,l)
);
}
);
width = 773;
}
);
unicode = 109;
},
{
glyphname = n;
kernLeft = m;
kernRight = m;
layers = (
{
anchors = (
{
name = bottom;
pos = (278,0);
},
{
name = top;
pos = (278,500);
}
);
layerId = m01;
shapes = (
{
closed = 1;
nodes = (
(482,0,l),
(482,329,ls),
(482,444,o),
(419,516,o),
(320,516,cs),
(218,516,o),
(139,439,o),
(139,339,c),
(154,243,l),
(154,364,o),
(214,443,o),
(304,443,cs),
(369,443,o),
(407,401,o),
(407,329,cs),
(407,0,l)
);
},
{
closed = 1;
nodes = (
(154,0,l),
(154,500,l),
(79,500,l),
(79,0,l)
);
}
);
width = 551;
},
{
anchors = (
{
name = bottom;
pos = (309,0);
},
{
name = top;
pos = (309,500);
}
);
layerId = m005;
shapes = (
{
closed = 1;
nodes = (
(542,0,l),
(542,299,ls),
(542,437,o),
(482,516,o),
(376,516,cs),
(263,516,o),
(188,427,o),
(188,293,c),
(214,243,l),
(214,339,o),
(258,403,o),
(325,403,cs),
(377,403,o),
(407,363,o),
(407,293,cs),
(407,0,l)
);
},
{
closed = 1;
nodes = (
(214,0,l),
(214,500,l),
(79,500,l),
(79,0,l)
);
}
);
width = 610;
},
{
anchors = (
{
name = bottom;
pos = (268,0);
},
{
name = top;
pos = (268,500);
}
);
layerId = m007;
shapes = (
{
closed = 1;
nodes = (
(462,0,l),
(462,319,ls),
(462,439,o),
(398,516,o),
(300,516,cs),
(196,516,o),
(114,430,o),
(114,319,c),
(134,243,l),
(134,376,o),
(197,463,o),
(294,463,cs),
(367,463,o),
(407,413,o),
(407,319,cs),
(407,0,l)
);
},
{
closed = 1;
nodes = (
(134,0,l),
(134,500,l),
(79,500,l),
(79,0,l)
);
}
);
width = 530;
},
{
anchors = (
{
name = bottom;
pos = (183,0);
},
{
name = top;
pos = (281,500);
}
);
layerId = m004;
shapes = (
{
closed = 1;
nodes = (
(387,0,l),
(445,300,ls),
(469,428,o),
(411,516,o),
(302,516,cs),
(204,516,o),
(126,444,o),
(112,339,c),
(106,243,l),
(128,364,o),
(198,443,o),
(283,443,cs),
(354,443,o),
(387,388,o),
(370,300,cs),
(312,0,l)
);
},
{
closed = 1;
nodes = (
(59,0,l),
(156,500,l),
(81,500,l),
(-16,0,l)
);
}
);
width = 486;
},
{
anchors = (
{
name = bottom;
pos = (213,0);
},
{
name = top;
pos = (311,500);
}
);
layerId = m008;
shapes = (
{
closed = 1;
nodes = (
(447,0,l),
(509,319,ls),
(531,432,o),
(470,516,o),
(364,516,cs),
(258,516,o),
(176,431,o),
(150,293,c),
(166,243,l),
(185,343,o),
(235,403,o),
(300,403,cs),
(354,403,o),
(383,362,o),
(371,303,cs),
(312,0,l)
);
},
{
closed = 1;
nodes = (
(119,0,l),
(216,500,l),
(81,500,l),
(-16,0,l)
);
}
);
width = 544;
},
{
anchors = (
{
name = bottom;
pos = (172,0);
},
{
name = top;
pos = (270,500);
}
);
layerId = m006;
shapes = (
{
closed = 1;
nodes = (
(367,0,l),
(427,309,ls),
(450,430,o),
(391,516,o),
(286,516,cs),
(185,516,o),
(103,437,o),
(81,319,c),
(86,243,l),
(114,378,o),
(188,463,o),
(279,463,cs),
(355,463,o),
(391,404,o),
(372,309,cs),
(312,0,l)
);
},
{
closed = 1;
nodes = (
(39,0,l),
(136,500,l),
(81,500,l),
(-16,0,l)
);
}
);
width = 465;
}
);
metricLeft = m;
metricRight = m;
unicode = 110;
},
{
glyphname = eng;
kernLeft = m;
kernRight = m;
layers = (
{
anchors = (
{
name = bottom;
pos = (277,0);
},
{
name = top;
pos = (277,500);
}
);
layerId = m01;
shapes = (
{
closed = 1;
nodes = (
(338,-200,ls),
(432,-200,o),
(478,-154,o),
(478,-60,cs),
(478,0,l),
(403,0,l),
(403,-67,ls),
(403,-107,o),
(383,-127,o),
(343,-127,cs),
(253,-127,l),
(253,-200,l)
);
},
{
ref = n;
}
);
width = 552;
},
{
anchors = (
{
name = bottom;
pos = (294,0);
},
{
name = top;
pos = (294,500);
}
);
layerId = m005;
shapes = (
{
closed = 1;
nodes = (
(353,-200,ls),
(467,-200,o),
(523,-147,o),
(523,-40,cs),
(523,0,l),
(388,0,l),
(388,-27,ls),
(388,-67,o),
(368,-87,o),
(328,-87,cs),
(238,-87,l),
(238,-200,l)
);
},
{
ref = n;
}
);
width = 602;
},
{
anchors = (
{
name = bottom;
pos = (271,0);
},
{
name = top;
pos = (271,500);
}
);
layerId = m007;
shapes = (
{
closed = 1;
nodes = (
(336,-200,ls),
(423,-200,o),
(466,-157,o),
(466,-70,cs),
(466,0,l),
(411,0,l),
(411,-77,ls),
(411,-124,o),
(388,-147,o),
(341,-147,cs),
(261,-147,l),
(261,-200,l)
);
},
{
ref = n;
}
);
width = 533;
},
{
anchors = (
{
name = bottom;
pos = (228,0);
},
{
name = top;
pos = (326,500);
}
);
layerId = m004;
shapes = (
{
closed = 1;
nodes = (
(270,-200,ls),
(339,-200,o),
(401,-141,o),
(418,-60,cs),
(430,0,l),
(355,0,l),
(342,-67,ls),
(334,-105,o),
(308,-127,o),
(270,-127,cs),
(180,-127,l),
(166,-200,l)
);
},
{
ref = n;
}
);
width = 497;
},
{
anchors = (
{
name = bottom;
pos = (245,0);
},
{
name = top;
pos = (343,500);
}
);
layerId = m008;
shapes = (
{
closed = 1;
nodes = (
(273,-200,ls),
(374,-200,o),
(447,-149,o),
(462,-67,cs),
(475,0,l),
(340,0,l),
(335,-27,ls),
(327,-64,o),
(304,-87,o),
(273,-87,cs),
(173,-87,l),
(151,-200,l)
);
},
{
ref = n;
}
);
width = 541;
},
{
anchors = (
{
name = bottom;
pos = (222,0);
},
{
name = top;
pos = (320,500);
}
);
layerId = m006;
shapes = (
{
closed = 1;
nodes = (
(264,-200,ls),
(334,-200,o),
(388,-150,o),
(404,-70,cs),
(418,0,l),
(363,0,l),
(348,-77,ls),
(340,-120,o),
(307,-147,o),
(264,-147,cs),
(184,-147,l),
(174,-200,l)
);
},
{
ref = n;
}
);
width = 487;
}
);
metricLeft = m;
metricRight = j;
unicode = 331;
},
{
glyphname = o;
kernLeft = o;
kernRight = o;
layers = (
{
anchors = (
{
name = bottom;
pos = (275,0);
},
{
name = center;
pos = (275,250);
},
{
name = ogonek;
pos = (499,10);
},
{
name = top;
pos = (275,500);
},
{
name = topright;
pos = (535,500);
}
);
layerId = m01;
shapes = (
{
closed = 1;
nodes = (
(414,-16,o),
(510,91,o),
(510,248,cs),
(510,406,o),
(413,516,o),
(275,516,cs),
(136,516,o),
(39,405,o),
(39,248,cs),
(39,92,o),
(135,-16,o),
(275,-16,cs)
);
},
{
closed = 1;
nodes = (
(180,57,o),
(117,133,o),
(117,248,cs),
(117,365,o),
(181,443,o),
(275,443,cs),
(369,443,o),
(433,365,o),
(433,248,cs),
(433,133,o),
(370,57,o),
(275,57,cs)
);
}
);
width = 549;
},
{
anchors = (
{
name = bottom;
pos = (297,0);
},
{
name = center;
pos = (297,250);
},
{
name = ogonek;
pos = (534,10);
},
{
name = top;
pos = (297,500);
},
{
name = topright;
pos = (573,500);
}
);
layerId = m005;
shapes = (
{
closed = 1;
nodes = (
(449,-16,o),
(557,95,o),
(557,250,cs),
(557,405,o),
(449,516,o),
(297,516,cs),
(145,516,o),
(36,405,o),
(36,250,cs),
(36,95,o),
(145,-16,o),
(297,-16,cs)
);
},
{
closed = 1;
nodes = (
(222,97,o),
(174,157,o),
(174,250,cs),
(174,343,o),
(222,403,o),
(297,403,cs),
(372,403,o),
(420,343,o),
(420,250,cs),
(420,157,o),
(372,97,o),
(297,97,cs)
);
}
);
width = 593;
},
{
anchors = (
{
name = bottom;
pos = (266,0);
},
{
name = center;
pos = (266,250);
},
{
name = ogonek;
pos = (487,10);
},
{
name = top;
pos = (266,500);
},
{
name = topright;
pos = (522,500);
}
);
layerId = m007;
shapes = (
{
closed = 1;
nodes = (
(400,-16,o),
(492,92,o),
(492,250,cs),
(492,408,o),
(400,516,o),
(266,516,cs),
(132,516,o),
(40,408,o),
(40,250,cs),
(40,92,o),
(132,-16,o),
(266,-16,cs)
);
},
{
closed = 1;
nodes = (
(165,37,o),
(98,122,o),
(98,250,cs),
(98,378,o),
(165,463,o),
(266,463,cs),
(367,463,o),
(434,378,o),
(434,250,cs),
(434,122,o),
(367,37,o),
(266,37,cs)
);
}
);
width = 532;
},
{
anchors = (
{
name = bottom;
pos = (225,0);
},
{
name = center;
pos = (274,250);
},
{
name = ogonek;
pos = (451,10);
},
{
name = top;
pos = (323,500);
},
{
name = topright;
pos = (583,500);
}
);
layerId = m004;
shapes = (
{
closed = 1;
nodes = (
(400,-16,o),
(507,108,o),
(507,276,cs),
(507,421,o),
(422,516,o),
(293,516,cs),
(149,516,o),
(41,391,o),
(41,224,cs),
(41,79,o),
(126,-16,o),
(255,-16,cs)
);
},
{
closed = 1;
nodes = (
(174,57,o),
(118,124,o),
(118,226,cs),
(118,351,o),
(191,443,o),
(290,443,cs),
(376,443,o),
(430,378,o),
(430,275,cs),
(430,149,o),
(358,57,o),
(259,57,cs)
);
}
);
width = 548;
},
{
anchors = (
{
name = bottom;
pos = (248,0);
},
{
name = center;
pos = (297,250);
},
{
name = ogonek;
pos = (486,10);
},
{
name = top;
pos = (346,500);
},
{
name = topright;
pos = (621,500);
}
);
layerId = m008;
shapes = (
{
closed = 1;
nodes = (
(433,-16,o),
(555,109,o),
(555,276,cs),
(555,420,o),
(461,516,o),
(320,516,cs),
(159,516,o),
(38,390,o),
(38,223,cs),
(38,79,o),
(131,-16,o),
(272,-16,cs)
);
},
{
closed = 1;
nodes = (
(216,97,o),
(175,146,o),
(175,225,cs),
(175,327,o),
(234,403,o),
(313,403,cs),
(379,403,o),
(418,356,o),
(418,275,cs),
(418,172,o),
(360,97,o),
(281,97,cs)
);
}
);
width = 593;
},
{
anchors = (
{
name = bottom;
pos = (217,0);
},
{
name = center;
pos = (266,250);
},
{
name = ogonek;
pos = (439,10);
},
{
name = top;
pos = (315,500);
},
{
name = topright;
pos = (570,500);
}
);
layerId = m006;
shapes = (
{
closed = 1;
nodes = (
(387,-16,o),
(488,106,o),
(488,275,cs),
(488,421,o),
(407,516,o),
(282,516,cs),
(144,516,o),
(42,392,o),
(42,223,cs),
(42,78,o),
(123,-16,o),
(247,-16,cs)
);
},
{
closed = 1;
nodes = (
(159,37,o),
(99,111,o),
(99,225,cs),
(99,363,o),
(175,463,o),
(279,463,cs),
(372,463,o),
(431,390,o),
(431,274,cs),
(431,136,o),
(356,37,o),
(251,37,cs)
);
}
);
width = 532;
}
);
unicode = 111;
},
{
glyphname = oslash;
kernLeft = o;
kernRight = o;
layers = (
{
anchors = (
{
name = top;
pos = (303,500);
}
);
layerId = m01;
shapes = (
{
closed = 1;
nodes = (
(105,-66,l),
(579,566,l),
(501,566,l),
(27,-66,l)
);
},
{
pos = (23,0);
ref = o;
}
);
width = 606;
},
{
anchors = (
{
name = top;
pos = (307,500);
}
);
layerId = m005;
shapes = (
{
closed = 1;
nodes = (
(124,-66,l),
(588,566,l),
(489,566,l),
(25,-66,l)
);
},
{
pos = (10,0);
ref = o;
}
);
width = 613;
},
{
anchors = (
{
name = top;
pos = (283,500);
}
);
layerId = m007;
shapes = (
{
closed = 1;
nodes = (
(80,-56,l),
(537,556,l),
(485,556,l),
(28,-56,l)
);
},
{
pos = (7,0);
ref = o;
}
);
width = 565;
},
{
anchors = (
{
name = top;
pos = (344,500);
}
);
layerId = m004;
shapes = (
{
closed = 1;
nodes = (
(48,-66,l),
(624,566,l),
(542,566,l),
(-34,-66,l)
);
},
{
pos = (15,0);
ref = o;
}
);
width = 590;
},
{
anchors = (
{
name = top;
pos = (350,500);
}
);
layerId = m008;
shapes = (
{
closed = 1;
nodes = (
(69,-66,l),
(636,566,l),
(532,566,l),
(-35,-66,l)
);
},
{
pos = (5,0);
ref = o;
}
);
width = 601;
},
{
anchors = (
{
name = top;
pos = (324,500);
}
);
layerId = m006;
shapes = (
{
closed = 1;
nodes = (
(24,-56,l),
(580,556,l),
(525,556,l),
(-31,-56,l)
);
},
{
pos = (1,0);
ref = o;
}
);
width = 550;
}
);
metricLeft = "=o*.7";
metricRight = "=o*.7";
unicode = 248;
},
{
glyphname = oe;
kernLeft = o;
kernRight = o;
layers = (
{
anchors = (
{
name = bottom;
pos = (465,0);
},
{
name = top;
pos = (465,500);
}
);
layerId = m01;
shapes = (
{
closed = 1;
nodes = (
(414,-16,o),
(510,91,o),
(510,248,cs),
(510,406,o),
(413,516,o),
(275,516,cs),
(136,516,o),
(39,405,o),
(39,248,cs),
(39,92,o),
(135,-16,o),
(275,-16,cs)
);
},
{
closed = 1;
nodes = (
(180,57,o),
(117,133,o),
(117,248,cs),
(117,365,o),
(181,443,o),
(275,443,cs),
(369,443,o),
(433,365,o),
(433,248,cs),
(433,133,o),
(370,57,o),
(275,57,cs)
);
},
{
closed = 1;
nodes = (
(784,-16,o),
(868,47,o),
(888,144,c),
(810,154,l),
(796,95,o),
(744,57,o),
(675,57,cs),
(582,57,o),
(518,127,o),
(518,230,c),
(891,230,l),
(891,248,ls),
(891,408,o),
(801,516,o),
(667,516,cs),
(533,516,o),
(440,407,o),
(440,251,cs),
(440,92,o),
(536,-16,o),
(676,-16,cs)
);
},
{
closed = 1;
nodes = (
(518,384,o),
(578,443,o),
(665,443,cs),
(752,443,o),
(813,384,o),
(813,298,c),
(518,298,l)
);
}
);
width = 930;
},
{
anchors = (
{
name = bottom;
pos = (483,0);
},
{
name = top;
pos = (483,500);
}
);
layerId = m005;
shapes = (
{
closed = 1;
nodes = (
(449,-16,o),
(557,95,o),
(557,250,cs),
(557,405,o),
(449,516,o),
(297,516,cs),
(145,516,o),
(36,405,o),
(36,250,cs),
(36,95,o),
(145,-16,o),
(297,-16,cs)
);
},
{
closed = 1;
nodes = (
(222,97,o),
(174,157,o),
(174,250,cs),
(174,343,o),
(222,403,o),
(297,403,cs),
(372,403,o),
(420,343,o),
(420,250,cs),
(420,157,o),
(372,97,o),
(297,97,cs)
);
},
{
closed = 1;
nodes = (
(824,-16,o),
(915,49,o),
(930,147,c),
(794,157,l),
(779,119,o),
(741,97,o),
(691,97,cs),
(618,97,o),
(568,143,o),
(568,210,c),
(930,210,l),
(930,248,ls),
(930,406,o),
(827,516,o),
(680,516,cs),
(534,516,o),
(429,406,o),
(429,251,cs),
(429,91,o),
(538,-16,o),
(699,-16,cs)
);
},
{
closed = 1;
nodes = (
(568,364,o),
(614,403,o),
(680,403,cs),
(746,403,o),
(791,365,o),
(791,308,c),
(568,308,l)
);
}
);
width = 966;
},
{
anchors = (
{
name = bottom;
pos = (457,0);
},
{
name = top;
pos = (457,500);
}
);
layerId = m007;
shapes = (
{
closed = 1;
nodes = (
(400,-16,o),
(492,92,o),
(492,250,cs),
(492,408,o),
(400,516,o),
(266,516,cs),
(132,516,o),
(40,408,o),
(40,250,cs),
(40,92,o),
(132,-16,o),
(266,-16,cs)
);
},
{
closed = 1;
nodes = (
(165,37,o),
(98,122,o),
(98,250,cs),
(98,378,o),
(165,463,o),
(266,463,cs),
(367,463,o),
(434,378,o),
(434,250,cs),
(434,122,o),
(367,37,o),
(266,37,cs)
);
},
{
closed = 1;
nodes = (
(766,-16,o),
(844,43,o),
(868,135,c),
(809,143,l),
(790,78,o),
(735,37,o),
(666,37,cs),
(567,37,o),
(500,119,o),
(500,240,c),
(873,240,l),
(873,248,ls),
(873,411,o),
(791,516,o),
(663,516,cs),
(533,516,o),
(442,407,o),
(442,249,cs),
(442,91,o),
(532,-16,o),
(666,-16,cs)
);
},
{
closed = 1;
nodes = (
(500,390,o),
(567,463,o),
(662,463,cs),
(754,463,o),
(815,394,o),
(815,288,c),
(500,288,l)
);
}
);
width = 913;
},
{
anchors = (
{
name = bottom;
pos = (418,0);
},
{
name = top;
pos = (516,500);
}
);
layerId = m004;
shapes = (
{
closed = 1;
nodes = (
(400,-16,o),
(507,108,o),
(507,276,cs),
(507,421,o),
(422,516,o),
(293,516,cs),
(149,516,o),
(41,391,o),
(41,224,cs),
(41,79,o),
(126,-16,o),
(255,-16,cs)
);
},
{
closed = 1;
nodes = (
(174,57,o),
(118,124,o),
(118,226,cs),
(118,351,o),
(191,443,o),
(290,443,cs),
(376,443,o),
(430,378,o),
(430,275,cs),
(430,149,o),
(358,57,o),
(259,57,cs)
);
},
{
closed = 1;
nodes = (
(751,-16,o),
(831,42,o),
(871,144,c),
(795,154,l),
(766,93,o),
(711,57,o),
(649,57,cs),
(561,57,o),
(506,129,o),
(518,230,c),
(891,230,l),
(897,265,ls),
(922,408,o),
(839,516,o),
(704,516,cs),
(555,516,o),
(439,385,o),
(439,216,cs),
(439,74,o),
(521,-16,o),
(649,-16,cs)
);
},
{
closed = 1;
nodes = (
(549,386,o),
(614,443,o),
(698,443,cs),
(787,443,o),
(843,380,o),
(826,298,c),
(531,298,l)
);
}
);
width = 934;
},
{
anchors = (
{
name = bottom;
pos = (433,0);
},
{
name = top;
pos = (531,500);
}
);
layerId = m008;
shapes = (
{
closed = 1;
nodes = (
(433,-16,o),
(555,109,o),
(555,276,cs),
(555,420,o),
(461,516,o),
(320,516,cs),
(159,516,o),
(38,390,o),
(38,223,cs),
(38,79,o),
(131,-16,o),
(272,-16,cs)
);
},
{
closed = 1;
nodes = (
(216,97,o),
(175,146,o),
(175,225,cs),
(175,327,o),
(234,403,o),
(313,403,cs),
(379,403,o),
(418,356,o),
(418,275,cs),
(418,172,o),
(360,97,o),
(281,97,cs)
);
},
{
closed = 1;
nodes = (
(777,-16,o),
(871,47,o),
(906,147,c),
(771,157,l),
(749,119,o),
(707,97,o),
(659,97,cs),
(588,97,o),
(544,146,o),
(556,210,c),
(918,210,l),
(925,248,ls),
(953,399,o),
(857,516,o),
(705,516,cs),
(548,516,o),
(430,392,o),
(430,226,cs),
(430,79,o),
(522,-16,o),
(663,-16,cs)
);
},
{
closed = 1;
nodes = (
(585,366,o),
(634,403,o),
(699,403,cs),
(767,403,o),
(809,363,o),
(798,308,c),
(575,308,l)
);
}
);
width = 963;
},
{
anchors = (
{
name = bottom;
pos = (408,0);
},
{
name = top;
pos = (506,500);
}
);
layerId = m006;
shapes = (
{
closed = 1;
nodes = (
(387,-16,o),
(488,106,o),
(488,275,cs),
(488,421,o),
(407,516,o),
(282,516,cs),
(144,516,o),
(42,392,o),
(42,223,cs),
(42,78,o),
(123,-16,o),
(247,-16,cs)
);
},
{
closed = 1;
nodes = (
(159,37,o),
(99,111,o),
(99,225,cs),
(99,363,o),
(175,463,o),
(279,463,cs),
(372,463,o),
(431,390,o),
(431,274,cs),
(431,136,o),
(356,37,o),
(251,37,cs)
);
},
{
closed = 1;
nodes = (
(729,-16,o),
(798,34,o),
(845,135,c),
(788,145,l),
(752,73,o),
(703,37,o),
(642,37,cs),
(546,37,o),
(484,124,o),
(498,240,c),
(871,240,l),
(872,248,ls),
(892,408,o),
(816,516,o),
(685,516,cs),
(545,516,o),
(443,393,o),
(443,223,cs),
(443,77,o),
(519,-16,o),
(640,-16,cs)
);
},
{
closed = 1;
nodes = (
(528,396,o),
(596,463,o),
(683,463,cs),
(773,463,o),
(831,391,o),
(822,288,c),
(507,288,l)
);
}
);
width = 914;
}
);
metricLeft = o;
metricRight = e;
unicode = 339;
},
{
glyphname = p;
kernLeft = p;
kernRight = o;
layers = (
{
anchors = (
{
name = bottom;
pos = (294,0);
},
{
name = top;
pos = (294,500);
}
);
layerId = m01;
shapes = (
{
closed = 1;
nodes = (
(453,-16,o),
(542,94,o),
(542,250,cs),
(542,406,o),
(453,516,o),
(325,516,cs),
(219,516,o),
(146,441,o),
(146,330,cs),
(146,170,ls),
(146,59,o),
(219,-16,o),
(325,-16,cs)
);
},
{
closed = 1;
nodes = (
(155,-200,l),
(155,500,l),
(80,500,l),
(80,-200,l)
);
},
{
closed = 1;
nodes = (
(218,57,o),
(156,135,o),
(156,250,cs),
(156,365,o),
(218,443,o),
(310,443,cs),
(402,443,o),
(464,365,o),
(464,250,cs),
(464,135,o),
(402,57,o),
(310,57,cs)
);
}
);
width = 581;
},
{
anchors = (
{
name = bottom;
pos = (326,0);
},
{
name = top;
pos = (326,500);
}
);
layerId = m005;
shapes = (
{
closed = 1;
nodes = (
(512,-16,o),
(602,94,o),
(602,250,cs),
(602,406,o),
(512,516,o),
(384,516,cs),
(268,516,o),
(191,426,o),
(191,290,cs),
(191,210,ls),
(191,74,o),
(268,-16,o),
(384,-16,cs)
);
},
{
closed = 1;
nodes = (
(215,-200,l),
(215,500,l),
(80,500,l),
(80,-200,l)
);
},
{
closed = 1;
nodes = (
(266,97,o),
(216,158,o),
(216,250,cs),
(216,342,o),
(266,403,o),
(340,403,cs),
(414,403,o),
(464,342,o),
(464,250,cs),
(464,158,o),
(414,97,o),
(340,97,cs)
);
}
);
width = 638;
},
{
anchors = (
{
name = bottom;
pos = (283,0);
},
{
name = top;
pos = (283,500);
}
);
layerId = m007;
shapes = (
{
closed = 1;
nodes = (
(437,-16,o),
(522,91,o),
(522,250,cs),
(522,409,o),
(437,516,o),
(312,516,cs),
(204,516,o),
(126,438,o),
(126,330,cs),
(126,170,ls),
(126,63,o),
(205,-16,o),
(312,-16,cs)
);
},
{
closed = 1;
nodes = (
(135,-200,l),
(135,500,l),
(80,500,l),
(80,-200,l)
);
},
{
closed = 1;
nodes = (
(202,37,o),
(136,122,o),
(136,250,cs),
(136,378,o),
(202,463,o),
(300,463,cs),
(398,463,o),
(464,378,o),
(464,250,cs),
(464,122,o),
(398,37,o),
(300,37,cs)
);
}
);
width = 562;
},
{
anchors = (
{
name = bottom;
pos = (198,0);
},
{
name = top;
pos = (296,500);
}
);
layerId = m004;
shapes = (
{
closed = 1;
nodes = (
(385,-16,o),
(496,115,o),
(496,282,cs),
(496,421,o),
(416,516,o),
(299,516,cs),
(199,516,o),
(132,448,o),
(109,323,cs),
(84,193,ls),
(61,72,o),
(128,-16,o),
(244,-16,cs)
);
},
{
closed = 1;
nodes = (
(19,-200,l),
(155,500,l),
(80,500,l),
(-56,-200,l)
);
},
{
closed = 1;
nodes = (
(141,57,o),
(87,149,o),
(112,275,cs),
(133,380,o),
(196,443,o),
(280,443,cs),
(365,443,o),
(418,379,o),
(418,276,cs),
(418,152,o),
(341,57,o),
(240,57,cs)
);
}
);
width = 536;
},
{
anchors = (
{
name = bottom;
pos = (228,0);
},
{
name = top;
pos = (326,500);
}
);
layerId = m008;
shapes = (
{
closed = 1;
nodes = (
(448,-16,o),
(550,109,o),
(550,281,cs),
(550,424,o),
(479,516,o),
(367,516,cs),
(259,516,o),
(176,430,o),
(149,290,cs),
(134,210,ls),
(109,81,o),
(183,-16,o),
(307,-16,cs)
);
},
{
closed = 1;
nodes = (
(79,-200,l),
(215,500,l),
(80,500,l),
(-56,-200,l)
);
},
{
closed = 1;
nodes = (
(191,97,o),
(150,164,o),
(169,259,cs),
(187,346,o),
(243,403,o),
(311,403,cs),
(374,403,o),
(414,353,o),
(414,272,cs),
(414,171,o),
(353,97,o),
(270,97,cs)
);
}
);
width = 589;
},
{
anchors = (
{
name = bottom;
pos = (185,0);
},
{
name = top;
pos = (283,500);
}
);
layerId = m006;
shapes = (
{
closed = 1;
nodes = (
(371,-16,o),
(475,116,o),
(475,295,cs),
(475,434,o),
(408,516,o),
(294,516,cs),
(189,516,o),
(114,445,o),
(88,321,cs),
(68,226,ls),
(38,86,o),
(107,-16,o),
(231,-16,cs)
);
},
{
closed = 1;
nodes = (
(-1,-200,l),
(135,500,l),
(80,500,l),
(-56,-200,l)
);
},
{
closed = 1;
nodes = (
(120,37,o),
(63,132,o),
(89,264,cs),
(113,385,o),
(190,463,o),
(284,463,cs),
(371,463,o),
(418,402,o),
(418,289,cs),
(418,141,o),
(339,37,o),
(227,37,cs)
);
}
);
width = 515;
}
);
metricLeft = b;
metricRight = o;
unicode = 112;
},
{
glyphname = thorn;
kernLeft = l;
kernRight = o;
layers = (
{
anchors = (
{
name = bottom;
pos = (295,0);
},
{
name = top;
pos = (295,500);
}
);
layerId = m01;
shapes = (
{
closed = 1;
nodes = (
(452,-16,o),
(541,94,o),
(541,250,cs),
(541,406,o),
(452,516,o),
(324,516,cs),
(218,516,o),
(145,441,o),
(145,330,cs),
(145,170,ls),
(145,59,o),
(218,-16,o),
(324,-16,cs)
);
},
{
closed = 1;
nodes = (
(154,-200,l),
(154,700,l),
(79,700,l),
(79,-200,l)
);
},
{
closed = 1;
nodes = (
(217,57,o),
(155,135,o),
(155,250,cs),
(155,365,o),
(217,443,o),
(309,443,cs),
(401,443,o),
(463,365,o),
(463,250,cs),
(463,135,o),
(401,57,o),
(309,57,cs)
);
}
);
width = 580;
},
{
anchors = (
{
name = bottom;
pos = (328,0);
},
{
name = top;
pos = (328,500);
}
);
layerId = m005;
shapes = (
{
closed = 1;
nodes = (
(511,-16,o),
(601,94,o),
(601,250,cs),
(601,406,o),
(511,516,o),
(383,516,cs),
(267,516,o),
(190,426,o),
(190,290,cs),
(190,210,ls),
(190,74,o),
(267,-16,o),
(383,-16,cs)
);
},
{
closed = 1;
nodes = (
(214,-200,l),
(214,700,l),
(79,700,l),
(79,-200,l)
);
},
{
closed = 1;
nodes = (
(265,97,o),
(215,158,o),
(215,250,cs),
(215,342,o),
(265,403,o),
(339,403,cs),
(413,403,o),
(463,342,o),
(463,250,cs),
(463,158,o),
(413,97,o),
(339,97,cs)
);
}
);
width = 637;
},
{
anchors = (
{
name = bottom;
pos = (284,0);
},
{
name = top;
pos = (284,500);
}
);
layerId = m007;
shapes = (
{
closed = 1;
nodes = (
(436,-16,o),
(521,91,o),
(521,250,cs),
(521,409,o),
(436,516,o),
(311,516,cs),
(203,516,o),
(125,438,o),
(125,330,cs),
(125,170,ls),
(125,63,o),
(204,-16,o),
(311,-16,cs)
);
},
{
closed = 1;
nodes = (
(134,-200,l),
(134,700,l),
(79,700,l),
(79,-200,l)
);
},
{
closed = 1;
nodes = (
(201,37,o),
(135,122,o),
(135,250,cs),
(135,378,o),
(201,463,o),
(299,463,cs),
(397,463,o),
(463,378,o),
(463,250,cs),
(463,122,o),
(397,37,o),
(299,37,cs)
);
}
);
width = 561;
},
{
anchors = (
{
name = bottom;
pos = (202,0);
},
{
name = top;
pos = (300,500);
}
);
layerId = m004;
shapes = (
{
closed = 1;
nodes = (
(388,-16,o),
(499,115,o),
(499,282,cs),
(499,421,o),
(419,516,o),
(302,516,cs),
(202,516,o),
(135,448,o),
(112,323,cs),
(87,193,ls),
(64,72,o),
(131,-16,o),
(247,-16,cs)
);
},
{
closed = 1;
nodes = (
(20,-200,l),
(195,700,l),
(120,700,l),
(-55,-200,l)
);
},
{
closed = 1;
nodes = (
(144,57,o),
(90,149,o),
(115,275,cs),
(136,380,o),
(199,443,o),
(283,443,cs),
(368,443,o),
(421,379,o),
(421,276,cs),
(421,152,o),
(344,57,o),
(243,57,cs)
);
}
);
width = 539;
},
{
anchors = (
{
name = bottom;
pos = (232,0);
},
{
name = top;
pos = (330,500);
}
);
layerId = m008;
shapes = (
{
closed = 1;
nodes = (
(450,-16,o),
(552,109,o),
(552,281,cs),
(552,424,o),
(481,516,o),
(369,516,cs),
(261,516,o),
(178,430,o),
(151,290,cs),
(136,210,ls),
(111,81,o),
(185,-16,o),
(309,-16,cs)
);
},
{
closed = 1;
nodes = (
(80,-200,l),
(255,700,l),
(120,700,l),
(-55,-200,l)
);
},
{
closed = 1;
nodes = (
(193,97,o),
(152,164,o),
(171,259,cs),
(189,346,o),
(245,403,o),
(313,403,cs),
(376,403,o),
(416,353,o),
(416,272,cs),
(416,171,o),
(355,97,o),
(272,97,cs)
);
}
);
width = 591;
},
{
anchors = (
{
name = bottom;
pos = (190,0);
},
{
name = top;
pos = (288,500);
}
);
layerId = m006;
shapes = (
{
closed = 1;
nodes = (
(376,-16,o),
(480,116,o),
(480,295,cs),
(480,434,o),
(413,516,o),
(299,516,cs),
(194,516,o),
(119,445,o),
(93,321,cs),
(73,226,ls),
(43,86,o),
(112,-16,o),
(236,-16,cs)
);
},
{
closed = 1;
nodes = (
(0,-200,l),
(175,700,l),
(120,700,l),
(-55,-200,l)
);
},
{
closed = 1;
nodes = (
(125,37,o),
(68,132,o),
(94,264,cs),
(118,385,o),
(195,463,o),
(289,463,cs),
(376,463,o),
(423,402,o),
(423,289,cs),
(423,141,o),
(344,37,o),
(232,37,cs)
);
}
);
width = 520;
}
);
metricLeft = h;
metricRight = b;
unicode = 254;
},
{
glyphname = q;
kernLeft = o;
kernRight = q;
layers = (
{
anchors = (
{
name = bottom;
pos = (288,0);
},
{
name = top;
pos = (288,500);
}
);
layerId = m01;
shapes = (
{
closed = 1;
nodes = (
(361,-16,o),
(435,60,o),
(435,170,cs),
(435,330,ls),
(435,441,o),
(362,516,o),
(256,516,cs),
(128,516,o),
(39,406,o),
(39,250,cs),
(39,93,o),
(128,-16,o),
(255,-16,cs)
);
},
{
closed = 1;
nodes = (
(179,57,o),
(117,135,o),
(117,250,cs),
(117,365,o),
(179,443,o),
(271,443,cs),
(363,443,o),
(425,365,o),
(425,250,cs),
(425,135,o),
(363,57,o),
(271,57,cs)
);
},
{
closed = 1;
nodes = (
(501,-200,l),
(501,500,l),
(426,500,l),
(426,-200,l)
);
}
);
width = 581;
},
{
anchors = (
{
name = bottom;
pos = (312,0);
},
{
name = top;
pos = (312,500);
}
);
layerId = m005;
shapes = (
{
closed = 1;
nodes = (
(370,-16,o),
(447,74,o),
(447,210,cs),
(447,290,ls),
(447,425,o),
(368,516,o),
(252,516,cs),
(124,516,o),
(36,408,o),
(36,251,cs),
(36,94,o),
(126,-16,o),
(254,-16,cs)
);
},
{
closed = 1;
nodes = (
(224,97,o),
(174,158,o),
(174,250,cs),
(174,342,o),
(224,403,o),
(298,403,cs),
(372,403,o),
(422,342,o),
(422,250,cs),
(422,158,o),
(372,97,o),
(298,97,cs)
);
},
{
closed = 1;
nodes = (
(558,-200,l),
(558,500,l),
(423,500,l),
(423,-200,l)
);
}
);
width = 638;
},
{
anchors = (
{
name = bottom;
pos = (280,0);
},
{
name = top;
pos = (280,500);
}
);
layerId = m007;
shapes = (
{
closed = 1;
nodes = (
(358,-16,o),
(436,62,o),
(436,170,cs),
(436,330,ls),
(436,438,o),
(358,516,o),
(250,516,cs),
(125,516,o),
(40,409,o),
(40,250,cs),
(40,91,o),
(124,-16,o),
(250,-16,cs)
);
},
{
closed = 1;
nodes = (
(164,37,o),
(98,122,o),
(98,250,cs),
(98,378,o),
(164,463,o),
(262,463,cs),
(360,463,o),
(426,378,o),
(426,250,cs),
(426,122,o),
(360,37,o),
(262,37,cs)
);
},
{
closed = 1;
nodes = (
(482,-200,l),
(482,500,l),
(427,500,l),
(427,-200,l)
);
}
);
width = 562;
},
{
anchors = (
{
name = bottom;
pos = (240,0);
},
{
name = top;
pos = (338,500);
}
);
layerId = m004;
shapes = (
{
closed = 1;
nodes = (
(337,-16,o),
(405,53,o),
(428,177,cs),
(453,307,ls),
(477,429,o),
(411,516,o),
(293,516,cs),
(151,516,o),
(40,386,o),
(40,220,cs),
(40,80,o),
(121,-16,o),
(238,-16,cs)
);
},
{
closed = 1;
nodes = (
(174,57,o),
(118,123,o),
(118,225,cs),
(118,348,o),
(197,443,o),
(299,443,cs),
(399,443,o),
(451,353,o),
(425,226,cs),
(404,119,o),
(343,57,o),
(259,57,cs)
);
},
{
closed = 1;
nodes = (
(417,-200,l),
(553,500,l),
(478,500,l),
(342,-200,l)
);
}
);
width = 496;
},
{
anchors = (
{
name = bottom;
pos = (263,0);
},
{
name = top;
pos = (361,500);
}
);
layerId = m008;
shapes = (
{
closed = 1;
nodes = (
(326,-16,o),
(412,72,o),
(438,210,cs),
(453,290,ls),
(478,422,o),
(410,516,o),
(289,516,cs),
(146,516,o),
(37,385,o),
(37,213,cs),
(37,74,o),
(108,-16,o),
(218,-16,cs)
);
},
{
closed = 1;
nodes = (
(210,97,o),
(173,145,o),
(173,225,cs),
(173,328,o),
(234,403,o),
(319,403,cs),
(397,403,o),
(438,339,o),
(420,246,cs),
(402,158,o),
(341,97,o),
(271,97,cs)
);
},
{
closed = 1;
nodes = (
(470,-200,l),
(606,500,l),
(471,500,l),
(335,-200,l)
);
}
);
width = 549;
},
{
anchors = (
{
name = bottom;
pos = (233,0);
},
{
name = top;
pos = (331,500);
}
);
layerId = m006;
shapes = (
{
closed = 1;
nodes = (
(327,-16,o),
(402,56,o),
(428,179,cs),
(448,274,ls),
(478,413,o),
(407,516,o),
(282,516,cs),
(144,516,o),
(41,388,o),
(41,216,cs),
(41,74,o),
(113,-16,o),
(226,-16,cs)
);
},
{
closed = 1;
nodes = (
(150,37,o),
(98,106,o),
(98,220,cs),
(98,362,o),
(176,463,o),
(286,463,cs),
(394,463,o),
(453,365,o),
(426,231,cs),
(403,113,o),
(328,37,o),
(237,37,cs)
);
},
{
closed = 1;
nodes = (
(399,-200,l),
(535,500,l),
(480,500,l),
(344,-200,l)
);
}
);
width = 478;
}
);
metricLeft = o;
metricRight = l;
unicode = 113;
},
{
glyphname = r;
kernLeft = m;
kernRight = r;
layers = (
{
anchors = (
{
name = bottom;
pos = (113,0);
},
{
name = top;
pos = (191,500);
}
);
layerId = m01;
shapes = (
{
closed = 1;
nodes = (
(154,0,l),
(154,228,ls),
(154,359,o),
(195,427,o),
(275,427,cs),
(357,427,l),
(357,500,l),
(265,500,ls),
(191,500,o),
(146,415,o),
(146,275,c),
(154,335,l),
(154,500,l),
(79,500,l),
(79,0,l)
);
}
);
width = 364;
},
{
anchors = (
{
name = bottom;
pos = (147,0);
},
{
name = top;
pos = (226,500);
}
);
layerId = m005;
shapes = (
{
closed = 1;
nodes = (
(214,0,l),
(214,208,ls),
(214,340,o),
(246,387,o),
(335,387,cs),
(417,387,l),
(417,500,l),
(325,500,ls),
(242,500,o),
(196,409,o),
(196,245,c),
(214,314,l),
(214,500,l),
(79,500,l),
(79,0,l)
);
}
);
width = 431;
},
{
anchors = (
{
name = bottom;
pos = (103,0);
},
{
name = top;
pos = (178,500);
}
);
layerId = m007;
shapes = (
{
closed = 1;
nodes = (
(134,0,l),
(134,238,ls),
(134,374,o),
(180,447,o),
(265,447,cs),
(337,447,l),
(337,500,l),
(255,500,ls),
(180,500,o),
(126,410,o),
(126,285,c),
(134,346,l),
(134,500,l),
(79,500,l),
(79,0,l)
);
}
);
width = 340;
},
{
anchors = (
{
name = bottom;
pos = (20,0);
},
{
name = top;
pos = (193,500);
}
);
layerId = m004;
shapes = (
{
closed = 1;
nodes = (
(59,0,l),
(103,228,ls),
(128,359,o),
(183,427,o),
(263,427,cs),
(345,427,l),
(359,500,l),
(263,500,ls),
(184,500,o),
(136,432,o),
(104,275,c),
(124,335,l),
(156,500,l),
(81,500,l),
(-16,0,l)
);
}
);
width = 315;
},
{
anchors = (
{
name = bottom;
pos = (50,0);
},
{
name = top;
pos = (228,500);
}
);
layerId = m008;
shapes = (
{
closed = 1;
nodes = (
(119,0,l),
(159,208,ls),
(184,340,o),
(226,387,o),
(315,387,cs),
(397,387,l),
(419,500,l),
(315,500,ls),
(242,500,o),
(180,405,o),
(149,245,c),
(180,314,l),
(216,500,l),
(81,500,l),
(-16,0,l)
);
}
);
width = 379;
},
{
anchors = (
{
name = bottom;
pos = (7,0);
},
{
name = top;
pos = (180,500);
}
);
layerId = m006;
shapes = (
{
closed = 1;
nodes = (
(39,0,l),
(85,238,ls),
(111,374,o),
(171,447,o),
(257,447,cs),
(329,447,l),
(339,500,l),
(257,500,ls),
(173,500,o),
(113,425,o),
(86,285,c),
(106,346,l),
(136,500,l),
(81,500,l),
(-16,0,l)
);
}
);
width = 292;
}
);
metricLeft = m;
unicode = 114;
},
{
glyphname = s;
kernLeft = s;
kernRight = s;
layers = (
{
anchors = (
{
name = bottom;
pos = (248,0);
},
{
name = top;
pos = (248,500);
}
);
layerId = m01;
shapes = (
{
closed = 1;
nodes = (
(372,-16,o),
(457,49,o),
(457,142,cs),
(457,326,o),
(138,264,o),
(138,377,cs),
(138,425,o),
(194,443,o),
(248,443,cs),
(309,443,o),
(363,420,o),
(363,362,c),
(436,372,l),
(436,469,o),
(353,516,o),
(253,516,cs),
(157,516,o),
(60,473,o),
(60,373,cs),
(60,192,o),
(379,265,o),
(379,139,cs),
(379,84,o),
(318,57,o),
(255,57,cs),
(175,57,o),
(107,100,o),
(107,180,c),
(34,170,l),
(34,52,o),
(130,-16,o),
(252,-16,cs)
);
}
);
width = 493;
},
{
anchors = (
{
name = bottom;
pos = (277,0);
},
{
name = top;
pos = (277,500);
}
);
layerId = m005;
shapes = (
{
closed = 1;
nodes = (
(429,-16,o),
(516,48,o),
(516,153,cs),
(516,354,o),
(197,278,o),
(197,362,cs),
(197,386,o),
(223,403,o),
(273,403,cs),
(328,403,o),
(357,383,o),
(361,347,c),
(495,357,l),
(491,452,o),
(407,516,o),
(271,516,cs),
(144,516,o),
(59,461,o),
(59,357,cs),
(59,156,o),
(378,241,o),
(378,148,cs),
(378,117,o),
(344,97,o),
(286,97,cs),
(213,97,o),
(171,128,o),
(167,176,c),
(34,166,l),
(38,58,o),
(135,-16,o),
(287,-16,cs)
);
}
);
width = 554;
},
{
anchors = (
{
name = bottom;
pos = (235,0);
},
{
name = top;
pos = (235,500);
}
);
layerId = m007;
shapes = (
{
closed = 1;
nodes = (
(355,-16,o),
(433,47,o),
(433,139,cs),
(433,325,o),
(114,249,o),
(114,380,cs),
(114,437,o),
(174,463,o),
(237,463,cs),
(296,463,o),
(349,440,o),
(358,383,c),
(412,391,l),
(400,477,o),
(322,516,o),
(236,516,cs),
(143,516,o),
(56,470,o),
(56,376,cs),
(56,197,o),
(375,277,o),
(375,134,cs),
(375,71,o),
(312,37,o),
(245,37,cs),
(166,37,o),
(102,83,o),
(83,159,c),
(30,151,l),
(44,44,o),
(133,-16,o),
(243,-16,cs)
);
}
);
width = 467;
},
{
anchors = (
{
name = bottom;
pos = (182,0);
},
{
name = top;
pos = (280,500);
}
);
layerId = m004;
shapes = (
{
closed = 1;
nodes = (
(336,-16,o),
(418,50,o),
(418,142,cs),
(418,310,o),
(151,276,o),
(151,378,cs),
(151,422,o),
(201,443,o),
(252,443,cs),
(318,443,o),
(366,407,o),
(371,362,c),
(446,372,l),
(440,451,o),
(358,516,o),
(254,516,cs),
(158,516,o),
(73,460,o),
(73,371,cs),
(73,214,o),
(340,256,o),
(340,140,cs),
(340,90,o),
(291,57,o),
(225,57,cs),
(139,57,o),
(79,112,o),
(74,180,c),
(-1,170,l),
(4,67,o),
(96,-16,o),
(223,-16,cs)
);
}
);
width = 471;
},
{
anchors = (
{
name = bottom;
pos = (210,0);
},
{
name = top;
pos = (308,500);
}
);
layerId = m008;
shapes = (
{
closed = 1;
nodes = (
(383,-16,o),
(478,56,o),
(478,157,cs),
(478,331,o),
(205,291,o),
(205,363,cs),
(205,390,o),
(242,403,o),
(279,403,cs),
(330,403,o),
(367,378,o),
(371,347,c),
(507,357,l),
(499,445,o),
(393,516,o),
(269,516,cs),
(159,516,o),
(67,460,o),
(67,358,cs),
(67,183,o),
(340,229,o),
(340,146,cs),
(340,113,o),
(298,97,o),
(254,97,cs),
(189,97,o),
(139,132,o),
(134,176,c),
(-1,166,l),
(8,66,o),
(110,-16,o),
(250,-16,cs)
);
}
);
width = 528;
},
{
anchors = (
{
name = bottom;
pos = (175,0);
},
{
name = top;
pos = (273,500);
}
);
layerId = m006;
shapes = (
{
closed = 1;
nodes = (
(321,-16,o),
(400,47,o),
(400,134,cs),
(400,299,o),
(125,262,o),
(125,378,cs),
(125,433,o),
(188,463,o),
(250,463,cs),
(322,463,o),
(371,422,o),
(375,371,c),
(431,381,l),
(427,456,o),
(352,516,o),
(250,516,cs),
(155,516,o),
(67,465,o),
(67,376,cs),
(67,219,o),
(342,261,o),
(342,132,cs),
(342,75,o),
(287,37,o),
(212,37,cs),
(118,37,o),
(55,97,o),
(55,171,c),
(0,161,l),
(0,63,o),
(88,-16,o),
(211,-16,cs)
);
}
);
width = 452;
}
);
unicode = 115;
},
{
glyphname = germandbls;
kernLeft = l;
kernRight = o;
layers = (
{
anchors = (
{
name = bottom;
pos = (284,0);
},
{
name = top;
pos = (284,965);
}
);
layerId = m01;
shapes = (
{
closed = 1;
nodes = (
(155,0,l),
(155,490,ls),
(155,581,o),
(208,643,o),
(286,643,cs),
(356,643,o),
(405,594,o),
(405,525,cs),
(405,453,o),
(353,402,o),
(280,402,cs),
(245,402,l),
(245,329,l),
(295,329,ls),
(379,329,o),
(439,274,o),
(439,198,cs),
(439,123,o),
(381,73,o),
(295,73,cs),
(245,73,l),
(245,0,l),
(305,0,ls),
(431,0,o),
(517,80,o),
(517,195,cs),
(517,301,o),
(445,377,o),
(344,377,c),
(324,354,l),
(416,354,o),
(483,426,o),
(483,526,cs),
(483,636,o),
(400,716,o),
(286,716,cs),
(164,716,o),
(80,624,o),
(80,490,cs),
(80,0,l)
);
}
);
width = 560;
},
{
anchors = (
{
name = bottom;
pos = (325,0);
},
{
name = top;
pos = (325,965);
}
);
layerId = m005;
shapes = (
{
closed = 1;
nodes = (
(215,0,l),
(215,470,ls),
(215,550,o),
(260,603,o),
(326,603,cs),
(383,603,o),
(424,565,o),
(424,513,cs),
(424,459,o),
(379,422,o),
(314,422,cs),
(294,422,l),
(294,306,l),
(354,306,ls),
(415,306,o),
(458,266,o),
(458,209,cs),
(458,154,o),
(419,116,o),
(364,116,cs),
(294,116,l),
(294,0,l),
(374,0,ls),
(505,0,o),
(596,83,o),
(596,201,cs),
(596,308,o),
(521,385,o),
(415,385,c),
(415,353,l),
(501,353,o),
(562,422,o),
(562,518,cs),
(562,635,o),
(469,716,o),
(334,716,cs),
(185,716,o),
(80,615,o),
(80,470,cs),
(80,0,l)
);
}
);
width = 636;
},
{
anchors = (
{
name = bottom;
pos = (273,0);
},
{
name = top;
pos = (273,965);
}
);
layerId = m007;
shapes = (
{
closed = 1;
nodes = (
(135,0,l),
(135,500,ls),
(135,596,o),
(192,663,o),
(275,663,cs),
(351,663,o),
(405,608,o),
(405,530,cs),
(405,450,o),
(348,392,o),
(270,392,cs),
(245,392,l),
(245,339,l),
(285,339,ls),
(375,339,o),
(439,278,o),
(439,194,cs),
(439,111,o),
(376,53,o),
(285,53,cs),
(245,53,l),
(245,0,l),
(295,0,ls),
(414,0,o),
(497,79,o),
(497,193,cs),
(497,301,o),
(424,376,o),
(322,375,c),
(312,362,l),
(400,361,o),
(463,431,o),
(463,531,cs),
(463,640,o),
(386,716,o),
(277,716,cs),
(161,716,o),
(82,628,o),
(82,500,cs),
(80,0,l)
);
}
);
width = 541;
},
{
anchors = (
{
name = bottom;
pos = (206,0);
},
{
name = top;
pos = (394,965);
}
);
layerId = m004;
shapes = (
{
closed = 1;
nodes = (
(58,0,l),
(153,490,ls),
(172,585,o),
(229,643,o),
(303,643,cs),
(368,643,o),
(412,598,o),
(412,531,cs),
(412,454,o),
(352,402,o),
(261,402,cs),
(226,402,l),
(212,329,l),
(262,329,ls),
(332,329,o),
(383,278,o),
(383,206,cs),
(383,124,o),
(317,73,o),
(212,73,cs),
(162,73,l),
(148,0,l),
(208,0,ls),
(363,0,o),
(462,82,o),
(462,209,cs),
(462,307,o),
(403,377,o),
(320,377,c),
(296,354,l),
(413,354,o),
(492,427,o),
(492,536,cs),
(492,642,o),
(417,716,o),
(310,716,cs),
(193,716,o),
(104,629,o),
(78,490,cs),
(-17,0,l)
);
}
);
width = 517;
},
{
anchors = (
{
name = bottom;
pos = (247,0);
},
{
name = top;
pos = (435,965);
}
);
layerId = m008;
shapes = (
{
closed = 1;
nodes = (
(118,0,l),
(209,470,ls),
(228,555,o),
(275,603,o),
(339,603,cs),
(393,603,o),
(429,569,o),
(429,519,cs),
(429,460,o),
(378,422,o),
(299,422,cs),
(279,422,l),
(256,306,l),
(316,306,ls),
(368,306,o),
(404,270,o),
(404,217,cs),
(404,157,o),
(358,116,o),
(290,116,cs),
(220,116,l),
(197,0,l),
(277,0,ls),
(438,0,o),
(542,84,o),
(542,215,cs),
(542,315,o),
(481,385,o),
(393,385,c),
(387,353,l),
(496,353,o),
(570,424,o),
(570,527,cs),
(570,639,o),
(480,716,o),
(351,716,cs),
(209,716,o),
(103,622,o),
(74,470,cs),
(-17,0,l)
);
}
);
width = 594;
},
{
anchors = (
{
name = bottom;
pos = (126,0);
},
{
name = top;
pos = (502,965);
}
);
layerId = m006;
shapes = (
{
closed = 1;
nodes = (
(37,0,l),
(134,500,ls),
(154,601,o),
(216,663,o),
(295,663,cs),
(365,663,o),
(413,613,o),
(413,538,cs),
(413,451,o),
(347,392,o),
(248,392,cs),
(223,392,l),
(213,339,l),
(253,339,ls),
(328,339,o),
(382,283,o),
(382,203,cs),
(382,111,o),
(310,53,o),
(197,53,cs),
(157,53,l),
(147,0,l),
(197,0,ls),
(345,0,o),
(440,81,o),
(440,207,cs),
(440,307,o),
(381,376,o),
(297,375,c),
(286,362,l),
(398,362,o),
(472,434,o),
(472,541,cs),
(472,645,o),
(402,716,o),
(301,716,cs),
(191,716,o),
(106,633,o),
(81,500,cs),
(-18,0,l)
);
}
);
width = 498;
}
);
metricLeft = l;
metricRight = "=o*1.1";
unicode = 223;
},
